<svg width="251" height="44" viewBox="0 0 251 44" fill="none" xmlns="http://www.w3.org/2000/svg">
<circle cx="13.5" cy="5.5" r="5.5" fill="#EC2227"/>
<circle cx="30.5" cy="5.5" r="5.5" fill="#EC2227"/>
<circle cx="13.5" cy="38.5" r="5.5" fill="#EC2227"/>
<circle cx="30.5" cy="38.5" r="5.5" fill="#EC2227"/>
<circle cx="5.5" cy="22" r="5.5" fill="#EC2227"/>
<circle cx="22" cy="22" r="8" fill="#EC2227"/>
<circle cx="38.5" cy="22" r="5.5" fill="#EC2227"/>
<path d="M55.325 14.25H63.225V15.9H55.325V14.25ZM65.875 14.275H74.775V15.925H65.875V14.275ZM55.75 11.925L57.525 12.4C56.5 15.2 54.875 18 53.175 19.825C52.85 19.5 52.15 18.85 51.725 18.575C53.4 16.95 54.9 14.45 55.75 11.925ZM66.275 11.925L68.125 12.325C67.275 15.175 65.825 17.9 64.175 19.675C63.825 19.375 63.05 18.85 62.575 18.6C64.25 17 65.55 14.525 66.275 11.925ZM56.975 17.35L58.2 16.425C59.075 17.2 60.1 18.3 60.6 19.025L59.325 20.1C58.85 19.325 57.85 18.175 56.975 17.35ZM68.25 17.275L69.45 16.35C70.425 17.225 71.575 18.475 72.125 19.25L70.85 20.325C70.3 19.475 69.175 18.2 68.25 17.275ZM53.65 22.45H73.4V24.175H53.65V22.45ZM52.375 32.55H74.575V34.35H52.375V32.55ZM56.875 25.525L58.65 25.025C59.675 27.125 60.55 29.875 60.85 31.65L58.925 32.2C58.675 30.4 57.825 27.625 56.875 25.525ZM68.65 24.9L70.625 25.425C69.65 28.1 68.3 31.35 67.175 33.4L65.45 32.875C66.55 30.8 67.95 27.375 68.65 24.9ZM62 20.025L63.85 19.525C64.325 20.5 64.825 21.775 64.975 22.575L63 23.15C62.85 22.35 62.4 21.025 62 20.025ZM89.775 12.775H97.15V14.325H89.775V12.775ZM89.8 16.525H97.175V17.9H89.8V16.525ZM89.575 20.2H97.175V21.575H89.575V20.2ZM88.9 12.775H90.625V18C90.625 20.625 90.15 23.925 87.375 26.075C87.125 25.725 86.45 25.075 86.075 24.825C88.6 22.9 88.9 20.2 88.9 17.975V12.775ZM96.5 12.775H98.35V23.725C98.35 24.675 98.15 25.175 97.45 25.45C96.725 25.725 95.575 25.75 93.9 25.75C93.775 25.275 93.45 24.575 93.2 24.15C94.5 24.2 95.675 24.175 96.05 24.15C96.4 24.125 96.5 24.05 96.5 23.725V12.775ZM79.3 17.35H85.375V18.85H79.3V17.35ZM78.475 13.175H80.2V24.4H78.475V13.175ZM79.325 13.175H86.475V23.05H79.325V21.525H84.725V14.7H79.325V13.175ZM77.05 32.65H99.875V34.3H77.05V32.65ZM79.975 26.525H97.1V33.525H95.275V28.05H91.875V33.525H90.15V28.05H86.8V33.525H85.05V28.05H81.725V33.525H79.975V26.525ZM103.025 14.2H124V18.2H122.225V15.725H104.75V18.2H103.025V14.2ZM112.875 17.425H114.475C114.35 19.025 114.175 20.975 114 22.2H112.35C112.575 20.925 112.775 18.975 112.875 17.425ZM107.4 27.025V28.175H119.675V27.025H107.4ZM107.4 29.25V30.45H119.675V29.25H107.4ZM107.4 24.825V25.95H119.675V24.825H107.4ZM105.6 23.7H121.575V31.55H105.6V23.7ZM115.075 32.65L116.05 31.525C118.975 32.25 122.05 33.175 124.025 33.875L122.775 35.1C120.95 34.4 118 33.45 115.075 32.65ZM108.225 18.025L107.75 21.525H118.825L119.075 18.025H108.225ZM106.675 16.9H120.95L120.45 22.65H105.925L106.675 16.9ZM110.425 31.525L111.975 32.55C109.9 33.65 106.525 34.6 103.775 35.075C103.525 34.725 103.075 34.1 102.725 33.75C105.425 33.325 108.85 32.4 110.425 31.525ZM102.2 19H107.575V19.175H119.35V19H124.85V20.45H119.35V20.3H107.575V20.45H102.2V19ZM111.6 12.35L113.225 11.825C113.9 12.675 114.6 13.85 114.875 14.65L113.15 15.225C112.925 14.425 112.25 13.225 111.6 12.35ZM127.575 27.45H149.475V29.025H127.575V27.45ZM127.675 16.475H149.375V18.025H127.675V16.475ZM128.675 20.8H148.475V22.325H128.675V20.8ZM129.95 24.15H147.25V25.6H129.95V24.15ZM137.525 21.475H139.375V35.025H137.525V21.475ZM135.25 12H137V17.225H135.25V12ZM139.975 12H141.775V17.15H139.975V12ZM145.775 12.3L147.7 12.825C146.95 14.2 146.075 15.675 145.375 16.65L143.85 16.15C144.525 15.1 145.35 13.45 145.775 12.3ZM142.55 17.95L144.475 18.475C143.85 19.425 143.15 20.35 142.575 21.025L141.025 20.55C141.525 19.8 142.2 18.675 142.55 17.95ZM129.7 12.825L131.3 12.25C132.175 13.375 133.1 14.95 133.45 15.975L131.775 16.6C131.425 15.6 130.525 14 129.7 12.825ZM132.825 18.35L134.575 17.925C135.15 18.725 135.725 19.8 135.975 20.525L134.175 21C133.975 20.3 133.4 19.175 132.825 18.35ZM134.9 30.3L136.3 30.975C134.5 32.325 131.2 33.625 128.6 34.2C128.35 33.75 127.825 33.15 127.45 32.8C130.05 32.375 133.25 31.375 134.9 30.3ZM141 31.2L142.15 30.175C144.5 30.975 147.725 32.175 149.425 32.975L148.25 34.15C146.6 33.35 143.4 32.05 141 31.2ZM152.575 15.25H174.475V17.025H152.575V15.25ZM158.475 24.175H170.375V25.8H158.475V24.175ZM169.7 19.925H171.525V32.675C171.525 33.775 171.3 34.35 170.45 34.65C169.65 34.95 168.25 34.95 166.1 34.95C166.025 34.425 165.75 33.65 165.475 33.125C167.15 33.2 168.675 33.175 169.125 33.175C169.55 33.15 169.7 33.025 169.7 32.65V19.925ZM160.75 12L162.65 12.45C160.975 17.875 157.975 23.375 153.275 26.7C153.025 26.275 152.425 25.6 152.075 25.25C156.475 22.2 159.4 16.95 160.75 12ZM158.325 28.4H170.375V30.025H158.325V28.4ZM158.35 19.925H170.225V21.625H158.35V19.925ZM157.35 19.925H159.225V26.55C159.225 29.325 158.8 32.85 156.35 35.15C156.1 34.725 155.4 33.95 155.025 33.675C157.125 31.675 157.35 28.9 157.35 26.525V19.925ZM178.275 13.05H184.3V14.75H179.95V34.975H178.275V13.05ZM183.95 13.05H184.275L184.575 12.975L185.8 13.7C185.05 15.75 184.15 18.2 183.3 20.2C185.125 22.275 185.55 24.1 185.55 25.65C185.55 27 185.25 28.075 184.55 28.575C184.225 28.825 183.75 28.975 183.25 29.05C182.75 29.1 182.125 29.1 181.575 29.075C181.55 28.625 181.375 27.9 181.1 27.425C181.65 27.475 182.15 27.5 182.575 27.45C182.85 27.425 183.125 27.375 183.35 27.225C183.7 26.95 183.85 26.25 183.85 25.5C183.85 24.125 183.425 22.375 181.6 20.4C182.525 18.125 183.45 15.25 183.95 13.55V13.05ZM188 13.125H198.075V24.1H188V22.45H196.25V14.775H188V13.125ZM188.125 17.8H197.225V19.375H188.125V17.8ZM192.7 23.125C193.775 27.825 196.175 31.6 200.125 33.2C199.7 33.575 199.125 34.325 198.825 34.825C194.725 32.85 192.35 28.75 191.15 23.425L192.7 23.125ZM198.325 24.925L199.575 26.225C198.1 27.425 196.125 28.725 194.675 29.55L193.65 28.35C195.075 27.5 197.15 26.025 198.325 24.925ZM186.975 35.025L186.825 33.35L187.725 32.65L193.3 31.3C193.3 31.825 193.325 32.6 193.4 33C188.225 34.425 187.45 34.7 186.975 35.025ZM186.975 35.025C186.825 34.6 186.425 33.825 186.125 33.475C186.5 33.25 187.05 32.725 187.05 31.7V13.125H188.875V33.175C188.875 33.175 186.975 34.325 186.975 35.025ZM216.25 26.175L218.025 25.375C220.075 28.05 222.475 31.6 223.675 33.825L221.8 34.85C220.65 32.55 218.225 28.85 216.25 26.175ZM208.9 12.75L210.95 13.375C209.15 17.5 206.375 21.525 203.575 24.1C203.225 23.7 202.4 22.925 201.9 22.575C204.725 20.25 207.35 16.55 208.9 12.75ZM205.05 33.8C204.925 33.375 204.575 32.325 204.3 31.775C204.975 31.6 205.7 30.775 206.65 29.6C207.675 28.45 210.925 23.95 213.025 19.675L215.125 20.575C212.625 25.05 209.6 29.525 206.575 32.65V32.7C206.575 32.7 205.05 33.325 205.05 33.8ZM205.05 33.8L205 32.2L206.375 31.45L221.125 30.6C221.225 31.15 221.425 31.95 221.55 32.375C207.45 33.325 206.025 33.4 205.05 33.8ZM216.35 12.625H218.575C219.775 16.625 222.3 20.4 225.25 22.35C224.8 22.725 224.125 23.525 223.775 24.1C220.75 21.825 218.175 17.825 216.85 13.75H216.35V12.625ZM212.475 12.625H217.95V14.55H212.475V12.625ZM228.2 13.625H247.05V15.425H228.2V13.625ZM228.35 18.05H243.425V19.725H228.35V18.05ZM246.3 13.625H248.175V32.2C248.175 33.5 247.925 34.15 247.05 34.5C246.175 34.825 244.6 34.85 242.375 34.85C242.275 34.275 242 33.35 241.7 32.8C243.45 32.85 245.15 32.85 245.675 32.825C246.15 32.8 246.3 32.675 246.3 32.2V13.625ZM229.95 22.425H231.775V32.275H229.95V22.425ZM231.45 22.425H241.7V30.425H231.45V28.775H239.85V24.1H231.45V22.425Z" fill="#EC2227"/>
</svg>
