<svg width="27" height="27" viewBox="0 0 27 27" fill="none" xmlns="http://www.w3.org/2000/svg">
<path d="M3.85714 0C1.72969 0 0 1.72969 0 3.85714V23.1429C0 25.2703 1.72969 27 3.85714 27H23.1429C25.2703 27 27 25.2703 27 23.1429V3.85714C27 1.72969 25.2703 0 23.1429 0H3.85714ZM9.32344 5.8279C9.90804 5.67121 10.5228 5.96652 10.7518 6.52701L11.9571 9.41987C12.1621 9.91406 12.0174 10.4806 11.6076 10.8181L10.125 12.0355C11.1254 14.1569 12.8431 15.8746 14.9645 16.875L16.1819 15.3864C16.5194 14.9766 17.0859 14.8319 17.5801 15.0368L20.473 16.2422C21.0335 16.4772 21.3288 17.0859 21.1721 17.6705L20.4489 20.3223C20.3042 20.8527 19.8281 21.2143 19.2857 21.2143C11.8306 21.2143 5.78571 15.1694 5.78571 7.71429C5.78571 7.17188 6.14732 6.69576 6.67165 6.55112L9.32344 5.8279Z" fill="#222222"/>
</svg>
