<svg width="224" height="173" viewBox="0 0 224 173" fill="none" xmlns="http://www.w3.org/2000/svg">
<path d="M-7.62929e-06 108.886C38.5 233.968 59.0005 135.806 121.512 135.806C184.023 135.806 224 109.958 224 54.3506C209 -35.7088 184.023 13.3235 121.512 13.3235C59.0005 13.3235 -7.62929e-06 53.2785 -7.62929e-06 108.886Z" fill="#252525"/>
<g clip-path="url(#clip0_63_6661)">
<path d="M67.5294 69.2762C67.7801 67.3427 65.0588 65.7314 62.9821 65.5524C61.9795 65.4808 60.977 65.624 60.046 65.3017C58.0409 64.5856 57.2174 61.9718 55.2481 61.1483C53.7801 60.5396 52.0614 61.0767 50.6292 61.7928C49.1969 62.5089 47.8005 63.4041 46.1893 63.5115C44.7928 63.5831 43.289 63.0818 42.0716 63.7621C41.1765 64.2634 40.6752 65.3017 39.8517 65.9104C39.0281 66.5191 37.954 66.6266 36.9514 66.6982C35.9489 66.7698 34.8747 66.7698 33.9795 67.1994C33.0486 67.6291 32.2967 68.5959 32.4757 69.5984L67.5294 69.2762Z" fill="#F5F5F5"/>
<path d="M160.588 28.2788H160.194V49.3683H160.588V28.2788Z" fill="#E0E0E0"/>
<path d="M153.893 28.6011H153.499V49.6906H153.893V28.6011Z" fill="#E0E0E0"/>
<path d="M147.161 28.2072H146.767V49.2967H147.161V28.2072Z" fill="#E0E0E0"/>
<path d="M140.465 28.6011H140.072V49.6906H140.465V28.6011Z" fill="#E0E0E0"/>
<path d="M187.944 45H139.821V169.317H187.944V45Z" fill="#EBEBEB"/>
<path d="M187.944 45H165.386V169.317H187.944V45Z" fill="#E0E0E0"/>
<path d="M154.251 53.5934H149.918V64.1202H154.251V53.5934Z" fill="#F5F5F5"/>
<path d="M165.386 68.2379C165.386 68.3453 159.657 68.4527 152.604 68.4527C145.55 68.4527 139.821 68.3453 139.821 68.2379C139.821 68.1305 145.55 68.0231 152.604 68.0231C159.657 68.0231 165.386 68.1305 165.386 68.2379Z" fill="#F5F5F5"/>
<path d="M154.251 74.3248H149.918V84.8517H154.251V74.3248Z" fill="#F5F5F5"/>
<path d="M165.386 88.9694C165.386 89.0768 159.657 89.1842 152.604 89.1842C145.55 89.1842 139.821 89.0768 139.821 88.9694C139.821 88.8619 145.55 88.7545 152.604 88.7545C159.657 88.7545 165.386 88.8619 165.386 88.9694Z" fill="#F5F5F5"/>
<path d="M154.251 97.0256H149.918V107.552H154.251V97.0256Z" fill="#F5F5F5"/>
<path d="M165.386 111.67C165.386 111.778 159.657 111.885 152.604 111.885C145.55 111.885 139.821 111.778 139.821 111.67C139.821 111.563 145.55 111.455 152.604 111.455C159.657 111.455 165.386 111.563 165.386 111.67Z" fill="#F5F5F5"/>
<path d="M154.251 119.726H149.918V130.253H154.251V119.726Z" fill="#F5F5F5"/>
<path d="M165.386 134.371C165.386 134.478 159.657 134.586 152.604 134.586C145.55 134.586 139.821 134.478 139.821 134.371C139.821 134.263 145.55 134.156 152.604 134.156C159.657 134.156 165.386 134.228 165.386 134.371Z" fill="#F5F5F5"/>
<path d="M154.251 142.427H149.918V152.954H154.251V142.427Z" fill="#F5F5F5"/>
<path d="M165.386 157.072C165.386 157.179 159.657 157.286 152.604 157.286C145.55 157.286 139.821 157.179 139.821 157.072C139.821 156.964 145.55 156.857 152.604 156.857C159.657 156.857 165.386 156.928 165.386 157.072Z" fill="#F5F5F5"/>
<path d="M174.517 53.5934H170.184V64.1202H174.517V53.5934Z" fill="#F5F5F5"/>
<path d="M183.898 53.5934H179.565V64.1202H183.898V53.5934Z" fill="#F5F5F5"/>
<path d="M174.517 73.5371H170.184V84.064H174.517V73.5371Z" fill="#F5F5F5"/>
<path d="M183.898 73.5371H179.565V84.064H183.898V73.5371Z" fill="#F5F5F5"/>
<path d="M174.194 95.8798H169.862V106.407H174.194V95.8798Z" fill="#F5F5F5"/>
<path d="M183.575 95.8798H179.243V106.407H183.575V95.8798Z" fill="#F5F5F5"/>
<path d="M174.194 120.12H169.862V130.647H174.194V120.12Z" fill="#F5F5F5"/>
<path d="M183.575 120.12H179.243V130.647H183.575V120.12Z" fill="#F5F5F5"/>
<path d="M174.194 144.361H169.862V154.887H174.194V144.361Z" fill="#F5F5F5"/>
<path d="M183.575 144.361H179.243V154.887H183.575V144.361Z" fill="#F5F5F5"/>
<path d="M165.386 46.0742V40.3812H170.184V37.2303H176.665V34.4016H187.944V45.6446L165.386 46.0742Z" fill="#E0E0E0"/>
<path d="M165.565 25.0922H165.171V46.1817H165.565V25.0922Z" fill="#E0E0E0"/>
<path d="M170.363 25.0922H169.969V46.1817H170.363V25.0922Z" fill="#E0E0E0"/>
<path d="M176.88 22.1202H176.486V43.2098H176.88V22.1202Z" fill="#E0E0E0"/>
<path d="M187.836 22.1202H187.442V43.2098H187.836V22.1202Z" fill="#E0E0E0"/>
<path d="M182.358 22.1202H181.964V43.2098H182.358V22.1202Z" fill="#E0E0E0"/>
<path d="M165.386 39.3785H140.43V39.7724H165.386V39.3785Z" fill="#E0E0E0"/>
<path d="M176.737 34.2225H140.501V34.6164H176.737V34.2225Z" fill="#E0E0E0"/>
<path d="M114.864 65.266H114.471V86.3555H114.864V65.266Z" fill="#E0E0E0"/>
<path d="M108.169 65.5883H107.775V86.6778H108.169V65.5883Z" fill="#E0E0E0"/>
<path d="M101.437 65.1943H101.043V86.2839H101.437V65.1943Z" fill="#E0E0E0"/>
<path d="M94.7417 65.5883H94.3478V86.6778H94.7417V65.5883Z" fill="#E0E0E0"/>
<path d="M142.22 81.9514H94.0972V169.317H142.22V81.9514Z" fill="#EBEBEB"/>
<path d="M142.22 81.9514H119.662V169.317H142.22V81.9514Z" fill="#E0E0E0"/>
<path d="M108.527 90.5448H104.194V101.072H108.527V90.5448Z" fill="#F5F5F5"/>
<path d="M119.662 105.189C119.662 105.297 113.934 105.404 106.88 105.404C99.8261 105.404 94.0972 105.297 94.0972 105.189C94.0972 105.082 99.8261 104.974 106.88 104.974C113.934 104.974 119.662 105.082 119.662 105.189Z" fill="#F5F5F5"/>
<path d="M108.527 111.312H104.194V121.839H108.527V111.312Z" fill="#F5F5F5"/>
<path d="M119.662 125.921C119.662 126.028 113.934 126.136 106.88 126.136C99.8261 126.136 94.0972 126.028 94.0972 125.921C94.0972 125.813 99.8261 125.706 106.88 125.706C113.934 125.706 119.662 125.813 119.662 125.921Z" fill="#F5F5F5"/>
<path d="M108.527 133.977H104.194V144.504H108.527V133.977Z" fill="#F5F5F5"/>
<path d="M119.662 148.621C119.662 148.729 113.934 148.836 106.88 148.836C99.8261 148.836 94.0972 148.729 94.0972 148.621C94.0972 148.514 99.8261 148.407 106.88 148.407C113.934 148.407 119.662 148.514 119.662 148.621Z" fill="#F5F5F5"/>
<path d="M108.527 156.678H104.194V167.205H108.527V156.678Z" fill="#F5F5F5"/>
<path d="M128.793 90.5448H124.46V101.072H128.793V90.5448Z" fill="#F5F5F5"/>
<path d="M138.174 90.5448H133.841V101.072H138.174V90.5448Z" fill="#F5F5F5"/>
<path d="M128.793 110.524H124.46V121.051H128.793V110.524Z" fill="#F5F5F5"/>
<path d="M138.174 110.524H133.841V121.051H138.174V110.524Z" fill="#F5F5F5"/>
<path d="M128.471 132.867H124.138V143.394H128.471V132.867Z" fill="#F5F5F5"/>
<path d="M137.852 132.867H133.519V143.394H137.852V132.867Z" fill="#F5F5F5"/>
<path d="M128.471 157.107H124.138V167.634H128.471V157.107Z" fill="#F5F5F5"/>
<path d="M137.852 157.107H133.519V167.634H137.852V157.107Z" fill="#F5F5F5"/>
<path d="M119.662 83.0614V77.3325H124.46V74.1816H130.941V71.3888H142.22V82.596L119.662 83.0614Z" fill="#E0E0E0"/>
<path d="M119.841 62.0793H119.448V83.1689H119.841V62.0793Z" fill="#E0E0E0"/>
<path d="M124.639 62.0793H124.246V83.1689H124.639V62.0793Z" fill="#E0E0E0"/>
<path d="M131.156 59.1074H130.762V80.1969H131.156V59.1074Z" fill="#E0E0E0"/>
<path d="M142.113 59.1074H141.719V80.1969H142.113V59.1074Z" fill="#E0E0E0"/>
<path d="M136.634 59.1074H136.24V80.1969H136.634V59.1074Z" fill="#E0E0E0"/>
<path d="M119.698 76.33H94.7417V76.7238H119.698V76.33Z" fill="#E0E0E0"/>
<path d="M131.013 71.174H94.7775V71.5678H131.013V71.174Z" fill="#E0E0E0"/>
<path d="M63.4476 12.7033C63.5192 12.7033 63.5908 12.6317 63.5908 12.5959V12.4885V9.08695C63.5908 8.01278 62.6957 7.11764 61.6215 7.11764C61.2276 7.11764 60.8338 7.22505 60.5473 7.43989L59.0435 7.11764C58.9719 6.9028 58.8286 6.68797 58.578 6.54475C58.0767 6.2225 57.3964 6.36572 57.0742 6.9028C56.7519 7.40408 56.8951 8.08439 57.4322 8.40664C57.6471 8.54986 57.8977 8.58567 58.1125 8.54986L59.688 10.4118V12.4885V12.5959C59.688 12.6317 59.7238 12.7033 59.7596 12.7033H59.7954H59.8312L59.0077 25.6291H59.2583H59.4373H59.4731L59.6522 22.8005L61.4425 25.1637L61.0486 25.6291H61.4066L61.5857 25.3785L61.7647 25.6291H62.1228L61.7647 25.1637L63.6266 22.8005L63.8056 25.665H63.8414H64.0205H64.2711L63.4476 12.7033ZM61.6931 12.7033L62.9105 15.2455H60.2609L61.5141 12.7033H61.6931ZM62.0153 12.7033H62.9821L63.1253 15.0307L62.0153 12.7033ZM60.6905 12.7033H61.1918L60.1535 14.8517L60.2967 12.7033H60.6905ZM60.046 16.3197L61.4425 18.6112L59.688 21.3325L60.046 16.3197ZM60.2251 16.069H63.0895L61.6573 18.3606L60.2251 16.069ZM63.1969 16.3913L63.5192 21.4399L61.7647 18.6112L63.1969 16.3913ZM61.6215 18.8977L63.3043 21.6547H59.867L61.6215 18.8977ZM59.7238 22.4424H63.5192L61.5857 24.913L59.7238 22.4424Z" fill="#E0E0E0"/>
<path d="M65.2736 34.0076H64.8798H64.8082V36.7289L62.8389 34.5447L64.8798 32.3606H65.1304V31.7161H60.2251V32.3606H60.5473L62.5166 34.5447L60.4041 36.8363V34.0434H60.3325H59.9386H59.5089V101H60.3683V100.391H64.8082V100.964H65.6675V34.0076H65.2736ZM60.5115 89.936L62.4808 92.1202L60.3683 94.4117V89.9718L60.5115 89.936ZM60.8337 89.936H64.5217L62.6598 91.9411L60.8337 89.936ZM60.5831 89.2915L62.6598 87.0716L64.665 89.2915H60.5831ZM60.3683 89.1841V84.7442H60.5115L62.4808 86.9283L60.3683 89.1841ZM60.8337 84.7442H64.5217L62.6598 86.7493L60.8337 84.7442ZM60.5831 84.0639L62.6598 81.8439L64.665 84.0639H60.5831ZM60.3683 83.9565V79.5166H60.5115L62.4808 81.7007L60.3683 83.9565ZM60.8337 79.5166H64.5217L62.6598 81.5217L60.8337 79.5166ZM60.5831 78.8363L62.6598 76.6163L64.665 78.8363H60.5831ZM60.3683 78.7289V74.289H60.5115L62.4808 76.4731L60.3683 78.7289ZM60.8337 74.289H64.5217L62.6598 76.2941L60.8337 74.289ZM60.5831 73.6445L62.6598 71.4245L64.665 73.6445H60.5831ZM60.3683 73.537V69.0971H60.5115L62.4808 71.2813L60.3683 73.537ZM60.8337 69.0613H64.5217L62.6598 71.0664L60.8337 69.0613ZM60.5831 68.4168L62.6598 66.1969L64.665 68.4168H60.5831ZM60.3683 68.3094V63.8695H60.5115L62.4808 66.0537L60.3683 68.3094ZM60.8337 63.8337H64.5217L62.6598 65.8388L60.8337 63.8337ZM60.5831 63.1892L62.6598 60.9693L64.665 63.1892H60.5831ZM60.3683 63.0818V58.6419H60.5115L62.4808 60.826L60.3683 63.0818ZM60.8337 58.6419H64.5217L62.6598 60.647L60.8337 58.6419ZM60.5831 57.9616L62.6598 55.7416L64.665 57.9616H60.5831ZM60.3683 57.8542V53.4143H60.5115L62.4808 55.5984L60.3683 57.8542ZM60.8337 53.4143H64.5217L62.6598 55.4194L60.8337 53.4143ZM60.5831 52.7698L62.6598 50.5498L64.665 52.7698H60.5831ZM60.3683 52.6266V48.1867H60.5115L62.4808 50.3708L60.3683 52.6266ZM60.8337 48.1867H64.5217L62.6598 50.1918L60.8337 48.1867ZM60.5831 47.5422L62.6598 45.3222L64.665 47.5422H60.5831ZM60.3683 47.4347V42.9948H60.5115L62.4808 45.179L60.3683 47.4347ZM60.8337 42.959H64.5217L62.6598 44.9641L60.8337 42.959ZM60.5831 94.5191L62.6598 92.2992L64.665 94.5191H60.5831ZM62.8389 92.1202L64.8082 90.0076V94.3043L62.8389 92.1202ZM62.8389 86.8925L64.8082 84.78V89.0767L62.8389 86.8925ZM62.8389 81.7007L64.8082 79.5882V83.8849L62.8389 81.7007ZM62.8389 76.4731L64.8082 74.3606V78.6572L62.8389 76.4731ZM62.8389 71.2455L64.8082 69.1329V73.4296L62.8389 71.2455ZM62.8389 66.0179L64.8082 63.9053V68.202L62.8389 66.0179ZM62.8389 60.7902L64.8082 58.6777V62.9744L62.8389 60.7902ZM62.8389 55.5984L64.8082 53.4859V57.7826L62.8389 55.5984ZM62.8389 50.3708L64.8082 48.2583V52.5549L62.8389 50.3708ZM62.8389 45.1432L64.8082 43.0306V47.3273L62.8389 45.1432ZM64.7366 42.3145H60.5115L62.6598 40.023L64.7366 42.3145ZM62.8389 39.8439L64.8082 37.7314V42.0281L62.8389 39.8439ZM60.3683 42.0997V37.6598H60.5115L62.4808 39.8439L60.3683 42.0997ZM60.3683 95.1636H60.5115L62.4808 97.3478L60.3683 99.6393V95.1636ZM60.8337 95.1636H64.5217L62.6598 97.1687L60.8337 95.1636ZM64.8082 95.2352V99.5319L62.8389 97.3478L64.8082 95.2352ZM62.6598 39.6649L60.8337 37.6598H64.5217L62.6598 39.6649ZM62.6598 97.5268L64.665 99.7468H60.5831L62.6598 97.5268ZM60.8337 32.3606H64.5217L62.6598 34.3657L60.8337 32.3606ZM64.7366 37.0153H60.5115L62.6598 34.7237L64.7366 37.0153Z" fill="#E0E0E0"/>
<path d="M130.189 30.9284L123.744 26.1663C123.422 25.9156 123.064 25.8082 122.67 25.8082H80.8133H79.954H38.2046V26.6676H38.5985V31.1075H38.2046V31.9668H79.954H80.8133H129.867C130.153 31.9668 130.368 31.752 130.368 31.4655V31.3939C130.404 31.1791 130.332 31.0358 130.189 30.9284ZM119.734 28.6369L117.621 26.6676H121.918L119.734 28.6369ZM122.097 26.8108V30.8926L119.877 28.8159L122.097 26.8108ZM117.55 26.9182L119.555 28.7801L117.55 30.6062V26.9182ZM114.506 28.6369L112.394 26.6676H116.691L114.506 28.6369ZM116.87 26.8108V30.8926L114.65 28.8159L116.87 26.8108ZM112.322 26.9182L114.327 28.7801L112.322 30.6062V26.9182ZM109.279 28.6369L107.166 26.6676H111.463L109.279 28.6369ZM111.678 26.8108V30.8926L109.458 28.8159L111.678 26.8108ZM107.095 26.9182L109.1 28.7801L107.095 30.6062V26.9182ZM104.051 28.6369L101.939 26.6676H106.235L104.051 28.6369ZM106.45 26.8108V30.8926L104.23 28.8159L106.45 26.8108ZM101.867 26.9182L103.872 28.7801L101.867 30.6062V26.9182ZM98.8235 28.6369L96.711 26.6676H101.008L98.8235 28.6369ZM101.223 26.8108V30.8926L99.0026 28.8159L101.223 26.8108ZM96.6394 26.9182L98.6445 28.7801L96.6394 30.6062V26.9182ZM93.6317 28.6369L91.5192 26.6676H95.8159L93.6317 28.6369ZM95.9949 26.8108V30.8926L93.7749 28.8159L95.9949 26.8108ZM91.4476 26.9182L93.4527 28.7801L91.4476 30.6062V26.9182ZM88.4041 28.6369L86.2916 26.6676H90.5882L88.4041 28.6369ZM90.7673 26.8108V30.8926L88.5473 28.8159L90.7673 26.8108ZM86.22 26.9182L88.2251 28.7801L86.22 30.6062V26.9182ZM83.1765 28.6369L81.0639 26.6676H85.3606L83.1765 28.6369ZM85.5755 26.8108V30.8926L83.3555 28.8159L85.5755 26.8108ZM80.9923 26.9182L82.9974 28.7801L80.9923 30.6062V26.9182ZM80.3478 30.8568L78.1279 28.7801L80.3478 26.775V30.8568ZM80.9923 30.9284L83.1765 28.9591L85.468 31.0717H80.9923V30.9284ZM86.22 30.9284L88.4041 28.9591L90.6957 31.0717H86.2558L86.22 30.9284ZM91.4476 30.9284L93.6317 28.9591L95.9233 31.0717H91.4834L91.4476 30.9284ZM96.6752 30.9284L98.8593 28.9591L101.151 31.0717H96.711L96.6752 30.9284ZM101.867 30.9284L104.051 28.9591L106.343 31.0717H101.903L101.867 30.9284ZM107.095 30.9284L109.279 28.9591L111.57 31.0717H107.13L107.095 30.9284ZM112.322 30.9284L114.506 28.9591L116.798 31.0717H112.358L112.322 30.9284ZM117.55 30.9284L119.734 28.9591L122.026 31.0717H117.586L117.55 30.9284ZM80.133 26.6676L77.9489 28.6369L75.8363 26.6676H79.954H80.133ZM39.243 26.9182L41.2481 28.7801L39.243 30.6062V26.9182ZM39.2788 26.6676H43.5754L41.3913 28.6369L39.2788 26.6676ZM72.757 28.6369L70.6445 26.6676H74.9412L72.757 28.6369ZM75.1202 26.8108V30.8926L72.9003 28.8159L75.1202 26.8108ZM70.5729 26.9182L72.578 28.7801L70.5729 30.6062V26.9182ZM67.5294 28.6369L65.4169 26.6676H69.7136L67.5294 28.6369ZM69.8926 26.8108V30.8926L67.6726 28.8159L69.8926 26.8108ZM65.3453 26.9182L67.3504 28.7801L65.3453 30.6062V26.9182ZM62.3018 28.6369L60.1893 26.6676H64.4859L62.3018 28.6369ZM64.7008 26.8108V30.8926L62.4808 28.8159L64.7008 26.8108ZM60.1176 26.9182L62.1228 28.7801L60.1176 30.6062V26.9182ZM57.0742 28.6369L54.9616 26.6676H59.2583L57.0742 28.6369ZM59.4731 26.8108V30.8926L57.2532 28.8159L59.4731 26.8108ZM54.89 26.9182L56.8951 28.7801L54.89 30.6062V26.9182ZM51.8465 28.6369L49.734 26.6676H54.0307L51.8465 28.6369ZM54.2455 26.8108V30.8926L52.0256 28.8159L54.2455 26.8108ZM49.6624 26.9182L51.6675 28.7801L49.6624 30.6062V26.9182ZM46.6547 28.6369L44.5422 26.6676H48.8389L46.6547 28.6369ZM49.0179 26.8108V30.8926L46.798 28.8159L49.0179 26.8108ZM44.4706 26.9182L46.4757 28.7801L44.4706 30.6062V26.9182ZM43.7903 26.8108V30.8926L41.6061 28.8159L43.7903 26.8108ZM44.4706 30.9284L46.6547 28.9591L48.9463 31.0717H44.4706V30.9284ZM49.6624 30.9284L51.8465 28.9591L54.1381 31.0717H49.6624V30.9284ZM54.89 30.9284L57.0742 28.9591L59.3657 31.0717H54.89V30.9284ZM60.1176 30.9284L62.3018 28.9591L64.5934 31.0717H60.1176V30.9284ZM65.3453 30.9284L67.5294 28.9591L69.821 31.0717H65.3811L65.3453 30.9284ZM70.5729 30.9284L72.757 28.9591L75.0486 31.0717H70.6087L70.5729 30.9284ZM75.7647 26.9182L77.7698 28.7801L75.7647 30.6062V26.9182ZM39.243 30.9284L41.4271 28.9591L43.7187 31.0717H39.243V30.9284ZM75.7647 31.1075V30.9642L77.9489 28.9949L80.2404 31.1075H79.954H75.7647ZM122.778 31.1075V26.6676C123.136 26.7034 123.494 26.8108 123.78 27.0256L129.652 31.1075H122.778Z" fill="#E0E0E0"/>
<path d="M57.0026 25.7366C57.0384 28.601 56.9668 37.2302 56.9668 37.2302H67.3146L67.0281 35.5115C66.9923 35.3325 66.9923 35.1535 67.0281 34.9744L67.78 31.2148L65.954 25.4501C65.8465 25.0921 65.4885 24.8414 65.0946 24.8414C63.555 24.8414 59.688 24.8414 57.8619 24.8414C57.3964 24.8056 57.0026 25.2353 57.0026 25.7366Z" fill="#EBEBEB"/>
<path d="M61.7647 25.6292V31.9667H66.7417L67.243 31.2864L65.3095 25.6292H61.7647Z" fill="#F5F5F5"/>
<path d="M122.67 25.8082C122.67 25.8082 122.598 25.8082 122.419 25.7366C122.276 25.7008 122.026 25.6292 121.739 25.5575C121.13 25.3785 120.271 25.1279 119.125 24.8056C116.87 24.1611 113.575 23.2302 109.565 22.0844C101.473 19.757 90.3018 16.5345 77.9846 12.9898C70.8951 10.9489 64.1995 9.01535 58.3274 7.29668H58.4348C52.7775 12.5601 48.0153 17 44.6496 20.0793C42.9667 21.6189 41.6419 22.8363 40.711 23.6599C40.2455 24.0895 39.8875 24.376 39.6726 24.5908C39.422 24.8056 39.2788 24.8772 39.2788 24.8772C39.2788 24.8772 39.3146 24.8414 39.3862 24.8056C39.4578 24.734 39.5294 24.6624 39.6726 24.555C39.9233 24.3402 40.2455 24.0179 40.711 23.5882C41.6061 22.7289 42.9309 21.5115 44.6138 19.9719C47.9437 16.8568 52.7059 12.3811 58.3274 7.11765L58.3632 7.08185H58.399C64.2711 8.76471 70.9667 10.6982 78.0563 12.7391C90.3734 16.3197 101.545 19.5422 109.601 21.8696C113.647 23.0512 116.905 24.0179 119.161 24.6624C120.271 24.9847 121.166 25.2711 121.775 25.4143C122.061 25.4859 122.276 25.5576 122.455 25.6292C122.563 25.7724 122.67 25.8082 122.67 25.8082Z" fill="#E0E0E0"/>
<path d="M34.9463 24.5549C34.624 24.5549 34.3376 24.6982 34.1586 24.9488C33.6931 25.5575 32.9412 26.6317 32.8696 26.7391C32.798 26.8465 32.8338 30.5345 32.8696 32.3248C32.8696 32.8976 33.335 33.3273 33.8721 33.3273H43.0384C43.6112 33.3273 44.0409 32.8618 44.0409 32.3248V25.5933C44.0409 25.0204 43.5754 24.5907 43.0384 24.5907L34.9463 24.5549Z" fill="#EBEBEB"/>
<path d="M65.2736 100.964H64.8798H64.8082V104.76L62.8389 102.575L64.8798 100.391H65.1304V99.7468H60.2251V100.391H60.5473L62.5166 102.575L60.4041 104.867V100.964H60.3325H59.9386H59.5089V168.995H60.3683V168.422H64.8082V168.995H65.6675V100.964H65.2736ZM60.5115 158.003L62.4808 160.187L60.3683 162.478V158.038L60.5115 158.003ZM60.8337 158.003H64.5217L62.6598 160.008L60.8337 158.003ZM60.5831 157.322L62.6598 155.102L64.665 157.322H60.5831ZM60.3683 157.215V152.775H60.5115L62.4808 154.959L60.3683 157.215ZM60.8337 152.775H64.5217L62.6598 154.78L60.8337 152.775ZM60.5831 152.13L62.6598 149.91L64.665 152.13H60.5831ZM60.3683 152.023V147.583H60.5115L62.4808 149.767L60.3683 152.023ZM60.8337 147.547H64.5217L62.6598 149.552L60.8337 147.547ZM60.5831 146.903L62.6598 144.683L64.665 146.903H60.5831ZM60.3683 146.795V142.356H60.5115L62.4808 144.54L60.3683 146.795ZM60.8337 142.32H64.5217L62.6598 144.325L60.8337 142.32ZM60.5831 141.675L62.6598 139.455L64.665 141.675H60.5831ZM60.3683 141.568V137.128H60.5115L62.4808 139.312L60.3683 141.568ZM60.8337 137.092H64.5217L62.6598 139.097L60.8337 137.092ZM60.5831 136.448L62.6598 134.228L64.665 136.448H60.5831ZM60.3683 136.34V131.9H60.5115L62.4808 134.084L60.3683 136.34ZM60.8337 131.9H64.5217L62.6598 133.905L60.8337 131.9ZM60.5831 131.22L62.6598 129L64.665 131.22H60.5831ZM60.3683 131.113V126.673H60.5115L62.4808 128.857L60.3683 131.113ZM60.8337 126.673H64.5217L62.6598 128.678L60.8337 126.673ZM60.5831 126.028L62.6598 123.808L64.665 126.028H60.5831ZM60.3683 125.921V121.481H60.5115L62.4808 123.665L60.3683 125.921ZM60.8337 121.445H64.5217L62.6598 123.45L60.8337 121.445ZM60.5831 120.801L62.6598 118.581L64.665 120.801H60.5831ZM60.3683 120.693V116.253H60.5115L62.4808 118.437L60.3683 120.693ZM60.8337 116.217H64.5217L62.6598 118.223L60.8337 116.217ZM60.5831 115.573L62.6598 113.353L64.665 115.573H60.5831ZM60.3683 115.465V111.026H60.5115L62.4808 113.21L60.3683 115.465ZM60.8337 111.026H64.5217L62.6598 113.031L60.8337 111.026ZM60.5831 162.55L62.6598 160.33L64.665 162.55H60.5831ZM62.8389 160.187L64.8082 158.074V162.371L62.8389 160.187ZM62.8389 154.959L64.8082 152.847V157.143L62.8389 154.959ZM62.8389 149.731L64.8082 147.619V151.916L62.8389 149.731ZM62.8389 144.504L64.8082 142.391V146.688L62.8389 144.504ZM62.8389 139.276L64.8082 137.164V141.46L62.8389 139.276ZM62.8389 134.084L64.8082 131.972V136.269L62.8389 134.084ZM62.8389 128.857L64.8082 126.744V131.041L62.8389 128.857ZM62.8389 123.629L64.8082 121.517V125.813L62.8389 123.629ZM62.8389 118.402L64.8082 116.289V120.586L62.8389 118.402ZM62.8389 113.174L64.8082 111.061V115.358L62.8389 113.174ZM64.7366 110.345H60.5115L62.6598 108.054L64.7366 110.345ZM62.8389 107.875L64.8082 105.762V110.059L62.8389 107.875ZM60.3683 110.166V105.726H60.5115L62.4808 107.911L60.3683 110.166ZM60.3683 163.194H60.5115L62.4808 165.379L60.3683 167.67V163.194ZM60.8337 163.194H64.5217L62.6598 165.2L60.8337 163.194ZM64.8082 163.266V167.563L62.8389 165.379L64.8082 163.266ZM62.6598 107.696L60.8337 105.691H64.5217L62.6598 107.696ZM62.6598 165.558L64.665 167.778H60.5831L62.6598 165.558ZM60.8337 100.391H64.5217L62.6598 102.396L60.8337 100.391ZM64.7366 105.046H60.5115L62.6598 102.754L64.7366 105.046Z" fill="#E0E0E0"/>
<path d="M63.0179 9.30178C63.0179 10.0537 62.4092 10.6624 61.6573 10.6624C60.9054 10.6624 60.2967 10.0537 60.2967 9.30178C60.2967 8.54986 60.9054 7.94116 61.6573 7.94116C62.4092 7.94116 63.0179 8.54986 63.0179 9.30178Z" fill="#EBEBEB"/>
<path d="M58.7928 7.5115C58.7928 7.94117 58.4706 8.26342 58.0409 8.26342C57.6113 8.26342 57.289 7.90536 57.289 7.5115C57.289 7.08183 57.6471 6.75958 58.0409 6.75958C58.4348 6.75958 58.7928 7.08183 58.7928 7.5115Z" fill="#EBEBEB"/>
<path d="M151.637 15.89C151.852 14.3504 149.703 13.0972 148.056 12.954C147.269 12.8824 146.481 13.0256 145.729 12.7392C144.153 12.2021 143.509 10.1253 141.969 9.48084C140.824 8.97956 139.463 9.44503 138.353 9.98212C137.243 10.555 136.133 11.2711 134.844 11.3427C133.734 11.4143 132.552 11.0205 131.621 11.5576C130.905 11.9514 130.547 12.775 129.867 13.2762C129.223 13.7417 128.399 13.8491 127.575 13.8849C126.788 13.9207 125.964 13.9207 125.212 14.2788C124.496 14.601 123.887 15.3888 124.031 16.1765L151.637 15.89Z" fill="#EBEBEB"/>
<path d="M187.98 169.281C187.98 169.317 153.964 169.389 112 169.389C70.0358 169.389 35.9846 169.353 35.9846 169.281C35.9846 169.21 70 169.174 112 169.174C153.964 169.21 187.98 169.246 187.98 169.281Z" fill="#263238"/>
<path d="M77.6982 156.714C78.3069 156.964 78.7366 157.537 78.9514 158.146C79.1663 158.755 79.2021 159.435 79.1304 160.079C78.9872 161.333 78.2711 162.586 77.5192 163.588C76.4808 162.657 76.2302 161.082 76.1586 160.258C76.0154 158.898 76.6241 156.499 77.6982 156.714Z" fill="#455A64"/>
<path d="M78.7366 165.558C78.5576 164.841 78.844 164.09 79.4169 163.588C79.954 163.123 80.7059 162.908 81.422 162.944C81.7443 162.98 82.1023 163.051 82.3171 163.338C82.4962 163.588 82.4604 163.946 82.3171 164.233C82.1739 164.519 81.9233 164.734 81.6726 164.877C80.7417 165.486 79.7391 165.88 78.7366 165.558Z" fill="#455A64"/>
<path d="M77.376 169.389C77.376 169.389 77.376 169.281 77.4118 169.138C77.4476 168.959 77.4834 168.744 77.555 168.458C77.6624 167.885 77.8056 167.061 78.2711 166.238C78.7008 165.45 79.3453 164.841 79.8466 164.555C80.0972 164.412 80.3478 164.304 80.4911 164.269C80.5627 164.233 80.6343 164.233 80.6701 164.233C80.7059 164.233 80.7417 164.233 80.7417 164.233C80.7417 164.269 80.3836 164.304 79.8824 164.627C79.3811 164.913 78.7724 165.522 78.3427 166.31C77.9131 167.097 77.734 167.921 77.6266 168.494C77.555 168.78 77.5192 169.031 77.4834 169.174C77.4118 169.317 77.376 169.389 77.376 169.389Z" fill="#263238"/>
<path d="M77.4118 158.575C77.4118 158.575 77.4118 158.611 77.4118 158.683C77.4118 158.754 77.4118 158.862 77.4476 159.005C77.4476 159.292 77.4834 159.685 77.4834 160.187C77.5192 161.189 77.555 162.55 77.5192 164.09C77.5192 165.593 77.4834 166.99 77.4476 167.992C77.4118 168.494 77.4118 168.887 77.376 169.174C77.376 169.317 77.376 169.425 77.3402 169.496C77.3402 169.425 77.3402 169.317 77.3402 169.174C77.3402 168.887 77.3402 168.494 77.376 167.992C77.4118 166.99 77.4118 165.629 77.4476 164.09C77.4476 162.586 77.4476 161.189 77.4118 160.187C77.4118 159.685 77.4118 159.292 77.376 159.005C77.376 158.862 77.376 158.754 77.376 158.683C77.4118 158.611 77.4118 158.575 77.4118 158.575Z" fill="#263238"/>
<path d="M76.9105 166.345C76.6599 164.841 75.6573 163.481 74.2967 162.836C73.9386 162.657 73.4732 162.55 73.1867 162.836C72.9003 163.087 72.9719 163.552 73.1151 163.911C73.688 165.414 75.2634 166.489 76.9105 166.453" fill="#455A64"/>
<path d="M74.4399 163.982C74.4399 163.982 74.5115 164.018 74.6547 164.09C74.7263 164.125 74.798 164.161 74.9054 164.233C75.0128 164.304 75.1202 164.34 75.2276 164.448C75.335 164.519 75.4783 164.627 75.5857 164.734C75.7289 164.842 75.8363 164.949 75.9795 165.092C76.2302 165.343 76.4808 165.665 76.7315 166.059C76.9463 166.417 77.1253 166.811 77.2327 167.169C77.2685 167.348 77.3402 167.527 77.3402 167.67C77.376 167.849 77.376 167.992 77.4118 168.136C77.4476 168.279 77.4118 168.386 77.4118 168.529C77.4118 168.637 77.4118 168.744 77.4118 168.816C77.4118 168.959 77.376 169.067 77.376 169.067C77.3402 169.067 77.376 168.709 77.3402 168.171C77.3043 168.028 77.3043 167.885 77.2685 167.742C77.2327 167.599 77.1969 167.42 77.1253 167.24C77.0179 166.882 76.8389 166.524 76.624 166.166C76.4092 165.808 76.1586 165.486 75.9079 165.235C75.7647 165.092 75.6573 164.985 75.5141 164.877C75.4066 164.77 75.2634 164.662 75.156 164.591C74.7621 164.161 74.4399 164.018 74.4399 163.982Z" fill="#263238"/>
<path d="M82.4245 81.9514H68.0307V89.2916H82.4245V81.9514Z" fill="#455A64"/>
<path d="M79.9898 80.5192C79.9898 80.5192 79.954 80.3402 79.954 79.9821C79.954 79.8031 79.954 79.5883 79.954 79.3735C79.954 79.266 79.954 79.1228 79.954 78.9796C79.954 78.8364 79.9182 78.7289 79.8107 78.6215C79.7033 78.5141 79.5959 78.4783 79.4169 78.5141C79.2379 78.5141 79.0946 78.5141 78.9156 78.5141C78.5575 78.5141 78.1995 78.5141 77.8056 78.5141C77.0179 78.5141 76.1228 78.5141 75.2276 78.5141C74.2967 78.5141 73.4373 78.5141 72.6496 78.5141C72.2558 78.5141 71.8619 78.5141 71.5396 78.5141C71.3606 78.5141 71.1816 78.5141 71.0384 78.5141C70.8951 78.5499 70.7877 78.6215 70.7519 78.7648C70.6803 78.8722 70.7161 79.0154 70.7161 79.1586C70.7161 79.3018 70.7161 79.4093 70.7161 79.5525C70.7161 79.7673 70.7161 79.9821 70.7161 80.1612C70.7161 80.4834 70.6803 80.6983 70.6803 80.6983C70.6803 80.6983 70.6445 80.5192 70.6445 80.1612C70.6445 79.9821 70.6445 79.7673 70.6445 79.5525C70.6445 79.4451 70.6445 79.3018 70.6445 79.1586C70.6445 79.087 70.6445 79.0154 70.6445 78.9438C70.6445 78.8722 70.6445 78.7648 70.6803 78.6931C70.7519 78.5499 70.8951 78.4067 71.0742 78.3709C71.2532 78.3351 71.4322 78.3709 71.6113 78.3709C71.9693 78.3709 72.3274 78.3709 72.7212 78.3709C73.509 78.3709 74.4041 78.3709 75.2992 78.3709C76.2302 78.3709 77.0895 78.3709 77.8772 78.3709C78.2711 78.3709 78.665 78.3709 78.9872 78.3709C79.1662 78.3709 79.3453 78.3709 79.4885 78.3709C79.5601 78.3709 79.6675 78.3709 79.7391 78.4067C79.8107 78.4425 79.8824 78.4783 79.954 78.5499C80.0614 78.6573 80.133 78.8364 80.0972 78.9796C80.0972 79.1228 80.0972 79.2302 80.0972 79.3735C80.0972 79.5883 80.0972 79.8031 80.0972 79.9821C79.9898 80.3402 79.9898 80.5192 79.9898 80.5192Z" fill="#263238"/>
<path d="M69.3555 82.1305L70.2506 80.0896H80.2762L81.4578 82.2737H69.4987" fill="#455A64"/>
<path d="M82.4962 85.7111C82.4962 85.7469 79.2737 85.8185 75.2634 85.8185C71.289 85.8185 68.0307 85.7827 68.0307 85.7111C68.0307 85.6394 71.2532 85.6036 75.2634 85.6036C79.2737 85.6394 82.4962 85.6753 82.4962 85.7111Z" fill="#263238"/>
<path d="M82.4245 81.9873C82.4245 82.0231 79.202 82.0947 75.1918 82.0947C71.2174 82.0947 67.9591 82.0589 67.9591 81.9873C67.9591 81.9157 71.1816 81.8799 75.1918 81.8799C79.202 81.8799 82.4245 81.9157 82.4245 81.9873Z" fill="#263238"/>
<path d="M85.6829 34.0435L87.7954 31.4297L89.9437 34.9386L99.0384 37.6957L97.4629 41.2404C97.4629 41.2404 87.6522 37.3376 87.2583 37.087C86.9003 36.8721 85.6829 34.0435 85.6829 34.0435Z" fill="#FFBF9D"/>
<path d="M100.721 55.67C100.793 55.7058 102.547 56.9232 102.547 56.9232C102.547 56.9232 102.977 61.3631 102.547 62.0076C102.118 62.6521 100.9 62.5089 100.9 62.5089L100.721 55.67Z" fill="#455A64"/>
<path d="M95.1356 86.4271V89.8287L88.1535 89.7929C88.1893 89.1125 92.0563 87.7161 92.0563 87.7161L91.9847 86.4271H95.1356Z" fill="#455A64"/>
<g opacity="0.6">
<path d="M93.9898 87.4297C94.133 87.4655 94.2046 87.6445 94.1688 87.7519C94.133 87.8593 93.9898 88.0025 93.8466 87.9667C93.7033 87.9309 93.5959 87.7519 93.6317 87.6087C93.7033 87.4655 93.9182 87.358 93.9898 87.4297Z" fill="white"/>
</g>
<path d="M95.1356 89.8287V89.2916L88.4757 89.3632C88.4757 89.3632 88.1177 89.5781 88.1535 89.7929L95.1356 89.8287Z" fill="#263238"/>
<path d="M92.0205 87.7878C92.0205 87.8236 92.1995 87.8594 92.3427 87.9668C92.5217 88.0742 92.5934 88.2174 92.6292 88.2174C92.665 88.2174 92.6292 88.0026 92.4143 87.8594C92.2353 87.7162 92.0205 87.752 92.0205 87.7878Z" fill="#263238"/>
<path d="M91.1253 88.11C91.1253 88.1458 91.2685 88.2174 91.376 88.3606C91.4834 88.5039 91.5192 88.6829 91.555 88.6829C91.5908 88.6829 91.6266 88.4681 91.4834 88.289C91.3043 88.11 91.1253 88.0742 91.1253 88.11Z" fill="#263238"/>
<path d="M90.6957 88.9693C90.7315 88.9693 90.7673 88.7903 90.6957 88.6113C90.624 88.4322 90.445 88.3248 90.445 88.3606C90.4092 88.3964 90.5166 88.5038 90.5882 88.6471C90.6598 88.8261 90.6598 88.9693 90.6957 88.9693Z" fill="#263238"/>
<path d="M92.0921 86.821C92.0921 86.8568 92.2711 86.821 92.4501 86.821C92.6292 86.821 92.8082 86.8926 92.8082 86.8568C92.844 86.821 92.7008 86.7135 92.4501 86.6777C92.2353 86.7135 92.0921 86.821 92.0921 86.821Z" fill="#263238"/>
<path d="M92.0563 87.9668C92.0563 87.9668 92.0205 87.8952 92.0563 87.752C92.0563 87.6087 92.0921 87.4297 92.2353 87.2149C92.3069 87.1075 92.3785 87.0001 92.5217 86.9284C92.5934 86.8926 92.665 86.8568 92.7724 86.8926C92.844 86.9284 92.9156 87.0359 92.9156 87.1075C92.9156 87.4655 92.665 87.7878 92.3069 87.8952C91.9489 88.0026 91.555 87.8594 91.376 87.6088C91.3402 87.5371 91.2685 87.4655 91.2327 87.3939C91.2327 87.3581 91.2327 87.3223 91.2327 87.2507C91.2327 87.2149 91.2685 87.1791 91.3402 87.1433C91.4118 87.1075 91.4834 87.1433 91.555 87.1791C91.6266 87.2149 91.6624 87.2507 91.734 87.2865C91.9489 87.4297 92.0563 87.5729 92.1279 87.6804C92.1995 87.7878 92.2353 87.8594 92.2353 87.8594C92.2353 87.8594 92.0921 87.6088 91.6982 87.3581C91.5908 87.3223 91.4834 87.2149 91.376 87.2507C91.3402 87.2507 91.3043 87.3223 91.3402 87.3939C91.376 87.4655 91.4118 87.5013 91.4476 87.5729C91.6266 87.7878 91.9847 87.931 92.3069 87.8236C92.6292 87.7162 92.844 87.4297 92.844 87.1433C92.844 87.0717 92.8082 87.0359 92.7724 87.0001C92.7366 86.9643 92.665 87.0001 92.6292 87.0359C92.5217 87.1075 92.4501 87.2149 92.3785 87.2865C92.2353 87.4655 92.1995 87.6446 92.1637 87.7878C92.0563 87.8952 92.0563 87.9668 92.0563 87.9668Z" fill="#263238"/>
<path d="M96.4246 86.1764V87.4296L96.4962 89.6496L99.468 89.7212L99.5755 87.4296L99.468 86.0332L96.4246 86.1764Z" fill="#455A64"/>
<path d="M97.9642 89.4706C98 89.4706 97.9284 88.7903 97.8568 87.9667C97.7852 87.1432 97.7136 86.4629 97.7136 86.4629C97.6778 86.4629 97.7494 87.1432 97.821 87.9667C97.8926 88.7903 97.9642 89.4706 97.9642 89.4706Z" fill="#263238"/>
<path d="M96.4962 89.2915L99.468 89.3273V89.7212H96.4962V89.2915Z" fill="#263238"/>
<path d="M99.468 88.0025C99.468 88.0025 99.4322 87.9667 99.3964 87.8951C99.3248 87.8235 99.2532 87.7161 99.1458 87.6087C99.0384 87.5012 98.8593 87.3938 98.6803 87.2864C98.5013 87.179 98.2506 87.1432 98 87.1432C97.4987 87.1432 97.0691 87.3938 96.8542 87.6445C96.7468 87.7519 96.6752 87.8951 96.6394 87.9667C96.6036 88.0383 96.6036 88.1099 96.6036 88.1099C96.6036 88.1099 96.6752 87.9309 96.9258 87.7161C97.1407 87.5012 97.5345 87.2864 98.0358 87.2864C98.5013 87.2864 98.931 87.5371 99.1458 87.7161C99.3606 87.8593 99.468 88.0025 99.468 88.0025Z" fill="#263238"/>
<path d="M102.559 3.12423L54.9933 71.2325L56.4905 72.2782L104.056 4.16985L102.559 3.12423Z" fill="#E0E0E0"/>
<path d="M56.5013 72.2839C56.5013 72.2839 56.5729 72.1765 56.7519 71.9258C56.9309 71.6752 57.1458 71.3529 57.468 70.8875C58.1125 69.9923 59.0435 68.6317 60.2251 66.913C62.624 63.4757 66.0972 58.4987 70.3939 52.3402C78.9872 40.023 90.8389 23.0153 104.015 4.14578L104.051 4.289C103.586 3.96675 103.049 3.6087 102.547 3.25064L102.691 3.21483C79.202 36.7289 59.6164 64.6931 54.9974 71.2455V71.2097C55.4987 71.5678 55.8568 71.8184 56.1074 71.9974C56.3581 72.2123 56.5013 72.2839 56.5013 72.2839C56.5013 72.2839 56.3581 72.2123 56.1074 72.0333C55.8568 71.8542 55.4629 71.6036 54.9616 71.2455C59.509 64.6215 79.0588 36.6215 102.476 3.07161L102.512 3L102.583 3.03581C103.084 3.39386 103.621 3.75192 104.087 4.07417L104.159 4.10997L104.123 4.18159C90.9105 23.0512 79.023 40.0946 70.3939 52.4118C66.0972 58.5345 62.624 63.5115 60.2251 66.9489C59.0077 68.6675 58.0767 69.9923 57.468 70.8875C57.1458 71.3171 56.8951 71.6752 56.7519 71.89C56.5729 72.1765 56.5013 72.2839 56.5013 72.2839Z" fill="#263238"/>
<path d="M88.2609 57.0307C88.2609 57.1739 88.977 70.9591 88.7263 72.4988C88.4757 74.0384 91.2327 87.2865 91.2327 87.2865L95.5652 86.7136L93.9898 73.0716L95.2072 63.1177C95.2072 63.1177 96.8542 60.6829 97.3197 59.1791C97.7852 57.711 97.3197 53.486 97.3197 53.486L88.2609 55.0614V57.0307Z" fill="#263238"/>
<path d="M100.435 52.734C100.399 52.734 100.864 56.4936 101.043 58.821C101.187 60.6112 100.829 72.9642 100.829 72.9642L100.292 86.2481L95.7443 85.9974V74.0742L95.3146 62.5089L95.1356 59.6803L95.4578 53.4501L100.435 52.734Z" fill="#263238"/>
<path d="M94.9565 27.6343L94.7775 34.9028C94.7417 36.1202 94.4552 37.9463 92.4859 37.8031C90.8031 37.5524 90.4092 35.9412 90.445 34.7954C90.445 34.2583 90.4808 33.7928 90.4808 33.7212C90.4808 33.7212 88.6547 33.5064 88.5473 31.6803C88.5115 30.7852 88.5831 28.9591 88.6547 27.312C88.7263 25.5217 90.1586 24.1253 91.9489 24.0537H92.1279C94.0256 24.0537 95.0639 25.7366 94.9565 27.6343Z" fill="#FFBF9D"/>
<path d="M90.445 33.7212C90.445 33.7212 91.5908 33.757 92.8082 32.9335C92.8082 32.9335 92.2711 34.3299 90.445 34.2225V33.7212Z" fill="#FF9A6C"/>
<path d="M90.8747 30.2481C90.8747 30.2481 90.6957 30.2123 90.4092 30.1764C90.3376 30.1764 90.266 30.1764 90.266 30.1048C90.2302 30.069 90.266 29.9616 90.3018 29.89C90.3734 29.711 90.445 29.5319 90.4808 29.3171C90.7673 28.5294 90.9463 27.8849 90.9105 27.8849C90.8747 27.8849 90.624 28.4936 90.3734 29.2813C90.3018 29.4603 90.2302 29.6752 90.1944 29.8542C90.1586 29.9258 90.1228 30.0332 90.1586 30.1406C90.1944 30.1764 90.2302 30.2481 90.266 30.2481C90.3018 30.2481 90.3376 30.2481 90.3734 30.2481C90.6957 30.2839 90.8747 30.2839 90.8747 30.2481Z" fill="#263238"/>
<path d="M91.913 26.9898C91.9488 27.0614 92.1995 27.0256 92.4859 27.0614C92.7724 27.0972 93.023 27.1688 93.0588 27.0972C93.0588 27.0614 93.023 26.9898 92.9514 26.954C92.844 26.8824 92.7008 26.8466 92.5217 26.8108C92.3427 26.8108 92.1995 26.8466 92.0921 26.8824C91.9488 26.9182 91.8772 26.9898 91.913 26.9898Z" fill="#263238"/>
<path d="M88.977 27.4553C89.0128 27.5269 89.2634 27.4553 89.5499 27.4553C89.8363 27.4553 90.087 27.4911 90.1228 27.4553C90.1228 27.4195 90.087 27.3837 89.9795 27.3121C89.8721 27.2763 89.7289 27.2405 89.5499 27.2405C89.3708 27.2405 89.2276 27.2763 89.1202 27.3121C89.0128 27.3837 88.9412 27.4195 88.977 27.4553Z" fill="#263238"/>
<path d="M94.8491 28.9949C94.8849 28.9949 96.1023 28.5653 96.1023 29.8185C96.1023 31.0717 94.8491 30.821 94.8491 30.7852C94.8133 30.7494 94.8491 28.9949 94.8491 28.9949Z" fill="#FFBF9D"/>
<path d="M95.2072 30.3197C95.2072 30.3197 95.243 30.3197 95.2788 30.3555C95.3146 30.3555 95.3862 30.3913 95.4578 30.3555C95.601 30.3197 95.7084 30.1049 95.7084 29.8542C95.7084 29.7468 95.6726 29.6394 95.6368 29.532C95.601 29.4246 95.5294 29.3887 95.4578 29.3529C95.3862 29.3529 95.3504 29.3888 95.3146 29.4246C95.3146 29.4604 95.3146 29.4962 95.3146 29.4962C95.3146 29.4962 95.2788 29.4604 95.3146 29.4246C95.3146 29.3888 95.3504 29.3529 95.3504 29.3529C95.3862 29.3171 95.422 29.3171 95.4578 29.3171C95.5652 29.3171 95.6368 29.4246 95.6726 29.4962C95.7084 29.6036 95.7442 29.711 95.7442 29.8542C95.7442 30.1049 95.601 30.3555 95.422 30.3913C95.3504 30.4271 95.243 30.3913 95.2072 30.3555C95.2072 30.3555 95.2072 30.3197 95.2072 30.3197Z" fill="#FF9A6C"/>
<path d="M87.1509 26.0946C87.0435 26.1304 86.9361 26.2378 86.9361 26.3453C86.9003 26.5243 87.0435 26.7033 87.1867 26.7391C87.3657 26.8107 87.5448 26.7391 87.688 26.6317C87.6164 26.6675 87.5806 26.7391 87.5089 26.7749C87.2941 27.0614 87.688 27.4552 87.9744 27.2404C88.0102 27.3478 88.0818 27.4552 88.1176 27.5268V27.5627C88.1534 27.6343 88.1535 27.6701 88.1893 27.7417L88.5831 28.5652C88.6189 28.0639 88.6189 27.312 88.6547 26.8107C89.4425 26.8107 90.1944 26.5243 90.7315 25.9514C91.0179 25.665 91.2685 25.2711 91.6266 25.0921C92.1279 24.8772 92.7008 25.0563 93.202 25.2711L93.1662 25.2353C93.4169 25.3785 93.6675 25.5575 93.8465 25.7724C93.7033 26.7749 93.7391 27.8133 94.0256 28.8158C94.0614 28.9591 94.1688 29.2813 94.312 29.3171C94.5985 29.4245 94.6701 29.1381 94.8491 28.9949C94.9923 28.8875 95.1714 28.8875 95.3504 28.8875C95.4936 28.5652 95.8517 27.8491 95.9591 27.3836L95.9233 27.1688L95.8875 26.6675C95.6368 26.202 95.9591 25.9872 95.8517 25.4859C95.7442 24.9846 95.6368 24.6624 95.1714 24.4834C94.7417 24.3043 94.2404 24.0895 93.8824 24.376C93.8107 23.7315 93.2737 23.1944 92.6292 22.9795C91.9847 22.8005 91.1611 22.9795 90.5524 23.1944C90.087 23.3734 89.7647 23.5882 89.1918 24.1611C88.9412 24.376 88.3325 25.1995 88.1176 25.4859L87.1509 26.0946Z" fill="#263238"/>
<g opacity="0.3">
<path d="M95.9233 27.8133C95.9233 27.8133 94.7417 26.7392 92.4501 26.4527C90.1586 26.1663 87.7596 26.2021 87.2583 25.9872L87.8312 25.7008L94.8849 26.5601L96.1023 27.2404L95.9233 27.8133Z" fill="black"/>
</g>
<path d="M93.4527 22.4067C93.5243 22.4425 95.601 23.0512 95.9949 24.6266C96.3887 26.2379 96.2097 26.7033 96.2097 26.7033C96.2097 26.7033 96.3171 26.775 96.4246 26.9182C96.4962 27.0256 96.3529 27.4911 96.0665 27.4195C94.0972 26.3811 91.6624 26.0947 88.977 25.9872L86.9003 25.8082C86.3274 25.7008 87.3657 25.2711 87.6164 25.1279C87.7954 25.0205 88.6905 24.6982 88.6905 24.6982C88.8696 24.376 89.2634 24.0179 89.6215 23.6599C89.6215 23.6599 89.4425 23.4092 89.6931 23.266C89.9079 23.1586 91.7698 22.0486 93.4527 22.4067Z" fill="#455A64"/>
<path d="M88.6189 24.6982C88.6189 24.6982 88.6547 24.6982 88.6905 24.6982C88.7621 24.6982 88.8338 24.6982 88.9054 24.6982C89.1202 24.6982 89.4066 24.734 89.7647 24.7699C90.4808 24.8415 91.4476 25.0205 92.5217 25.3069C93.5601 25.5934 94.4911 25.9872 95.1714 26.2379C95.4936 26.3811 95.7801 26.4885 95.9591 26.5601C95.7801 26.4885 95.4936 26.3453 95.1714 26.2021C94.5269 25.9156 93.5959 25.5576 92.5217 25.2711C91.4834 24.9489 90.4808 24.8057 89.7647 24.734C89.0844 24.6982 88.6189 24.6982 88.6189 24.6982Z" fill="#263238"/>
<g opacity="0.3">
<path d="M95.2788 23.445C95.2788 23.445 93.0588 22.9079 92.0205 23.3376C92.0563 23.3376 92.0921 23.3018 92.1279 23.3018C91.8056 23.4092 91.5908 23.6598 91.2685 23.7673C91.0895 23.8389 90.9821 23.8389 90.8389 23.7315C90.8389 23.7315 91.734 23.1944 92.1637 23.0512C93.0946 22.6931 94.4194 22.7289 95.2788 23.445Z" fill="black"/>
</g>
<path d="M95.3146 23.4808C95.3146 23.4808 95.243 23.4092 95.1356 23.3376C94.9923 23.2659 94.8133 23.1227 94.5627 23.0511C94.312 22.9437 93.9898 22.8721 93.5959 22.8363C93.2379 22.8005 92.8082 22.8363 92.4143 22.9795C92.1995 23.0511 92.0205 23.1585 91.8414 23.2301C91.6624 23.3376 91.4834 23.4092 91.3402 23.4808C91.1969 23.5882 91.0537 23.6598 90.8747 23.7314C90.7315 23.803 90.5882 23.803 90.445 23.803C89.9079 23.7672 89.5499 23.624 89.5857 23.5882C89.5857 23.5882 89.5857 23.624 89.6215 23.624C89.6573 23.6598 89.7289 23.6598 89.8005 23.6956C89.9437 23.7314 90.1586 23.803 90.445 23.803C90.5882 23.803 90.7315 23.803 90.9105 23.7672C91.0537 23.6956 91.1969 23.624 91.376 23.5166C91.5192 23.4092 91.6982 23.3376 91.8772 23.2659C92.0563 23.1943 92.2353 23.0869 92.4501 23.0153C92.844 22.8721 93.2379 22.8363 93.6317 22.8721C93.9898 22.9079 94.312 22.9795 94.5627 23.0869C94.8133 23.1943 95.0281 23.3018 95.1356 23.3734C95.2072 23.4092 95.243 23.445 95.2788 23.4808C95.3146 23.445 95.3146 23.4808 95.3146 23.4808Z" fill="#263238"/>
<g opacity="0.3">
<path d="M96.1381 25.3069V25.2353C95.7801 25.1278 95.4936 25.0562 95.0639 24.9846C94.6343 24.913 94.2046 24.8056 93.8107 24.6624C93.4885 24.555 93.1304 24.4475 92.9156 24.1969C92.8798 24.3759 92.9156 24.5192 93.023 24.6266C93.1304 24.7698 93.5243 24.913 93.7033 24.9846C94.6343 25.3069 95.243 25.5217 96.2097 25.6649C96.2097 25.5575 96.1381 25.3069 96.1381 25.3069Z" fill="black"/>
</g>
<path d="M95.9233 24.4118C96.1739 24.555 96.3529 24.6266 96.3171 24.913C96.3171 25.0921 96.2813 25.2353 96.1023 25.2353C96.0307 25.2353 95.9949 25.2353 95.9233 25.1995C94.9923 24.9488 94.0614 24.7698 93.1304 24.5192C93.023 24.4834 92.9514 24.4476 92.8798 24.376C92.8082 24.2685 92.8798 23.9821 93.023 23.9105C93.1662 23.8389 93.3453 23.8747 93.4885 23.8747C94.3836 23.9105 95.0997 24.1253 95.9233 24.4118Z" fill="#455A64"/>
<path d="M92.9872 24.4476C92.9872 24.4476 92.9514 24.4118 92.9156 24.3043C92.8798 24.2327 92.9156 24.0537 93.0588 23.9463C93.202 23.8389 93.4169 23.8389 93.6317 23.8747C93.8465 23.9105 94.0972 23.9463 94.3478 23.9821C94.8491 24.0537 95.3146 24.1969 95.6368 24.3043C95.78 24.376 95.9233 24.4118 95.9949 24.4476C96.0307 24.4476 96.0665 24.4834 96.1023 24.4834C96.1381 24.4834 96.1381 24.4834 96.1381 24.4834C96.1381 24.4834 96.1381 24.4834 96.1023 24.4476C96.0665 24.4476 96.0307 24.4118 95.9949 24.4118C95.9233 24.376 95.78 24.3043 95.6368 24.2685C95.3146 24.1611 94.8491 24.0179 94.3478 23.9463C94.0972 23.9105 93.8465 23.8747 93.6317 23.8389C93.4169 23.8031 93.202 23.8389 93.0588 23.9463C92.9156 24.0537 92.8798 24.2327 92.9156 24.3043C92.9156 24.376 92.9156 24.4118 92.9872 24.4476Z" fill="#263238"/>
<path d="M89.4067 23.9822L90.9821 24.1254L90.9463 24.5551L89.0486 24.376L89.4067 23.9822Z" fill="white"/>
<path d="M89.0128 28.2072C89.0486 28.243 89.2276 28.0998 89.5141 28.064C89.8005 28.064 90.0153 28.2072 90.0512 28.1714C90.0512 28.1714 90.0153 28.0998 89.9437 28.0282C89.8363 27.9566 89.6931 27.9208 89.5141 27.9208C89.335 27.9208 89.1918 27.9924 89.1202 28.064C89.0128 28.1356 88.977 28.2072 89.0128 28.2072Z" fill="#263238"/>
<path d="M91.913 29.0665C91.913 29.1739 92.0205 29.2814 92.1279 29.2814C92.2711 29.2814 92.3785 29.1739 92.3785 29.0665C92.3785 28.9591 92.2711 28.8517 92.1637 28.8517C92.0205 28.8517 91.913 28.9591 91.913 29.0665Z" fill="#263238"/>
<path d="M89.4425 29.0665C89.4425 29.1739 89.5499 29.2814 89.6573 29.2814C89.8005 29.2814 89.9079 29.1739 89.9079 29.0665C89.9079 28.9591 89.8005 28.8517 89.6931 28.8517C89.5499 28.8517 89.4425 28.9591 89.4425 29.0665Z" fill="#263238"/>
<path d="M91.734 28.1355C91.7698 28.1713 91.9489 28.0281 92.2353 28.0281C92.5217 28.0281 92.7366 28.1713 92.7724 28.1355C92.7724 28.1355 92.7366 28.0639 92.665 27.9923C92.5576 27.9207 92.4143 27.8849 92.2353 27.8849C92.0563 27.8849 91.9131 27.9565 91.8414 28.0281C91.734 28.0281 91.6982 28.0997 91.734 28.1355Z" fill="#263238"/>
<path d="M90.8389 30.2481C90.8389 30.2481 90.6598 30.2123 90.3734 30.1765C90.3018 30.1765 90.2302 30.1407 90.2302 30.1049C90.1944 30.0691 90.2302 29.9617 90.266 29.89C90.3376 29.711 90.4092 29.532 90.4808 29.3172C90.7673 28.5294 90.9463 27.8849 90.9463 27.8491C90.9105 27.8491 90.6598 28.4578 90.3734 29.2813C90.3018 29.4604 90.2302 29.6752 90.1944 29.8542C90.1586 29.9258 90.1228 30.0333 90.1586 30.1407C90.1944 30.2123 90.2302 30.2481 90.266 30.2481C90.3018 30.2481 90.3376 30.2481 90.3734 30.2481C90.6598 30.2839 90.8389 30.2839 90.8389 30.2481Z" fill="#263238"/>
<path d="M91.6982 30.4271C91.6624 30.4271 91.6624 30.7494 91.4118 30.9642C91.1611 31.179 90.8389 31.179 90.8031 31.2148C90.8031 31.2507 90.8747 31.2865 91.0179 31.2865C91.1611 31.2865 91.3402 31.2507 91.5192 31.1074C91.6624 30.9642 91.734 30.7852 91.734 30.6778C91.734 30.4987 91.6982 30.4271 91.6982 30.4271Z" fill="#263238"/>
<path d="M82.6394 34.4016L81.3146 38.6267L85.11 36.8364L85.2174 41.5627C85.2174 41.5627 81.8517 43.2456 80.3836 43.1024C78.9514 42.9591 77.734 41.7059 78.0205 39.8799C78.3069 38.0538 80.3478 34.0793 80.3478 34.0793L82.6394 34.4016Z" fill="#FFBF9D"/>
<path d="M83.3913 30.5346C83.3913 30.5346 82.4246 29.8184 82.0665 30.3913L81.8159 30.8568C81.8159 30.8568 81.2788 30.821 81.0998 31.4297C81.0998 31.4297 80.5627 31.5013 80.4552 32.0384C80.4552 32.0384 80.0256 32.4681 79.9898 32.9335C79.954 33.399 80.1688 34.0077 80.1688 34.0077L79.6675 35.4041C79.6675 35.4041 80.4553 33.9003 81.9233 34.7238C82.6394 35.1177 81.9233 36.5857 81.9233 36.5857C81.9233 36.5857 82.0307 36.6215 82.3888 36.4425C82.7468 36.2276 82.9616 35.977 83.0333 35.1535C83.1049 34.3658 83.2839 34.0077 83.2839 34.0077L84.6445 33.0051C84.6445 33.0051 85.0384 32.3964 85.0384 32.0384C85.0384 31.8952 84.9668 31.5013 84.9668 31.5013L83.8926 32.1458C83.8926 32.1458 83.0691 31.6803 83.0691 31.2507C83.0691 30.8926 83.3913 30.5346 83.3913 30.5346Z" fill="#455A64"/>
<path d="M87.6164 35.9054C88.1535 35.5115 89.8005 34.9028 89.8005 34.9028L94.8133 34.2583L96.9974 34.9386C97.9642 35.2609 98.7519 35.977 99.11 36.9079C99.3248 37.4092 99.5396 37.9821 99.7187 38.6266C100.077 39.8082 100.22 41.0614 100.184 42.2788L99.9335 48.3299L100.936 53.5933L87.9744 55.8133L87.1867 41.5626L87.6164 35.9054Z" fill="#455A64"/>
<path d="M87.3299 45.1432L100.077 43.7109L100.005 45.9667L87.4015 47.1841L87.3299 45.1432Z" fill="#E0E0E0"/>
<path d="M87.5089 48.6522L99.9693 47.4348L99.9335 48.4374L100.148 49.3325L87.6164 50.7647L87.5089 48.6522Z" fill="#E0E0E0"/>
<path opacity="0.3" d="M88.977 55.4194C88.977 55.4194 92.2353 52.1611 93.6675 49.4757C95.0997 46.7903 98.2148 39.2711 96.9974 34.9744L96.1739 34.7238C96.1739 34.7238 96.7468 39.0562 95.4936 42.3504C94.2762 45.6445 88.977 53.5217 88.977 53.5217L87.9744 56.3145L88.977 55.4194Z" fill="black"/>
<path d="M95.2072 34.4015C96.0665 37.3017 95.4936 40.4526 94.2404 43.6751C92.7724 47.1841 90.445 50.514 87.7596 53.7365L87.9744 55.8133C87.9744 55.8133 89.4425 54.2736 92.1995 50.2992C93.6675 48.1867 94.7417 46.6828 95.4578 44.8567C95.8158 43.9258 96.2813 42.6368 96.3887 42.1355C97.4987 37.3734 96.9974 34.9386 96.9974 34.9386L95.2072 34.4015Z" fill="#455A64"/>
<path d="M82.8184 37.8389C82.7468 37.1944 83.3197 42.9591 83.3555 43.1023L87.1867 41.7059C88.4041 41.2404 89.4066 40.3095 89.8005 39.0563C89.9079 38.6624 89.9795 38.2686 89.9437 37.8747C89.7289 36.2992 89.0844 35.5473 87.7954 35.8338C86.5422 36.0486 82.8184 37.8389 82.8184 37.8389Z" fill="#E0E0E0"/>
<path d="M82.8184 37.8389C82.8184 37.8389 82.89 37.8031 83.0332 37.7315C83.1765 37.6599 83.3913 37.5524 83.6419 37.445C84.179 37.1944 84.9309 36.8363 85.9335 36.4067C86.4348 36.1918 86.9361 35.977 87.5448 35.798C87.8312 35.7264 88.1893 35.6547 88.5115 35.6906C88.8696 35.7264 89.1918 35.9412 89.4067 36.2276C89.6215 36.5141 89.7647 36.8721 89.8721 37.2302C89.9437 37.5883 90.0512 37.9821 89.9795 38.376C89.9079 39.1637 89.5499 39.9156 89.0128 40.5243C88.6189 40.954 88.1535 41.312 87.6522 41.5627C87.1509 41.8133 86.6138 41.9565 86.1125 42.1356C85.11 42.4936 84.179 42.8159 83.3555 43.1381L83.2481 43.1739V43.0665C83.1049 41.4553 82.9974 40.1305 82.89 39.1995C82.8542 38.734 82.8184 38.376 82.8184 38.1253C82.8184 38.0179 82.8184 37.9105 82.8184 37.8389V37.8031C82.8184 37.7673 82.8184 37.8031 82.8184 37.8389C82.8184 37.8031 82.7826 37.8031 82.8184 37.8031C82.8184 37.8031 82.8184 37.8031 82.8184 37.8389C82.8542 37.9105 82.8542 38.0179 82.8542 38.1253C82.89 38.4118 82.9258 38.7698 82.9974 39.1995C83.1049 40.1663 83.2481 41.4911 83.4271 43.0665L83.3197 42.9949C84.179 42.6726 85.11 42.3504 86.0767 41.9565C86.578 41.7775 87.0793 41.5985 87.5806 41.3836C88.0818 41.133 88.5115 40.8108 88.9054 40.3811C89.4067 39.7724 89.7647 39.0563 89.8363 38.3402C89.8721 37.9821 89.8005 37.6241 89.7289 37.266C89.6573 36.9079 89.5141 36.5857 89.2992 36.3351C89.0844 36.0844 88.798 35.9054 88.5115 35.8696C88.1893 35.8338 87.9028 35.8696 87.5806 35.9412C87.0077 36.1202 86.4706 36.3351 85.9693 36.5141C85.0026 36.9079 84.2148 37.266 83.6778 37.4808C83.4271 37.5883 83.2123 37.6957 83.0691 37.7673C82.89 37.8031 82.8184 37.8389 82.8184 37.8389Z" fill="#263238"/>
<path d="M88.2251 35.4758C88.2251 35.4758 89.9437 35.1177 92.0921 38.6983C94.2046 42.1714 100.685 51.6957 100.685 51.6957C100.471 50.729 100.292 49.8338 100.113 49.1177C100.113 49.1177 93.3453 38.3402 92.7008 37.087C91.6266 35.0819 89.8005 34.8671 89.8005 34.8671L88.2251 35.4758Z" fill="#455A64"/>
<path d="M87.9744 54.5601C87.509 54.4885 87.0793 54.8465 86.9003 55.2762C86.7212 55.7059 86.757 56.2071 86.757 56.6726C86.7928 57.5319 86.8287 58.3555 86.9003 59.2148C86.9003 59.5013 86.9361 59.7519 87.0435 60.0383C87.1509 60.289 87.3657 60.5396 87.6164 60.5754C88.0102 60.647 88.4041 60.3606 88.5473 60.0025C88.6905 59.6445 88.6547 59.2148 88.6189 58.8209C88.4757 57.4961 88.3683 56.1355 88.2251 54.8107" fill="#455A64"/>
<path d="M81.601 38.4117C81.601 38.4833 81.1356 38.5908 80.6701 39.0204C80.2404 39.4143 80.0614 39.9156 80.0256 39.9156C79.9898 39.9156 80.0614 39.3427 80.5269 38.913C81.0281 38.4117 81.601 38.3759 81.601 38.4117Z" fill="#FF9A6C"/>
<path d="M82.532 32.6828C82.532 32.7544 81.9233 32.7186 81.2788 33.0409C80.6343 33.3631 80.2762 33.8644 80.2404 33.8286C80.2046 33.8286 80.2762 33.6854 80.4194 33.4705C80.5627 33.2915 80.8491 33.0409 81.1714 32.8618C81.5294 32.6828 81.8517 32.6112 82.1023 32.6112C82.3887 32.6112 82.532 32.6828 82.532 32.6828Z" fill="#263238"/>
<path d="M97.5345 56.2788C97.5703 56.2788 97.6419 56.7085 97.6777 57.3888C97.7136 58.0691 97.7494 59.0716 97.4271 60.11C97.2481 60.6113 96.9974 61.0768 96.6752 61.4348C96.3887 61.7929 96.1023 62.0793 95.8517 62.33C95.3862 62.8312 95.1355 63.1893 95.0997 63.1535C95.0639 63.1535 95.2788 62.7596 95.7442 62.2225C96.1739 61.6855 96.89 61.041 97.2481 60.0384C97.5703 59.0358 97.5703 58.0691 97.5703 57.3888C97.5345 56.7085 97.4987 56.2788 97.5345 56.2788Z" fill="#455A64"/>
<path d="M90.9463 58.0691C90.9463 58.0691 90.9821 58.2839 91.0537 58.7136C91.1253 59.1075 91.2327 59.7162 91.376 60.4323C91.4476 60.7903 91.555 61.1842 91.734 61.5781C91.9131 61.9361 92.4143 62.0793 92.8798 62.1152C93.3453 62.151 93.8466 62.0077 94.312 61.7929C94.4194 61.7213 94.5269 61.6497 94.6343 61.5781C94.7059 61.5423 94.7059 61.5065 94.7775 61.4348C94.8133 61.399 94.8491 61.3274 94.8849 61.2916C95.0281 61.0768 95.0998 60.7903 95.1714 60.5397C95.422 59.2865 95.3504 58.0333 95.3146 56.9591L95.422 57.0307C94.133 57.353 93.023 57.6394 92.2353 57.8185C91.8772 57.8901 91.555 57.9617 91.3044 58.0333C91.0537 58.0691 90.9463 58.0691 90.9463 58.0691C90.9463 58.0691 91.0537 58.0333 91.2327 57.9617C91.4834 57.8901 91.7698 57.8185 92.1279 57.7111C92.9156 57.4962 94.0256 57.174 95.3504 56.8517L95.4578 56.8159V56.9233C95.4936 57.4604 95.5294 58.0333 95.5294 58.642C95.5294 59.2507 95.4936 59.8952 95.3504 60.5397C95.2788 60.8261 95.2072 61.1126 95.0639 61.3632C95.0281 61.4348 94.9923 61.5065 94.9207 61.5423C94.8491 61.5781 94.8133 61.6497 94.7417 61.6855C94.6343 61.7571 94.4911 61.8287 94.3836 61.9003C93.8824 62.151 93.3453 62.2584 92.844 62.2226C92.5934 62.2226 92.3427 62.151 92.1279 62.0793C91.9131 61.9719 91.6982 61.8287 91.5908 61.6139C91.4118 61.1842 91.3044 60.7903 91.2327 60.4323C91.0895 59.7162 91.0179 59.1075 90.9463 58.6778C90.9105 58.463 90.9105 58.3198 90.9105 58.2123C90.9463 58.1407 90.9463 58.0691 90.9463 58.0691Z" fill="#455A64"/>
<path d="M100.865 54.9863L88.1059 56.22L88.2644 57.8595L101.024 56.6257L100.865 54.9863Z" fill="#455A64"/>
<path d="M84.8593 28.243C84.7519 28.064 84.4297 28.0282 84.2506 28.1714C84.0716 28.3146 84 28.5652 84.0716 28.7801C84.1074 28.9949 84.2506 29.2097 84.3581 29.3888C84.4297 29.4604 84.5013 29.5678 84.5729 29.6036C84.6445 29.6752 84.7519 29.6752 84.8593 29.6752C84.9668 29.6394 85.0384 29.5678 85.0742 29.4604C85.11 29.353 85.11 29.2456 85.11 29.1739C85.11 28.8159 85.0026 28.4936 84.8235 28.1714" fill="#455A64"/>
<path d="M85.3606 27.491C85.2532 27.312 84.9309 27.2762 84.7519 27.4194C84.5729 27.5627 84.5013 27.8133 84.5729 28.0281C84.6087 28.243 84.7519 28.4578 84.8593 28.6368C84.9309 28.7084 85.0025 28.8158 85.0742 28.8517C85.1458 28.9233 85.2532 28.9233 85.3606 28.9233C85.468 28.8875 85.5396 28.8159 85.5754 28.7084C85.6112 28.601 85.6112 28.4936 85.6112 28.422C85.6112 28.0639 85.5038 27.7417 85.3248 27.4194" fill="#455A64"/>
<path d="M85.8261 26.6676C85.7187 26.4885 85.3964 26.4527 85.2174 26.5959C85.0384 26.7392 84.9668 26.9898 85.0384 27.2046C85.0742 27.4195 85.2174 27.6343 85.3248 27.8133C85.3964 27.8849 85.468 27.9924 85.5396 28.0282C85.6113 28.0998 85.7187 28.0998 85.8261 28.0998C85.9335 28.064 86.0051 27.9924 86.0409 27.8849C86.0767 27.7775 86.0767 27.6701 86.0767 27.5985C86.0767 27.2404 85.9693 26.9898 85.8261 26.6676Z" fill="#455A64"/>
<path d="M85.6471 34.6164C85.6471 34.6164 84.8951 32.1816 84.8593 31.6803C84.8235 31.3939 87.688 27.6343 87.688 27.6343C87.688 27.6343 87.6164 28.9949 87.5806 29.8542L87.509 30.6061L88.4757 32.1816L85.6471 34.6164Z" fill="#455A64"/>
<path d="M86.9003 30.1764C86.9361 30.2122 86.4706 30.4629 86.0409 30.9283C85.6113 31.358 85.3606 31.8235 85.3248 31.8235C85.289 31.8235 85.4322 31.2864 85.8977 30.8209C86.3632 30.3196 86.8645 30.1406 86.9003 30.1764Z" fill="#263238"/>
<path d="M195.964 89.3632H28V91.7979H195.964V89.3632Z" fill="#455A64"/>
<path d="M110.926 93.8031L112.179 95.2353L50.665 150.591L49.4118 149.123L110.926 93.8031Z" fill="#E0E0E0"/>
<path d="M110.926 93.8031C110.926 93.8031 110.818 93.9105 110.604 94.0895C110.389 94.2686 110.066 94.555 109.673 94.9489C108.849 95.7008 107.668 96.775 106.092 98.1714C102.977 100.964 98.5013 105.01 92.9514 110.023C81.8517 120.013 66.491 133.87 49.4476 149.194V149.051C49.8414 149.517 50.2711 150.018 50.665 150.519H50.5217C80.7775 123.307 106.056 100.606 112.107 95.2353V95.2711C111.714 94.7699 111.391 94.4118 111.176 94.1612C111.033 93.9105 110.926 93.8031 110.926 93.8031C110.926 93.8031 111.033 93.9105 111.248 94.1612C111.463 94.4118 111.785 94.7699 112.179 95.2353C106.199 100.678 80.9565 123.414 50.7008 150.627L50.6292 150.698L50.5575 150.627C50.1279 150.125 49.6982 149.624 49.3401 149.159L49.2685 149.087L49.3401 149.015C66.4194 133.655 81.8158 119.834 92.9514 109.844C98.5013 104.867 103.013 100.821 106.128 98.0282C107.668 96.6317 108.885 95.5576 109.708 94.8415C110.102 94.4834 110.425 94.197 110.639 94.0179C110.818 93.8747 110.926 93.8031 110.926 93.8031Z" fill="#263238"/>
<path d="M112.537 148.8L111.248 150.197L49.0537 95.5933L50.3427 94.1969L112.537 148.8Z" fill="#E0E0E0"/>
<path d="M112.537 148.8C112.537 148.8 112.43 148.693 112.215 148.514C112 148.335 111.678 148.049 111.284 147.691C110.46 146.974 109.243 145.9 107.668 144.54C104.517 141.783 99.9693 137.808 94.3478 132.867C83.1049 123.02 67.5652 109.378 50.3069 94.2685H50.4501C50.0563 94.6982 49.5908 95.1994 49.1611 95.6649V95.5217C79.7391 122.376 105.269 144.79 111.32 150.161H111.284C111.714 149.696 112.036 149.373 112.251 149.123C112.43 148.908 112.537 148.8 112.537 148.8C112.537 148.8 112.43 148.908 112.215 149.159C112 149.409 111.678 149.767 111.248 150.233C105.161 144.933 79.5959 122.555 49.0179 95.7007L48.9463 95.6291L49.0179 95.5575C49.4476 95.092 49.913 94.5908 50.3069 94.1611L50.3785 94.0895L50.4501 94.1611C67.7084 109.307 83.2481 122.985 94.491 132.867C100.113 137.808 104.624 141.783 107.775 144.54C109.35 145.9 110.532 146.974 111.355 147.726C111.749 148.084 112.072 148.371 112.286 148.55C112.43 148.693 112.537 148.8 112.537 148.8Z" fill="#263238"/>
<path d="M174.338 93.8031L175.555 95.2353L114.041 150.591L112.788 149.123L174.338 93.8031Z" fill="#E0E0E0"/>
<path d="M174.338 93.8031C174.338 93.8031 174.23 93.9105 174.015 94.0895C173.801 94.2686 173.478 94.555 173.084 94.9489C172.261 95.7008 171.079 96.775 169.504 98.1714C166.389 100.964 161.913 105.01 156.363 110.023C145.263 120.013 129.903 133.87 112.859 149.194V149.051C113.253 149.517 113.683 150.018 114.077 150.519H113.934C144.189 123.307 169.468 100.606 175.519 95.2353V95.2711C175.125 94.7699 174.803 94.4118 174.588 94.1612C174.409 93.9105 174.338 93.8031 174.338 93.8031C174.338 93.8031 174.445 93.9105 174.66 94.1612C174.875 94.4118 175.197 94.7699 175.591 95.2353C169.611 100.678 144.368 123.414 114.113 150.627L114.041 150.698L113.969 150.627C113.54 150.125 113.11 149.624 112.752 149.159L112.68 149.087L112.752 149.015C129.831 133.655 145.228 119.834 156.363 109.844C161.913 104.867 166.425 100.821 169.54 98.0282C171.079 96.6317 172.297 95.5576 173.12 94.8415C173.514 94.4834 173.836 94.197 174.051 94.0179C174.23 93.8747 174.338 93.8031 174.338 93.8031Z" fill="#263238"/>
<path d="M175.913 148.8L174.624 150.197L112.43 95.5933L113.719 94.1969L175.913 148.8Z" fill="#E0E0E0"/>
<path d="M175.913 148.8C175.913 148.8 175.806 148.693 175.591 148.514C175.376 148.335 175.054 148.049 174.66 147.691C173.836 146.974 172.619 145.9 171.043 144.54C167.893 141.783 163.345 137.808 157.724 132.867C146.481 123.02 130.941 109.378 113.683 94.2685H113.826C113.432 94.6982 112.967 95.1994 112.537 95.6649V95.5217C143.115 122.376 168.645 144.79 174.696 150.161H174.66C175.09 149.696 175.412 149.373 175.627 149.123C175.806 148.908 175.913 148.8 175.913 148.8C175.913 148.8 175.806 148.908 175.591 149.159C175.376 149.409 175.054 149.767 174.624 150.233C168.537 144.933 142.972 122.555 112.394 95.7007L112.322 95.6291L112.394 95.5575C112.824 95.092 113.289 94.5908 113.683 94.1611L113.754 94.0895L113.826 94.1611C131.084 109.307 146.624 122.985 157.867 132.867C163.488 137.808 168 141.783 171.151 144.54C172.726 145.9 173.908 146.974 174.731 147.726C175.125 148.084 175.448 148.371 175.662 148.55C175.806 148.693 175.913 148.8 175.913 148.8Z" fill="#263238"/>
<path d="M196 93.2301H28.3939V95.1994H196V93.2301Z" fill="#E0E0E0"/>
<path d="M195.964 95.1636C195.964 95.092 195.964 94.7698 195.964 93.1943C186.977 93.1943 115.33 93.2301 28.3581 93.2659L28.4655 93.1585C28.4655 93.8388 28.4655 94.5191 28.4655 95.1278L28.3581 95.0204C121.13 95.1278 194.962 95.1636 195.964 95.1636C194.926 95.1636 121.13 95.1994 28.3581 95.2711H28.2506V95.1636C28.2506 94.5549 28.2506 93.8746 28.2506 93.1943V93.0869H28.3581C115.294 93.1227 186.941 93.1585 195.964 93.1585C196 94.7698 195.964 95.092 195.964 95.1636Z" fill="#263238"/>
<path d="M49.9846 16.5345H48.0869V169.281H49.9846V16.5345Z" fill="#E0E0E0"/>
<path d="M50.0205 169.281C50.0205 168.243 49.9847 101.072 49.913 16.5345L50.0205 16.642C49.4118 16.642 48.7673 16.642 48.1228 16.642L48.2302 16.5345C48.2302 95.4859 48.1944 160.581 48.1586 169.281C49.5908 169.281 49.913 169.281 50.0205 169.281C49.9488 169.281 49.5908 169.281 48.1228 169.281C48.087 160.545 48.0511 95.4501 48.0511 16.5345V16.4271H48.1586C48.8031 16.4271 49.4476 16.4271 50.0563 16.4271H50.1637V16.5345C50.0563 101.072 50.0205 168.279 50.0205 169.281Z" fill="#263238"/>
<path d="M113.504 16.5345H111.606V169.281H113.504V16.5345Z" fill="#E0E0E0"/>
<path d="M113.54 169.281C113.54 168.243 113.504 101.072 113.432 16.5345L113.54 16.642C112.931 16.642 112.286 16.642 111.642 16.642L111.749 16.5345C111.749 95.4859 111.714 160.581 111.678 169.281C113.11 169.281 113.432 169.281 113.54 169.281C113.468 169.281 113.11 169.281 111.642 169.281C111.606 160.545 111.57 95.4501 111.57 16.5345V16.4271H111.678C112.322 16.4271 112.967 16.4271 113.575 16.4271H113.683V16.5345C113.575 101.072 113.54 168.279 113.54 169.281Z" fill="#263238"/>
<path d="M177.023 16.5345H175.125V169.281H177.023V16.5345Z" fill="#E0E0E0"/>
<path d="M177.023 169.281C177.023 168.243 176.987 101.072 176.916 16.5345L177.023 16.642C176.414 16.642 175.77 16.642 175.125 16.642L175.233 16.5345C175.233 95.4859 175.197 160.581 175.161 169.281C176.629 169.281 176.951 169.281 177.023 169.281C176.951 169.281 176.593 169.281 175.125 169.281C175.09 160.545 175.054 95.4501 175.054 16.5345V16.4271H175.161C175.806 16.4271 176.45 16.4271 177.059 16.4271H177.166V16.5345C177.095 101.072 177.023 168.279 177.023 169.281Z" fill="#263238"/>
<path d="M192.419 148.801H29.1458V150.77H192.419V148.801Z" fill="#E0E0E0"/>
<path d="M192.419 150.77C192.419 150.698 192.419 150.34 192.419 148.801C183.468 148.836 113.719 148.872 29.1458 148.872L29.2532 148.765C29.2532 149.445 29.2532 150.125 29.2532 150.734L29.1458 150.627C119.519 150.698 191.381 150.77 192.419 150.77C191.381 150.77 119.519 150.806 29.1458 150.877H29.0384V150.77C29.0384 150.161 29.0384 149.481 29.0384 148.801V148.693H29.1458C113.683 148.729 183.396 148.765 192.419 148.765C192.419 150.34 192.419 150.662 192.419 150.77Z" fill="#263238"/>
<path d="M190.88 57.8542H28.8951V59.8236H190.88V57.8542Z" fill="#E0E0E0"/>
<path d="M190.88 59.8235C190.88 59.7519 190.88 59.3938 190.88 57.8542C181.928 57.89 112.752 57.9258 28.8951 57.9258L29.0026 57.8184C29.0026 58.4987 29.0026 59.179 29.0026 59.7877L28.8951 59.6803C118.552 59.7877 189.841 59.8235 190.88 59.8235C189.841 59.8235 118.552 59.8593 28.8951 59.9309H28.7877V59.8235C28.7877 59.2148 28.7877 58.5345 28.7877 57.8542V57.7826H28.8951C112.752 57.7826 181.893 57.8184 190.88 57.8542C190.88 59.4297 190.88 59.7519 190.88 59.8235Z" fill="#263238"/>
<path d="M51.0946 57.174H47.0486V60.5039H51.0946V57.174Z" fill="#455A64"/>
<path d="M114.578 57.174H110.532V60.5039H114.578V57.174Z" fill="#455A64"/>
<path d="M177.811 57.174H173.765V60.5039H177.811V57.174Z" fill="#455A64"/>
<path d="M52.3836 122.806H45.7238V124.56H52.3836V122.806Z" fill="#E0E0E0"/>
<path d="M52.1688 40.4169H45.509V42.1713H52.1688V40.4169Z" fill="#E0E0E0"/>
<path d="M115.974 122.555H109.315V124.31H115.974V122.555Z" fill="#E0E0E0"/>
<path d="M179.207 122.555H172.547V124.31H179.207V122.555Z" fill="#E0E0E0"/>
<path d="M115.974 40.4169H109.315V42.1713H115.974V40.4169Z" fill="#E0E0E0"/>
<path d="M179.207 40.4169H172.547V42.1713H179.207V40.4169Z" fill="#E0E0E0"/>
</g>
<defs>
<clipPath id="clip0_63_6661">
<rect width="168" height="166.568" fill="white" transform="translate(28 3)"/>
</clipPath>
</defs>
</svg>
