<svg width="224" height="173" viewBox="0 0 224 173" fill="none" xmlns="http://www.w3.org/2000/svg">
<path d="M224 108.815C185.5 233.815 164.999 135.718 102.488 135.718C39.9767 135.718 0 109.886 0 54.315C15 -35.6854 39.9767 13.3148 102.488 13.3148C164.999 13.3148 224 53.2436 224 108.815Z" fill="#252525"/>
<g clip-path="url(#clip0_63_6662)">
<path d="M191.005 34.6001C190.404 33.6123 189.802 32.6598 189.165 31.7426C180.673 19.2899 166.484 10.7528 152.72 6.87238C146.705 5.17908 140.513 4.29716 134.321 4.05022C93.7717 2.60387 78.8753 35.9053 65.8189 44.5129C52.7625 53.1204 32.7001 67.7957 35.2123 98.6277C37.123 122.087 50.4979 144.488 74.9124 154.683C77.6015 155.812 80.4322 156.799 83.4044 157.611C88.9242 159.128 94.8686 160.08 101.308 160.362C119.778 161.174 134.781 156.729 149.43 145.581C152.826 142.971 156.223 140.043 160.646 139.725C163.866 139.478 166.909 140.643 163.548 143.747C159.585 147.38 164.149 154.542 174.198 149.568C190.97 141.242 197.834 123.322 201.089 105.083C205.088 82.6472 203.177 54.8137 191.005 34.6001Z" fill="#455A64"/>
<path opacity="0.7" d="M191.005 34.6001C190.404 33.6123 189.802 32.6598 189.165 31.7426C180.673 19.2899 166.484 10.7528 152.72 6.87238C146.705 5.17908 140.513 4.29716 134.321 4.05022C93.7717 2.60387 78.8753 35.9053 65.8189 44.5129C52.7625 53.1204 32.7001 67.7957 35.2123 98.6277C37.123 122.087 50.4979 144.488 74.9124 154.683C77.6015 155.812 80.4322 156.799 83.4044 157.611C88.9242 159.128 94.8686 160.08 101.308 160.362C119.778 161.174 134.781 156.729 149.43 145.581C152.826 142.971 156.223 140.043 160.646 139.725C163.866 139.478 166.909 140.643 163.548 143.747C159.585 147.38 164.149 154.542 174.198 149.568C190.97 141.242 197.834 123.322 201.089 105.083C205.088 82.6472 203.177 54.8137 191.005 34.6001Z" fill="white"/>
<path d="M41.8644 161.809H194.048" stroke="#263238" stroke-miterlimit="10" stroke-linecap="round" stroke-linejoin="round"/>
<path d="M198.683 138.632C197.728 138.914 195.57 138.632 195.57 138.632C195.534 138.632 196.206 137.256 196.242 137.185C196.843 136.233 198.542 134.751 199.745 135.034C200.629 135.245 201.019 136.198 200.735 137.009C200.452 137.82 199.497 138.385 198.683 138.632Z" fill="#263238"/>
<path d="M178.302 137.997C178.267 137.997 178.055 136.515 178.055 136.409C178.019 135.28 178.621 133.093 179.789 132.705C180.638 132.388 181.487 132.987 181.699 133.799C181.912 134.646 181.416 135.633 180.885 136.268C180.284 137.044 178.302 137.997 178.302 137.997Z" fill="#263238"/>
<path d="M178.656 154.118C179.399 154.224 180.85 153.801 181.239 153.695C181.31 154.33 181.381 154.93 181.487 155.529C181.522 155.776 181.593 156.059 181.628 156.306C181.699 156.552 181.735 156.799 181.805 157.046C181.947 157.54 182.053 157.999 182.195 158.493C182.265 158.74 182.336 158.951 182.407 159.163C182.23 158.81 181.947 158.246 181.912 158.175C181.381 157.364 179.859 156.059 178.762 156.376C177.984 156.588 177.666 157.434 177.949 158.14C178.232 158.881 179.081 159.304 179.789 159.516C180.567 159.727 182.301 159.48 182.513 159.445C182.69 160.01 182.867 160.539 183.044 161.033C183.15 161.35 183.256 161.668 183.362 161.985H184.105C183.964 161.632 183.822 161.244 183.681 160.821C183.504 160.362 183.327 159.904 183.185 159.41C183.362 159.339 184.884 158.704 185.45 158.105C186.087 158.493 186.794 158.845 186.901 158.916C186.724 159.48 186.582 160.01 186.441 160.539C186.299 161.068 186.193 161.526 186.087 161.985H186.794C186.901 161.562 186.971 161.138 187.078 160.68C187.184 160.221 187.325 159.727 187.431 159.198C187.644 159.233 189.342 159.551 190.12 159.375C190.828 159.198 191.713 158.775 191.996 158.069C192.314 157.364 191.996 156.517 191.253 156.27C190.191 155.953 188.634 157.152 188.033 157.964C187.997 157.999 187.644 158.669 187.467 159.022C187.537 158.704 187.644 158.422 187.714 158.105C187.856 157.646 187.997 157.187 188.139 156.694C188.21 156.447 188.316 156.2 188.387 155.988C188.457 155.741 188.564 155.529 188.67 155.282C188.811 154.93 188.988 154.577 189.13 154.224C189.59 154.365 190.934 154.824 191.642 154.753C192.385 154.683 193.305 154.401 193.694 153.73C194.083 153.095 193.942 152.213 193.234 151.861C192.243 151.367 190.51 152.319 189.802 153.025C189.767 153.06 189.66 153.201 189.484 153.413C189.66 153.06 189.837 152.743 190.014 152.39C190.545 151.437 191.111 150.485 191.642 149.497C191.748 149.285 191.854 149.109 191.996 148.897C192.385 149.038 193.836 149.497 194.579 149.462C195.322 149.391 196.242 149.109 196.631 148.439C197.02 147.804 196.879 146.922 196.171 146.569C195.18 146.075 193.447 147.028 192.739 147.733C192.703 147.768 192.562 147.945 192.385 148.192C192.668 147.663 192.951 147.133 193.234 146.604C193.694 145.652 194.119 144.735 194.437 143.782C194.579 143.817 196.277 144.417 197.091 144.347C197.834 144.276 198.754 143.994 199.143 143.324C199.532 142.689 199.391 141.807 198.683 141.454C197.693 140.96 195.959 141.913 195.251 142.618C195.216 142.653 194.65 143.394 194.473 143.641V143.606C194.791 142.618 195.003 141.595 195.145 140.643C195.286 139.69 195.322 138.773 195.357 137.961C195.393 137.115 195.357 136.374 195.322 135.668C195.286 135.316 195.286 134.963 195.251 134.645H195.286C195.286 134.645 195.746 133.411 195.782 133.305C195.994 132.352 195.853 130.377 194.897 129.813C194.225 129.424 193.376 129.742 193.057 130.447C192.739 131.153 192.987 132.07 193.34 132.74C193.694 133.411 194.933 134.363 195.216 134.61C195.251 134.928 195.251 135.28 195.251 135.668C195.251 136.339 195.286 137.115 195.216 137.926C195.216 138.138 195.18 138.385 195.18 138.632C195.145 138.244 195.039 137.679 195.039 137.644C194.791 136.692 193.73 134.998 192.633 134.928C191.854 134.892 191.253 135.563 191.288 136.339C191.324 137.115 191.996 137.82 192.597 138.244C193.234 138.667 194.791 138.985 195.145 139.055C195.11 139.549 195.039 140.078 194.933 140.643C194.791 141.595 194.543 142.583 194.19 143.535C194.154 143.535 194.154 143.535 194.119 143.535C194.119 143.147 194.083 142.371 194.083 142.336C193.942 141.348 193.093 139.549 191.996 139.373C191.217 139.231 190.545 139.866 190.51 140.607C190.474 141.383 191.04 142.159 191.607 142.618C192.243 143.182 194.048 143.676 194.119 143.712C193.765 144.629 193.376 145.511 192.88 146.428C192.527 147.063 192.173 147.733 191.783 148.368C191.783 148.121 191.748 147.098 191.748 147.028C191.607 146.04 190.757 144.241 189.66 144.064C188.882 143.923 188.21 144.558 188.174 145.299C188.139 146.075 188.705 146.851 189.271 147.31C189.908 147.839 191.607 148.368 191.783 148.403C191.607 148.686 191.43 149.003 191.253 149.285C190.687 150.238 190.085 151.19 189.554 152.143C189.377 152.46 189.201 152.813 189.024 153.131C189.024 152.743 188.988 152.037 188.988 151.966C188.847 150.979 187.997 149.18 186.901 149.003C186.122 148.862 185.45 149.497 185.414 150.238C185.379 151.014 185.945 151.79 186.511 152.249C187.078 152.743 188.528 153.201 188.917 153.307C188.634 153.871 188.351 154.436 188.104 155C187.997 155.247 187.891 155.494 187.821 155.741C187.75 155.988 187.644 156.235 187.573 156.447C187.396 156.94 187.254 157.399 187.113 157.858C187.042 158.105 186.971 158.316 186.901 158.528C186.971 158.14 187.042 157.505 187.042 157.434C187.042 156.447 186.476 154.542 185.414 154.189C184.671 153.942 183.928 154.471 183.751 155.212C183.716 155.318 183.716 155.388 183.716 155.494C183.221 156.2 182.902 157.258 182.902 157.928C182.902 157.999 182.973 158.74 183.008 159.128C182.902 158.845 182.796 158.528 182.69 158.21C182.548 157.752 182.407 157.293 182.265 156.835C182.195 156.588 182.124 156.341 182.088 156.094C182.018 155.847 181.982 155.6 181.912 155.353C181.841 155 181.77 154.612 181.735 154.224C182.195 154.118 183.575 153.73 184.141 153.272C184.707 152.813 185.308 152.072 185.308 151.296C185.273 150.52 184.671 149.885 183.858 149.991C182.761 150.132 181.841 151.896 181.664 152.848C181.664 152.884 181.628 153.095 181.628 153.342C181.593 152.954 181.522 152.601 181.487 152.213C181.381 151.12 181.31 150.026 181.275 148.897C181.275 148.65 181.239 148.439 181.239 148.192C181.628 148.086 183.115 147.698 183.716 147.239C184.282 146.781 184.884 146.04 184.884 145.264C184.848 144.488 184.247 143.853 183.433 143.959C182.336 144.1 181.416 145.864 181.239 146.816C181.239 146.851 181.204 147.098 181.204 147.38C181.168 146.781 181.098 146.181 181.027 145.581C180.885 144.558 180.709 143.535 180.461 142.547C180.602 142.512 182.336 142.089 183.008 141.56C183.575 141.101 184.176 140.36 184.176 139.584C184.141 138.808 183.539 138.173 182.725 138.279C181.628 138.42 180.709 140.184 180.532 141.136C180.532 141.207 180.461 142.089 180.425 142.442V142.406C180.142 141.383 179.753 140.466 179.364 139.584C178.939 138.702 178.515 137.926 178.055 137.221C177.63 136.515 177.17 135.88 176.781 135.316C176.569 135.034 176.356 134.751 176.179 134.504H176.215C176.25 134.504 175.896 133.199 175.861 133.129C175.507 132.211 174.304 130.624 173.207 130.694C172.429 130.73 171.898 131.471 172.04 132.247C172.146 133.023 172.889 133.658 173.526 133.975C174.198 134.328 175.755 134.469 176.144 134.504C176.356 134.751 176.533 135.033 176.781 135.351C177.17 135.915 177.595 136.55 178.019 137.256C178.126 137.432 178.232 137.644 178.373 137.856C178.126 137.538 177.736 137.15 177.701 137.115C176.958 136.445 175.153 135.633 174.198 136.162C173.526 136.55 173.42 137.468 173.844 138.067C174.304 138.702 175.224 138.914 175.967 138.914C176.746 138.914 178.232 138.314 178.55 138.173C178.798 138.632 179.045 139.09 179.258 139.584C179.647 140.466 180.001 141.383 180.249 142.406C180.213 142.406 180.213 142.406 180.178 142.442C179.965 142.124 179.505 141.489 179.47 141.454C178.798 140.713 177.099 139.69 176.109 140.149C175.366 140.466 175.189 141.348 175.578 142.018C175.967 142.689 176.887 143.006 177.595 143.112C178.444 143.218 180.213 142.653 180.284 142.653C180.496 143.606 180.638 144.594 180.744 145.581C180.815 146.322 180.85 147.063 180.885 147.804C180.744 147.592 180.142 146.745 180.107 146.71C179.435 145.969 177.736 144.946 176.746 145.405C176.003 145.722 175.826 146.604 176.215 147.275C176.604 147.945 177.524 148.262 178.232 148.368C179.045 148.474 180.779 147.945 180.921 147.91C180.921 148.262 180.956 148.58 180.956 148.933C180.992 150.061 181.027 151.155 181.098 152.249C181.133 152.637 181.168 152.989 181.204 153.378C180.992 153.06 180.567 152.46 180.532 152.425C179.859 151.684 178.161 150.661 177.17 151.12C176.427 151.437 176.25 152.319 176.639 152.989C177.029 153.73 177.949 154.048 178.656 154.118Z" fill="#263238"/>
<path d="M187.821 9.90613H51.7363V94.3591H187.821V9.90613Z" fill="white" stroke="#263238" stroke-miterlimit="10" stroke-linecap="round" stroke-linejoin="round"/>
<path d="M187.608 16.3618H184.211V84.658H187.608" stroke="#263238" stroke-miterlimit="10" stroke-linecap="round" stroke-linejoin="round"/>
<path d="M184.141 70.7236H187.821" stroke="#263238" stroke-miterlimit="10" stroke-linecap="round" stroke-linejoin="round"/>
<path d="M184.282 31.9542H187.714" stroke="#263238" stroke-miterlimit="10" stroke-linecap="round" stroke-linejoin="round"/>
<path d="M185.167 18.8665V29.9787" stroke="#263238" stroke-miterlimit="10" stroke-linecap="round" stroke-linejoin="round"/>
<path d="M185.91 18.8665V29.9787" stroke="#263238" stroke-miterlimit="10" stroke-linecap="round" stroke-linejoin="round"/>
<path d="M186.618 18.8665V29.9787" stroke="#263238" stroke-miterlimit="10" stroke-linecap="round" stroke-linejoin="round"/>
<path d="M117.974 58.8706L166.166 58.9764L166.201 39.186L117.974 39.1155V58.8706Z" fill="white" stroke="#263238" stroke-width="0.5" stroke-miterlimit="10" stroke-linecap="round" stroke-linejoin="round"/>
<path d="M117.974 40.9852L166.201 41.091V39.186L117.974 39.1155V40.9852Z" fill="white" stroke="#263238" stroke-width="0.5" stroke-miterlimit="10" stroke-linecap="round" stroke-linejoin="round"/>
<path d="M168.289 37.4927L118.186 37.4221V25.0046L160.611 25.0752L168.289 37.4927Z" fill="white" stroke="#263238" stroke-width="0.5" stroke-miterlimit="10" stroke-linecap="round" stroke-linejoin="round"/>
<path d="M117.762 39.7151L168.289 39.821V37.4927L117.762 37.4221V39.7151Z" fill="white" stroke="#263238" stroke-width="0.5" stroke-miterlimit="10" stroke-linecap="round" stroke-linejoin="round"/>
<path d="M126.537 32.5892L92.7456 32.5187V49.0988L126.537 49.1694V32.5892Z" fill="white" stroke="#263238" stroke-width="0.5" stroke-miterlimit="10" stroke-linecap="round" stroke-linejoin="round"/>
<path d="M126.537 32.5892L92.7456 32.5187V34.212L126.537 34.2825V32.5892Z" fill="white" stroke="#263238" stroke-width="0.5" stroke-miterlimit="10" stroke-linecap="round" stroke-linejoin="round"/>
<path d="M109.27 15.6915L90.8703 29.6612L127.634 29.7318L109.27 15.6915Z" fill="white" stroke="#263238" stroke-width="0.5" stroke-miterlimit="10" stroke-linecap="round" stroke-linejoin="round"/>
<path d="M109.27 17.5964L94.6209 28.7087L123.883 28.7792L109.27 17.5964Z" fill="white" stroke="#263238" stroke-width="0.5" stroke-miterlimit="10" stroke-linecap="round" stroke-linejoin="round"/>
<path d="M68.0481 81.6241H65.8189L65.8543 55.7308H68.0481V81.6241Z" fill="white" stroke="#263238" stroke-width="0.5" stroke-miterlimit="10" stroke-linecap="round" stroke-linejoin="round"/>
<path d="M173.03 81.7299L71.1971 81.5536V55.7308L173.066 55.9425L173.03 81.7299Z" fill="white" stroke="#263238" stroke-width="0.5" stroke-miterlimit="10" stroke-linecap="round" stroke-linejoin="round"/>
<path d="M173.066 58.7646L71.1971 58.5883V55.7308L173.066 55.9425V58.7646Z" fill="white" stroke="#263238" stroke-width="0.5" stroke-miterlimit="10" stroke-linecap="round" stroke-linejoin="round"/>
<path d="M132.021 55.0606L63.0236 54.9195L68.8619 47.2997L132.021 47.4055V55.0606Z" fill="white" stroke="#263238" stroke-width="0.5" stroke-miterlimit="10" stroke-linecap="round" stroke-linejoin="round"/>
<path d="M119.142 56.6127L63.0236 56.5069V54.9194L119.142 55.0253V56.6127Z" fill="white" stroke="#263238" stroke-width="0.5" stroke-miterlimit="10" stroke-linecap="round" stroke-linejoin="round"/>
<path d="M173.066 55.1311L116.169 55.0253L116.134 81.6241L173.03 81.7299L173.066 55.1311Z" fill="white" stroke="#263238" stroke-width="0.5" stroke-miterlimit="10" stroke-linecap="round" stroke-linejoin="round"/>
<path d="M171.58 56.6833L117.62 56.5775L117.585 81.6241L171.58 81.73V56.6833Z" fill="white" stroke="#263238" stroke-width="0.5" stroke-miterlimit="10" stroke-linecap="round" stroke-linejoin="round"/>
<path d="M167.086 60.2111L122.114 60.1405V81.6594L167.051 81.73L167.086 60.2111Z" fill="white" stroke="#263238" stroke-width="0.5" stroke-miterlimit="10" stroke-linecap="round" stroke-linejoin="round"/>
<path d="M133.436 70.9705L123.281 70.9353V66.8784L133.436 66.9137V70.9705Z" fill="white" stroke="#263238" stroke-width="0.5" stroke-miterlimit="10" stroke-linecap="round" stroke-linejoin="round"/>
<path d="M144.264 70.9705H134.109V66.9137H144.264V70.9705Z" fill="white" stroke="#263238" stroke-width="0.5" stroke-miterlimit="10" stroke-linecap="round" stroke-linejoin="round"/>
<path d="M133.436 75.8034L123.281 75.7682V71.7113L133.436 71.7466V75.8034Z" fill="white" stroke="#263238" stroke-width="0.5" stroke-miterlimit="10" stroke-linecap="round" stroke-linejoin="round"/>
<path d="M144.264 75.8034H134.109V71.7466L144.264 71.7819V75.8034Z" fill="white" stroke="#263238" stroke-width="0.5" stroke-miterlimit="10" stroke-linecap="round" stroke-linejoin="round"/>
<path d="M133.436 80.6364H123.281V76.5796H133.436V80.6364Z" fill="white" stroke="#263238" stroke-width="0.5" stroke-miterlimit="10" stroke-linecap="round" stroke-linejoin="round"/>
<path d="M144.264 80.6717L134.109 80.6364V76.5796L144.264 76.6149V80.6717Z" fill="white" stroke="#263238" stroke-width="0.5" stroke-miterlimit="10" stroke-linecap="round" stroke-linejoin="round"/>
<path d="M155.126 71.0058L144.971 70.9705V66.9137L155.126 66.949V71.0058Z" fill="white" stroke="#263238" stroke-width="0.5" stroke-miterlimit="10" stroke-linecap="round" stroke-linejoin="round"/>
<path d="M165.954 71.0058H155.799V66.949H165.954V71.0058Z" fill="white" stroke="#263238" stroke-width="0.5" stroke-miterlimit="10" stroke-linecap="round" stroke-linejoin="round"/>
<path d="M155.091 75.8387H144.971V71.7819H155.126L155.091 75.8387Z" fill="white" stroke="#263238" stroke-width="0.5" stroke-miterlimit="10" stroke-linecap="round" stroke-linejoin="round"/>
<path d="M165.954 75.874L155.799 75.8387V71.7819L165.954 71.8171V75.874Z" fill="white" stroke="#263238" stroke-width="0.5" stroke-miterlimit="10" stroke-linecap="round" stroke-linejoin="round"/>
<path d="M155.091 80.6717H144.936L144.971 76.6149H155.091V80.6717Z" fill="white" stroke="#263238" stroke-width="0.5" stroke-miterlimit="10" stroke-linecap="round" stroke-linejoin="round"/>
<path d="M165.954 80.707L155.799 80.6717V76.6501H165.954V80.707Z" fill="white" stroke="#263238" stroke-width="0.5" stroke-miterlimit="10" stroke-linecap="round" stroke-linejoin="round"/>
<path d="M143.981 29.4496L113.94 55.3429L173.986 55.4487L143.981 29.4496Z" fill="white" stroke="#263238" stroke-width="0.5" stroke-miterlimit="10" stroke-linecap="round" stroke-linejoin="round"/>
<path d="M143.981 32.9772L120.097 53.5789L167.864 53.6847L143.981 32.9772Z" fill="white" stroke="#263238" stroke-width="0.5" stroke-miterlimit="10" stroke-linecap="round" stroke-linejoin="round"/>
<path d="M128.129 32.7656L90.8703 32.6951V29.6613L128.129 29.7318V32.7656Z" fill="white" stroke="#263238" stroke-width="0.5" stroke-miterlimit="10" stroke-linecap="round" stroke-linejoin="round"/>
<path d="M120.557 46.453L98.5485 46.3824V33.5063L120.557 33.5416V46.453Z" fill="white" stroke="#263238" stroke-width="0.5" stroke-miterlimit="10" stroke-linecap="round" stroke-linejoin="round"/>
<path d="M117.408 46.4177H101.698V33.5063L117.443 33.5416L117.408 46.4177Z" fill="white" stroke="#263238" stroke-width="0.5" stroke-miterlimit="10" stroke-linecap="round" stroke-linejoin="round"/>
<path d="M110.19 46.4177H108.916L108.951 33.5063H110.19V46.4177Z" fill="white" stroke="#263238" stroke-width="0.5" stroke-miterlimit="10" stroke-linecap="round" stroke-linejoin="round"/>
<path d="M101.768 40.5264V39.3976L117.337 39.4329V40.5264H101.768Z" fill="white" stroke="#263238" stroke-width="0.5" stroke-miterlimit="10" stroke-linecap="round" stroke-linejoin="round"/>
<path d="M97.9116 77.4261L75.9031 77.3909V61.481L97.9116 61.5162V77.4261Z" fill="white" stroke="#263238" stroke-width="0.5" stroke-miterlimit="10" stroke-linecap="round" stroke-linejoin="round"/>
<path d="M94.7624 77.4261L79.0522 77.3909V61.481L94.7624 61.5162V77.4261Z" fill="white" stroke="#263238" stroke-width="0.5" stroke-miterlimit="10" stroke-linecap="round" stroke-linejoin="round"/>
<path d="M87.5442 77.4261H86.2704V61.481L87.5442 61.5162V77.4261Z" fill="white" stroke="#263238" stroke-width="0.5" stroke-miterlimit="10" stroke-linecap="round" stroke-linejoin="round"/>
<path d="M79.123 70.1238V68.748L94.7271 68.7833V70.1591L79.123 70.1238Z" fill="white" stroke="#263238" stroke-width="0.5" stroke-miterlimit="10" stroke-linecap="round" stroke-linejoin="round"/>
<path d="M113.48 61.869L104.988 61.8337V81.4477H113.445L113.48 61.869Z" fill="white" stroke="#263238" stroke-width="0.5" stroke-miterlimit="10" stroke-linecap="round" stroke-linejoin="round"/>
<path d="M112.065 63.1038L106.404 63.0685V78.2376L112.065 78.2728V63.1038Z" fill="white" stroke="#263238" stroke-width="0.5" stroke-miterlimit="10" stroke-linecap="round" stroke-linejoin="round"/>
<path d="M124.661 63.2096V62.3629H123.175V63.2096H124.661Z" fill="white" stroke="#263238" stroke-width="0.5" stroke-miterlimit="10" stroke-linecap="round" stroke-linejoin="round"/>
<path d="M125.298 63.2096H126.784V62.3629H125.298V63.2096Z" fill="white" stroke="#263238" stroke-width="0.5" stroke-miterlimit="10" stroke-linecap="round" stroke-linejoin="round"/>
<path d="M124.661 63.6682H123.175V64.7265H124.661V63.6682Z" fill="white" stroke="#263238" stroke-width="0.5" stroke-miterlimit="10" stroke-linecap="round" stroke-linejoin="round"/>
<path d="M125.298 63.6682V64.7265H126.784V63.6682H125.298Z" fill="white" stroke="#263238" stroke-width="0.5" stroke-miterlimit="10" stroke-linecap="round" stroke-linejoin="round"/>
<path d="M130.217 63.2096V62.3629H128.766V63.2096H130.217Z" fill="white" stroke="#263238" stroke-width="0.5" stroke-miterlimit="10" stroke-linecap="round" stroke-linejoin="round"/>
<path d="M130.889 63.2096H132.375V62.3629H130.889V63.2096Z" fill="white" stroke="#263238" stroke-width="0.5" stroke-miterlimit="10" stroke-linecap="round" stroke-linejoin="round"/>
<path d="M130.217 63.6682H128.766V64.7265H130.217V63.6682Z" fill="white" stroke="#263238" stroke-width="0.5" stroke-miterlimit="10" stroke-linecap="round" stroke-linejoin="round"/>
<path d="M130.889 63.6682V64.7265L132.375 64.7618V63.7035L130.889 63.6682Z" fill="white" stroke="#263238" stroke-width="0.5" stroke-miterlimit="10" stroke-linecap="round" stroke-linejoin="round"/>
<path d="M135.807 63.2448V62.3982H134.321V63.2448H135.807Z" fill="white" stroke="#263238" stroke-width="0.5" stroke-miterlimit="10" stroke-linecap="round" stroke-linejoin="round"/>
<path d="M136.479 63.2448H137.93V62.3982H136.479V63.2448Z" fill="white" stroke="#263238" stroke-width="0.5" stroke-miterlimit="10" stroke-linecap="round" stroke-linejoin="round"/>
<path d="M135.807 63.7035H134.321V64.7618H135.807V63.7035Z" fill="white" stroke="#263238" stroke-width="0.5" stroke-miterlimit="10" stroke-linecap="round" stroke-linejoin="round"/>
<path d="M136.479 63.7035V64.7618H137.93V63.7035H136.479Z" fill="white" stroke="#263238" stroke-width="0.5" stroke-miterlimit="10" stroke-linecap="round" stroke-linejoin="round"/>
<path d="M141.398 63.2448V62.3982H139.912V63.2448H141.398Z" fill="white" stroke="#263238" stroke-width="0.5" stroke-miterlimit="10" stroke-linecap="round" stroke-linejoin="round"/>
<path d="M142.035 63.2448H143.521V62.3982H142.035V63.2448Z" fill="white" stroke="#263238" stroke-width="0.5" stroke-miterlimit="10" stroke-linecap="round" stroke-linejoin="round"/>
<path d="M141.398 63.7035H139.912V64.7618H141.398V63.7035Z" fill="white" stroke="#263238" stroke-width="0.5" stroke-miterlimit="10" stroke-linecap="round" stroke-linejoin="round"/>
<path d="M142.035 63.7035V64.7618H143.521V63.7035H142.035Z" fill="white" stroke="#263238" stroke-width="0.5" stroke-miterlimit="10" stroke-linecap="round" stroke-linejoin="round"/>
<path d="M146.953 63.2448V62.3982H145.467V63.2448H146.953Z" fill="white" stroke="#263238" stroke-width="0.5" stroke-miterlimit="10" stroke-linecap="round" stroke-linejoin="round"/>
<path d="M147.625 63.2448H149.111V62.3982H147.625V63.2448Z" fill="white" stroke="#263238" stroke-width="0.5" stroke-miterlimit="10" stroke-linecap="round" stroke-linejoin="round"/>
<path d="M146.953 63.7035H145.467V64.7618H146.953V63.7035Z" fill="white" stroke="#263238" stroke-width="0.5" stroke-miterlimit="10" stroke-linecap="round" stroke-linejoin="round"/>
<path d="M147.625 63.7035V64.7618H149.111V63.7035H147.625Z" fill="white" stroke="#263238" stroke-width="0.5" stroke-miterlimit="10" stroke-linecap="round" stroke-linejoin="round"/>
<path d="M152.543 63.2448V62.4335L151.057 62.3982V63.2448H152.543Z" fill="white" stroke="#263238" stroke-width="0.5" stroke-miterlimit="10" stroke-linecap="round" stroke-linejoin="round"/>
<path d="M153.18 63.2448L154.666 63.2801V62.4335H153.18V63.2448Z" fill="white" stroke="#263238" stroke-width="0.5" stroke-miterlimit="10" stroke-linecap="round" stroke-linejoin="round"/>
<path d="M152.543 63.7388H151.057V64.7971H152.543V63.7388Z" fill="white" stroke="#263238" stroke-width="0.5" stroke-miterlimit="10" stroke-linecap="round" stroke-linejoin="round"/>
<path d="M153.18 63.7388V64.7971H154.666V63.7388H153.18Z" fill="white" stroke="#263238" stroke-width="0.5" stroke-miterlimit="10" stroke-linecap="round" stroke-linejoin="round"/>
<path d="M158.099 63.2801V62.4335H156.648V63.2801H158.099Z" fill="white" stroke="#263238" stroke-width="0.5" stroke-miterlimit="10" stroke-linecap="round" stroke-linejoin="round"/>
<path d="M158.771 63.2801H160.257V62.4335H158.771V63.2801Z" fill="white" stroke="#263238" stroke-width="0.5" stroke-miterlimit="10" stroke-linecap="round" stroke-linejoin="round"/>
<path d="M158.099 63.7388H156.648V64.7971H158.099V63.7388Z" fill="white" stroke="#263238" stroke-width="0.5" stroke-miterlimit="10" stroke-linecap="round" stroke-linejoin="round"/>
<path d="M158.771 63.7388V64.7971H160.257V63.7388H158.771Z" fill="white" stroke="#263238" stroke-width="0.5" stroke-miterlimit="10" stroke-linecap="round" stroke-linejoin="round"/>
<path d="M163.689 63.2801V62.4335H162.203V63.2801H163.689Z" fill="white" stroke="#263238" stroke-width="0.5" stroke-miterlimit="10" stroke-linecap="round" stroke-linejoin="round"/>
<path d="M164.362 63.2801H165.812V62.4335H164.362V63.2801Z" fill="white" stroke="#263238" stroke-width="0.5" stroke-miterlimit="10" stroke-linecap="round" stroke-linejoin="round"/>
<path d="M163.689 63.7388H162.203V64.7971H163.689V63.7388Z" fill="white" stroke="#263238" stroke-width="0.5" stroke-miterlimit="10" stroke-linecap="round" stroke-linejoin="round"/>
<path d="M164.326 63.7388V64.7971H165.812V63.7388H164.326Z" fill="white" stroke="#263238" stroke-width="0.5" stroke-miterlimit="10" stroke-linecap="round" stroke-linejoin="round"/>
<path d="M106.651 15.7974H76.4692" stroke="#263238" stroke-width="0.5" stroke-miterlimit="10" stroke-linecap="round" stroke-linejoin="round"/>
<path d="M88.9596 32.942H58.4592" stroke="#263238" stroke-width="0.5" stroke-miterlimit="10" stroke-linecap="round" stroke-linejoin="round"/>
<path d="M78.4507 13.9983V34.4236" stroke="#263238" stroke-width="0.5" stroke-miterlimit="10" stroke-linecap="round" stroke-linejoin="round"/>
<path d="M160.434 23.9816V15.621" stroke="#263238" stroke-width="0.5" stroke-miterlimit="10" stroke-linecap="round" stroke-linejoin="round"/>
<path d="M112.383 16.1149H162.734" stroke="#263238" stroke-width="0.5" stroke-miterlimit="10" stroke-linecap="round" stroke-linejoin="round"/>
<path d="M169.634 39.8209H175.366" stroke="#263238" stroke-width="0.5" stroke-miterlimit="10" stroke-linecap="round" stroke-linejoin="round"/>
<path d="M162.557 25.2869H175.366" stroke="#263238" stroke-width="0.5" stroke-miterlimit="10" stroke-linecap="round" stroke-linejoin="round"/>
<path d="M173.561 23.9817V44.0895" stroke="#263238" stroke-width="0.5" stroke-miterlimit="10" stroke-linecap="round" stroke-linejoin="round"/>
<path d="M175.543 55.2018H179.293" stroke="#263238" stroke-width="0.5" stroke-miterlimit="10" stroke-linecap="round" stroke-linejoin="round"/>
<path d="M178.302 54.0376V82.1533" stroke="#263238" stroke-width="0.5" stroke-miterlimit="10" stroke-linecap="round" stroke-linejoin="round"/>
<path d="M175.189 82.0122H181.77" stroke="#263238" stroke-width="0.5" stroke-miterlimit="10" stroke-linecap="round" stroke-linejoin="round"/>
<path d="M66.6327 47.335H58.4592" stroke="#263238" stroke-width="0.5" stroke-miterlimit="10" stroke-linecap="round" stroke-linejoin="round"/>
<path d="M61.5729 56.8245H58.4592" stroke="#263238" stroke-width="0.5" stroke-miterlimit="10" stroke-linecap="round" stroke-linejoin="round"/>
<path d="M59.9099 31.8131V60.5991" stroke="#263238" stroke-width="0.5" stroke-miterlimit="10" stroke-linecap="round" stroke-linejoin="round"/>
<path d="M64.3328 81.8358H59.5914" stroke="#263238" stroke-width="0.5" stroke-miterlimit="10" stroke-linecap="round" stroke-linejoin="round"/>
<path d="M187.007 112.103C187.184 111.221 186.37 111.363 185.874 111.645C185.414 111.927 184.636 111.962 184.105 111.998C183.61 112.033 183.079 111.962 182.584 112.139C181.912 112.35 180.107 113.162 179.647 113.303C178.267 113.691 171.615 110.551 169.527 109.14C167.44 107.764 162.415 107.059 162.415 107.059C162.415 107.059 161.389 104.519 160.328 99.0156C159.266 93.5124 155.586 88.0445 155.586 88.0445C154.702 87.1978 154.383 89.3497 154.383 89.3497L155.763 106.812C155.763 106.812 155.622 112.491 156.259 113.091L156.329 113.832C156.329 113.832 157.815 115.384 159.054 115.843C159.832 116.125 160.54 116.407 160.929 116.548C161.071 116.619 161.177 116.654 161.318 116.689C163.618 117.501 175.401 118.1 175.401 118.1C175.401 118.1 177.099 119.9 179.01 120.005C180.956 120.111 181.841 120.323 182.265 120.041C182.655 119.758 186.759 115.984 186.582 115.067C186.405 114.114 183.504 114.114 183.504 114.114L185.804 113.444C186.193 113.126 186.901 112.668 187.007 112.103Z" fill="white" stroke="#263238" stroke-miterlimit="10"/>
<path d="M186.511 115.102C186.334 114.149 183.433 114.149 183.433 114.149L185.733 113.479C186.193 113.197 186.865 112.703 187.007 112.139C187.184 111.257 186.37 111.398 185.874 111.68C185.414 111.962 184.636 111.998 184.105 112.033C183.61 112.068 183.079 111.998 182.584 112.174C181.912 112.386 180.107 113.197 179.647 113.338C179.258 113.444 178.479 113.267 177.489 112.95C174.516 114.361 174.021 116.866 173.915 118.065C174.764 118.1 175.33 118.136 175.33 118.136C175.33 118.136 177.029 119.935 178.939 120.041C180.885 120.146 181.77 120.358 182.195 120.076C182.584 119.794 186.688 116.019 186.511 115.102Z" fill="#455A64" stroke="#263238" stroke-miterlimit="10" stroke-linecap="round" stroke-linejoin="round"/>
<path d="M184.07 115.314C184.07 115.314 185.238 116.513 185.698 116.548C186.158 116.583 186.724 115.56 186.511 115.102C186.299 114.643 184.99 114.185 184.388 114.22C183.822 114.22 183.433 114.749 184.07 115.314Z" fill="#455A64" stroke="#263238" stroke-miterlimit="10" stroke-linecap="round" stroke-linejoin="round"/>
<path d="M184.07 115.314C184.07 115.314 183.221 115.596 183.15 116.09C183.079 116.584 184.813 117.959 185.131 117.959C185.45 117.959 186.122 117.183 186.087 116.972C186.051 116.76 185.238 115.772 184.07 115.314Z" fill="#455A64" stroke="#263238" stroke-miterlimit="10" stroke-linecap="round" stroke-linejoin="round"/>
<path d="M183.398 116.972C183.398 116.972 182.088 116.478 182.336 117.324C182.548 118.206 183.468 119.265 183.751 119.37C184.035 119.476 184.742 119.123 184.601 118.665C184.424 118.206 183.751 117.43 183.398 116.972Z" fill="#455A64" stroke="#263238" stroke-miterlimit="10" stroke-linecap="round" stroke-linejoin="round"/>
<path d="M182.478 118.03C182.478 118.03 181.416 117.501 181.452 118.383C181.452 119.229 182.265 120.217 182.619 120.358C182.973 120.499 183.398 120.076 183.327 119.653C183.185 119.159 182.478 118.03 182.478 118.03Z" fill="#455A64" stroke="#263238" stroke-miterlimit="10" stroke-linecap="round" stroke-linejoin="round"/>
<path d="M137.258 161.738L138.532 153.201L139.628 161.738H156.294L156.966 139.76L118.08 139.337L118.752 161.738H137.258Z" fill="#263238" stroke="#263238" stroke-miterlimit="10"/>
<path d="M129.827 82.6824L117.408 88.5736C117.408 88.5736 115.922 121.134 116.134 127.061C116.346 132.987 117.019 140.678 117.019 140.678C117.019 140.678 125.157 142.371 129.19 143.253C133.26 144.135 140.584 144.135 140.584 144.135L142.07 141.172L142.778 143.923L149.925 143.5C150.633 143.465 151.34 143.288 151.977 142.971L157.851 140.254C157.851 140.254 157.745 106.459 157.356 100.356C156.966 94.218 155.586 88.0092 155.586 88.0092L145.962 83.5643C145.927 83.6349 138.779 79.8955 129.827 82.6824Z" fill="#455A64" stroke="#263238" stroke-miterlimit="10" stroke-linecap="round" stroke-linejoin="round"/>
<path d="M157.78 131.753C157.78 130.024 157.745 128.119 157.745 126.108C141.185 128.648 122.998 126.849 116.099 125.967C116.099 126.39 116.099 126.779 116.099 127.061C116.169 128.683 116.24 130.412 116.346 132.07C133.684 134.469 150.774 132.705 157.78 131.753Z" fill="white" stroke="#263238" stroke-miterlimit="10" stroke-linecap="round" stroke-linejoin="round"/>
<path d="M116.452 111.821C116.382 113.938 116.311 115.984 116.24 117.889C133.507 120.252 150.562 118.524 157.674 117.571C157.639 115.631 157.639 113.726 157.603 111.927C141.362 114.396 123.6 112.703 116.452 111.821Z" fill="white" stroke="#263238" stroke-miterlimit="10" stroke-linecap="round" stroke-linejoin="round"/>
<path d="M133.26 92.2424L141.079 102.826L146.281 91.8191L140.548 86.4218L133.26 92.2424Z" fill="white" stroke="#263238" stroke-miterlimit="10" stroke-linecap="round" stroke-linejoin="round"/>
<path d="M132.693 80.1778C132.693 80.1778 130.818 80.5658 130.217 81.483C129.58 82.4002 128.978 83.3527 128.978 83.3527C128.978 83.3527 129.827 86.9157 130.535 89.1028C131.243 91.29 133.649 95.3116 133.649 95.3116L140.265 91.1842C140.265 91.1842 142.742 92.4189 143.308 92.7364C143.839 93.0539 146.67 95.8407 146.67 95.8407C146.67 95.8407 148.297 89.3145 147.837 87.0921C147.377 84.8343 146.351 82.753 146.351 82.753C146.351 82.753 139.699 79.0136 132.693 80.1778Z" fill="white" stroke="#263238" stroke-miterlimit="10" stroke-linecap="round" stroke-linejoin="round"/>
<path d="M132.375 77.3909C132.375 77.3909 132.304 83.141 132.623 84.3052C132.941 85.4693 136.444 89.8789 136.975 91.0431C137.505 92.2072 140.23 95.3116 140.23 95.3116C140.23 95.3116 145.042 88.6442 145.608 86.8451C146.174 85.046 146.634 84.0582 146.634 84.0582C146.634 84.0582 144.688 86.5276 141.504 85.2224C138.319 83.9171 135.135 80.4953 135.135 80.4953C135.135 80.4953 132.41 74.604 132.34 75.4507C132.233 76.2973 132.375 77.3909 132.375 77.3909Z" fill="white" stroke="#263238" stroke-miterlimit="10" stroke-linecap="round" stroke-linejoin="round"/>
<path d="M149.571 73.6516C149.571 73.6516 148.934 78.2376 148.404 80.7775C147.873 83.3175 146.068 86.9157 144.582 87.8329C143.096 88.7501 141.079 88.6796 139.982 88.2915C138.885 87.9035 134.604 85.1166 133.436 83.7761C132.269 82.4708 132.34 77.3557 132.34 77.3557C132.34 77.3557 131.172 77.6026 130.712 76.509C130.252 75.4154 129.933 73.4047 129.933 73.4047C129.933 73.4047 129.615 72.7697 129.863 71.535C130.11 70.3003 130.5 70.0533 130.5 70.0533C130.5 70.0533 138.213 73.2283 141.15 73.6163C144.122 74.0396 149.571 73.6516 149.571 73.6516Z" fill="white" stroke="#263238" stroke-miterlimit="10" stroke-linecap="round" stroke-linejoin="round"/>
<path d="M146.953 82.0475C146.033 81.2009 143.91 80.4248 143.91 80.4248C143.91 80.4248 143.981 81.1303 142.884 81.2009C141.787 81.2714 141.185 80.4954 141.185 80.4954C141.185 80.4954 139.629 80.9539 138.85 81.342C138.072 81.73 136.975 83.0353 136.975 83.0353C136.975 83.0353 134.887 81.4125 134.25 80.0015C133.613 78.5904 133.613 73.7222 133.613 73.7222C133.613 73.7222 134.073 72.9461 134.392 72.4169C134.498 72.2405 134.604 71.9936 134.675 71.7114C133.755 71.3586 132.87 71.0411 132.198 70.7589L131.844 70.7942L132.375 77.391C132.375 77.391 132.304 82.5061 133.472 83.8114C134.639 85.1166 138.921 87.9388 140.018 88.3268C141.115 88.7149 143.131 88.7854 144.618 87.8682C145.644 87.198 146.847 85.2577 147.661 83.247C147.448 82.7531 147.236 82.2945 146.953 82.0475Z" fill="#263238" stroke="#263238" stroke-miterlimit="10" stroke-linecap="round" stroke-linejoin="round"/>
<path d="M145.396 75.1332L144.688 75.9093L144.122 79.7897" stroke="#263238" stroke-miterlimit="10" stroke-linecap="round" stroke-linejoin="round"/>
<path d="M137.222 74.6746C137.222 74.6746 138.532 74.1454 139.805 74.3571C141.044 74.604 141.999 74.9921 141.999 74.9921" stroke="#263238" stroke-miterlimit="10" stroke-linecap="round" stroke-linejoin="round"/>
<path d="M146.634 74.7452C146.634 74.7452 148.05 74.216 148.51 75.4507" stroke="#263238" stroke-miterlimit="10" stroke-linecap="round" stroke-linejoin="round"/>
<path d="M140.088 76.7207C140.088 77.2145 139.841 77.6026 139.558 77.6026C139.239 77.6026 139.027 77.2145 139.027 76.7207C139.027 76.2268 139.275 75.8387 139.558 75.8387C139.841 75.8387 140.088 76.2268 140.088 76.7207Z" fill="black"/>
<path d="M146.705 77.3204C146.705 77.8143 146.457 78.2023 146.174 78.2023C145.856 78.2023 145.644 77.8143 145.644 77.3204C145.644 76.8265 145.891 76.4385 146.174 76.4385C146.457 76.4032 146.705 76.8265 146.705 77.3204Z" fill="black"/>
<path d="M138.142 77.5321L139.558 77.6027" stroke="#263238" stroke-miterlimit="10" stroke-linecap="round" stroke-linejoin="round"/>
<path d="M146.174 78.2023L147.625 78.3081" stroke="#263238" stroke-miterlimit="10" stroke-linecap="round" stroke-linejoin="round"/>
<path d="M139.098 82.6472C139.098 82.6472 141.185 84.5169 144.688 83.1058" stroke="#9E9E9E" stroke-miterlimit="10" stroke-linecap="round" stroke-linejoin="round"/>
<path d="M130.287 70.7941C130.287 70.7941 137.682 73.8985 139.77 74.3571C141.858 74.8157 145.537 74.7451 148.934 74.604C152.331 74.4629 151.27 73.4399 151.128 72.7343C150.987 72.0288 150.88 71.6408 150.88 71.6408C150.88 71.6408 152.19 67.8308 150.243 63.1037C148.297 58.3766 143.874 56.1895 140.053 56.1895C136.232 56.1895 131.738 59.9288 130.783 62.3276C129.863 64.7265 130.075 68.5364 129.933 68.995C129.792 69.4536 128.377 70.3002 128.837 70.4061C129.367 70.4766 130.287 70.7941 130.287 70.7941Z" fill="white" stroke="#263238" stroke-miterlimit="10" stroke-linecap="round" stroke-linejoin="round"/>
<path d="M130.535 70.0886L128.66 71.2528L129.049 73.4399L132.375 71.0058L130.535 70.0886Z" fill="white" stroke="#263238" stroke-miterlimit="10" stroke-linecap="round" stroke-linejoin="round"/>
<path d="M130.995 69.2419L133.33 70.406L133.401 68.3247" stroke="#263238" stroke-miterlimit="10" stroke-linecap="round" stroke-linejoin="round"/>
<path d="M134.569 68.9244L134.639 70.5472C134.639 70.5472 136.904 72.0288 139.699 72.6285C142.495 73.2635 148.864 72.8755 149.359 72.7696C149.819 72.6991 150.208 72.3816 150.208 72.3816" stroke="#263238" stroke-miterlimit="10" stroke-linecap="round" stroke-linejoin="round"/>
<path d="M140.796 56.895C140.796 56.895 142.353 57.6006 143.061 58.9058C143.521 59.7877 143.698 61.481 143.698 61.481C143.698 61.481 141.433 61.9396 141.044 62.5041C140.655 63.0332 141.292 65.6084 141.362 68.1484" stroke="#263238" stroke-miterlimit="10" stroke-linecap="round" stroke-linejoin="round"/>
<path d="M145.785 61.4104C145.785 61.4104 147.201 61.6573 147.59 62.9626C147.979 64.2678 148.05 68.3952 148.05 68.3952" stroke="#263238" stroke-miterlimit="10" stroke-linecap="round" stroke-linejoin="round"/>
<path d="M117.408 88.609C117.408 88.609 115.214 89.1734 114.329 91.3606C113.445 93.5478 107.996 107.941 107.607 112.809C107.217 117.642 110.968 120.711 112.949 120.923C114.931 121.134 116.806 120.817 117.691 119.159C118.575 117.466 119.177 103.566 119.177 103.566C119.177 103.566 119.885 95.1705 119.566 92.9833C119.283 90.7256 118.398 88.8207 117.408 88.609Z" fill="white" stroke="#263238" stroke-miterlimit="10" stroke-linecap="round" stroke-linejoin="round"/>
<path d="M109.093 110.869C109.093 110.869 114.683 107.87 118.54 109.599" stroke="#263238" stroke-miterlimit="10" stroke-linecap="round" stroke-linejoin="round"/>
<path d="M119.035 109.528C119.035 109.528 116.771 110.763 116.24 112.491C115.709 114.22 114.719 116.689 115.108 117.571C115.497 118.453 117.408 119.794 118.823 119.723C120.238 119.688 121.088 119.159 121.548 118.841C122.008 118.524 123.848 116.054 124.131 115.208C124.414 114.361 124.414 114.361 124.414 114.361C124.414 114.361 126.077 115.173 126.572 115.455C127.103 115.737 127.987 115.137 127.881 114.361C127.775 113.62 125.723 112.527 124.661 111.715C123.635 110.904 122.574 110.445 121.158 109.987C119.849 109.528 119.531 109.387 119.035 109.528Z" fill="#455A64" stroke="#263238" stroke-miterlimit="10" stroke-linecap="round" stroke-linejoin="round"/>
<path d="M124.449 114.361C124.449 114.361 121.901 113.55 120.911 113.268C119.92 112.985 119.672 112.95 119.672 112.95" stroke="#263238" stroke-miterlimit="10" stroke-linecap="round" stroke-linejoin="round"/>
<path d="M123.671 116.16C123.671 116.16 122.008 116.266 120.592 115.878C119.177 115.49 117.372 114.608 117.372 114.608" stroke="#263238" stroke-miterlimit="10" stroke-linecap="round" stroke-linejoin="round"/>
<path d="M116.912 117.148C116.912 117.148 118.752 117.889 120.274 118.136C121.795 118.383 122.361 118.101 122.361 118.101" stroke="#263238" stroke-miterlimit="10" stroke-linecap="round" stroke-linejoin="round"/>
<path d="M124.697 111.504C124.697 111.504 124.944 111.539 125.971 111.504C126.997 111.468 127.917 110.939 127.987 111.363C128.094 111.786 127.987 112.244 127.527 112.491C127.067 112.738 126.289 112.738 126.289 112.738L124.343 111.504" fill="#455A64"/>
<path d="M124.697 111.504C124.697 111.504 124.944 111.539 125.971 111.504C126.997 111.468 127.917 110.939 127.987 111.363C128.094 111.786 127.987 112.244 127.527 112.491C127.067 112.738 126.289 112.738 126.289 112.738L124.343 111.504" stroke="#263238" stroke-miterlimit="10" stroke-linecap="round" stroke-linejoin="round"/>
<path d="M102.264 102.014C102.264 102.014 103.856 101.908 104.528 101.626C105.2 101.344 106.085 101.097 105.944 102.296C105.837 103.178 104.67 103.884 103.821 103.884C102.476 103.884 101.485 104.872 101.485 104.872L102.264 102.014Z" fill="#455A64" stroke="#263238" stroke-miterlimit="10" stroke-linecap="round" stroke-linejoin="round"/>
<path d="M92.2148 94.7119C92.2148 94.7119 104.068 97.4282 104.174 98.0279C104.281 98.6277 96.9562 131.647 96.9562 131.647L85.1028 126.92L92.2148 94.7119Z" fill="#969696" stroke="#263238" stroke-miterlimit="10" stroke-linecap="round" stroke-linejoin="round"/>
<path d="M102.158 108.787C102.158 108.787 103.29 108.999 103.254 109.316C103.184 109.74 103.184 110.057 102.724 110.198C102.264 110.34 100.671 110.022 100.53 109.669C100.424 109.316 100.601 108.646 100.813 108.611C101.061 108.54 102.158 108.787 102.158 108.787Z" fill="#455A64" stroke="#263238" stroke-miterlimit="10" stroke-linecap="round" stroke-linejoin="round"/>
<path d="M102.511 107.165C102.511 107.165 103.927 107.412 103.856 107.835C103.785 108.364 103.785 108.752 103.219 108.928C102.653 109.14 100.636 108.717 100.495 108.258C100.353 107.8 100.565 106.988 100.848 106.918C101.167 106.847 102.511 107.165 102.511 107.165Z" fill="#455A64" stroke="#263238" stroke-miterlimit="10" stroke-linecap="round" stroke-linejoin="round"/>
<path d="M103.219 105.612C103.219 105.612 104.634 105.859 104.564 106.283C104.493 106.812 104.493 107.2 103.927 107.376C103.361 107.588 101.344 107.165 101.202 106.706C101.061 106.247 101.273 105.436 101.556 105.366C101.839 105.26 103.219 105.612 103.219 105.612Z" fill="#455A64" stroke="#263238" stroke-miterlimit="10" stroke-linecap="round" stroke-linejoin="round"/>
<path d="M103.502 103.813C103.502 103.813 104.917 104.06 104.847 104.484C104.776 105.013 104.776 105.401 104.21 105.577C103.644 105.789 101.627 105.366 101.485 104.907C101.344 104.448 101.556 103.637 101.839 103.566C102.122 103.496 103.502 103.813 103.502 103.813Z" fill="#455A64" stroke="#263238" stroke-miterlimit="10" stroke-linecap="round" stroke-linejoin="round"/>
<path d="M69.1802 161.668C69.1802 161.668 64.6512 144.629 64.6512 141.066C64.6512 137.503 65.0404 134.963 65.0404 134.963L92.9932 130.342L95.7531 134.187C95.7531 134.187 94.9747 140.29 93.984 146.781C92.9932 153.272 92.604 161.244 92.604 161.244L69.1802 161.668Z" fill="#263238" stroke="#263238" stroke-miterlimit="10" stroke-linecap="round" stroke-linejoin="round"/>
<path d="M73.1432 82.7178C73.1432 82.7178 67.9418 88.0093 66.9865 91.1137C66.0311 94.2181 65.6773 95.6997 64.8281 100.991C63.9435 106.283 63.1651 108.435 63.4482 110.692C63.6958 112.985 65.4296 119.371 65.4296 119.371C65.4296 119.371 65.2527 125.685 64.8281 129.354C64.4035 132.987 63.0943 135.422 63.342 136.445C63.5897 137.468 81.1752 140.431 84.8197 139.902C88.4642 139.373 91.1533 138.526 91.1533 138.526L92.8871 132.882L93.1348 138.702C93.1348 138.702 94.8685 138.103 95.7531 137.75C96.6377 137.397 97.77 136.868 97.77 136.868C97.77 136.868 96.8146 122.299 96.8146 122.052C96.8146 121.805 97.1685 106.459 96.9915 104.448C96.8146 102.438 95.1516 98.3102 93.4178 95.5233C91.6841 92.7364 88.5349 87.7271 87.5088 86.4924C86.4827 85.293 87.0842 85.6105 84.6428 83.635C82.2013 81.6595 76.54 80.5659 73.1432 82.7178Z" fill="#455A64" stroke="#263238" stroke-miterlimit="10" stroke-linecap="round" stroke-linejoin="round"/>
<path d="M96.8854 123.604C95.8947 122.969 94.5147 122.263 93.5594 122.369C91.8964 122.581 81.9183 126.885 74.0986 127.696C69.5695 128.155 66.5973 128.26 64.8989 128.225C64.8635 128.613 64.8281 128.966 64.7927 129.319C64.6512 130.448 64.4389 131.506 64.1912 132.388L64.7927 132.282C64.7927 132.282 75.1601 131.576 79.9014 130.518C84.6428 129.425 93.2409 126.073 93.8424 126.391C94.2317 126.567 95.9301 127.308 97.1331 127.837C97.0623 126.214 96.9562 124.697 96.8854 123.604Z" fill="white" stroke="#263238" stroke-miterlimit="10" stroke-linecap="round" stroke-linejoin="round"/>
<path d="M88.2519 112.915C84.5012 114.114 70.6664 119.3 69.7818 119.406C69.2156 119.476 66.9157 119.124 65.2881 118.877C65.3589 119.194 65.4296 119.371 65.4296 119.371C65.4296 119.371 65.3942 120.923 65.2881 122.934C65.7127 123.11 66.1373 123.251 66.4204 123.357C67.3049 123.639 69.5695 123.251 70.6664 122.757C71.7632 122.263 87.9688 116.548 89.5257 116.266C90.5872 116.055 94.4793 116.443 96.9208 116.725C96.9562 115.208 96.9915 113.55 96.9915 111.927C94.6562 111.962 90.7641 112.139 88.2519 112.915Z" fill="white" stroke="#263238" stroke-miterlimit="10" stroke-linecap="round" stroke-linejoin="round"/>
<path d="M74.877 116.09C74.877 116.09 71.2325 125.332 68.4019 129.319" stroke="#263238" stroke-miterlimit="10" stroke-linecap="round" stroke-linejoin="round"/>
<path d="M78.5215 122.193C78.5215 122.193 72.5417 129.954 68.2603 134.081" stroke="#263238" stroke-miterlimit="10" stroke-linecap="round" stroke-linejoin="round"/>
<path d="M90.6226 97.2518C90.6226 97.2518 92.7809 101.556 93.5948 106.001C94.4086 110.445 93.9132 127.484 93.9132 127.978" stroke="#263238" stroke-miterlimit="10" stroke-linecap="round" stroke-linejoin="round"/>
<path d="M67.1281 114.396C67.1281 114.396 69.6756 116.513 70.2064 116.936C70.7371 117.36 73.2847 115.772 73.2847 115.772" stroke="#263238" stroke-miterlimit="10" stroke-linecap="round" stroke-linejoin="round"/>
<path d="M85.775 84.6227C85.492 84.3758 85.1381 84.0583 84.6428 83.6702C82.5551 81.977 78.1322 80.9186 74.7708 81.9769C76.08 82.5767 78.5922 83.9525 80.5383 86.1749C83.3336 89.3851 89.738 94.7472 89.738 94.7472C89.738 94.7472 87.9334 88.221 85.775 84.6227Z" fill="#263238" stroke="#263238" stroke-miterlimit="10" stroke-linecap="round" stroke-linejoin="round"/>
<path d="M95.9654 68.7128C95.9654 68.7128 96.0716 70.265 96.0362 70.8294C95.9654 71.3586 95.2931 72.2758 95.2931 72.7697C95.2931 73.2635 95.7885 74.8863 96.0716 75.4154C96.39 75.9446 96.85 76.9676 96.6731 77.2851C96.4962 77.6026 94.3024 78.6609 94.3024 78.6609C94.3024 78.6609 92.4271 83.8466 92.0025 84.0936C91.5779 84.3405 89.7026 83.9172 89.0303 83.5997C88.358 83.2822 86.4119 82.4003 86.4119 82.4003C86.4119 82.4003 85.6335 83.7408 85.4566 85.1871C85.2797 86.6335 85.5627 88.4326 85.5627 88.4326C85.5627 88.4326 84.7843 88.5385 81.3167 85.1166C77.8845 81.6947 77.5661 78.7667 77.5661 73.0519C77.5661 67.337 77.6369 66.5962 77.6369 66.5962L95.9654 68.7128Z" fill="white" stroke="#263238" stroke-miterlimit="10" stroke-linecap="round" stroke-linejoin="round"/>
<path d="M86.4827 82.4002L84.6428 81.4125L85.492 84.1994L86.4827 82.4002Z" fill="#263238" stroke="#263238" stroke-miterlimit="10" stroke-linecap="round" stroke-linejoin="round"/>
<path d="M87.6857 68.1836C87.6857 68.1836 87.3319 69.1361 86.5889 69.7006C85.8458 70.2297 85.5628 71.5702 84.7843 72.4874C84.0059 73.4046 83.0152 73.4399 82.5906 72.2405C82.166 71.0411 82.2367 69.7711 80.9629 68.8539C79.6891 67.9367 80.1137 70.1944 79.8307 73.4399C79.5122 76.6854 80.326 82.6119 80.8568 83.4586C81.3875 84.3052 81.8829 84.5874 81.8829 84.5874C81.8829 84.5874 80.0076 86.2807 74.877 85.5046C69.7464 84.7285 69.3572 80.4953 70.2064 77.9554C71.0556 75.4154 72.4002 69.5594 72.4002 68.6775C72.4002 67.7603 72.6478 66.4904 72.6478 66.4904L87.6857 68.1836Z" fill="#263238" stroke="#263238" stroke-miterlimit="10" stroke-linecap="round" stroke-linejoin="round"/>
<path d="M93.0994 78.5197C93.0994 78.5197 91.401 78.2728 90.6226 77.6025C90.6226 77.6025 90.8702 80.213 91.8256 79.9661C92.8163 79.7544 93.0994 78.5197 93.0994 78.5197Z" stroke="#263238" stroke-miterlimit="10" stroke-linecap="round" stroke-linejoin="round"/>
<path d="M93.3471 73.0166C93.2409 73.5105 93.0286 73.8985 92.8871 73.8632C92.7102 73.828 92.6748 73.4046 92.781 72.8755C92.8871 72.3816 93.0994 71.9936 93.2409 72.0288C93.4179 72.0641 93.4532 72.5227 93.3471 73.0166Z" fill="black"/>
<path d="M95.2931 71.6761C95.2931 71.6761 93.9132 70.9 90.7641 71.0764C90.7641 71.0764 90.2333 73.2988 90.4103 74.1455C90.5872 74.9921 91.1887 75.9446 92.8163 75.6624C94.4439 75.3449 95.187 73.0519 95.2931 71.6761Z" stroke="#263238" stroke-miterlimit="10" stroke-linecap="round" stroke-linejoin="round"/>
<path d="M95.2931 71.676C95.2931 71.676 97.0623 71.7819 97.4869 72.1699C97.4869 72.1699 97.2392 74.4629 96.107 75.0626L95.3285 72.7696C95.2931 72.7696 95.0455 72.2052 95.2931 71.676Z" stroke="#263238" stroke-miterlimit="10" stroke-linecap="round" stroke-linejoin="round"/>
<path d="M92.3917 70.5119C92.3917 70.5119 93.7717 69.9122 94.7978 70.7588" stroke="#263238" stroke-miterlimit="10" stroke-linecap="round" stroke-linejoin="round"/>
<path d="M90.7641 71.0764L81.989 70.4767L82.3428 71.0058L90.4102 71.9583L90.7641 71.0764Z" fill="#263238" stroke="#263238" stroke-miterlimit="10" stroke-linecap="round" stroke-linejoin="round"/>
<path d="M91.9672 73.7927L93.4179 74.3219" stroke="#263238" stroke-miterlimit="10" stroke-linecap="round" stroke-linejoin="round"/>
<path d="M71.8341 71.8878L78.6276 67.7956L76.54 67.4429L71.3387 69.2773L71.8341 71.8878Z" fill="white" stroke="#263238" stroke-miterlimit="10" stroke-linecap="round" stroke-linejoin="round"/>
<path d="M71.0909 67.6898C71.0909 67.6898 88.6765 68.9245 91.2594 68.995C94.5501 69.1009 99.716 69.1362 100.601 68.3953C101.45 67.6545 98.513 68.2895 97.5223 67.6545C96.5315 67.0548 96.2131 62.5746 95.4347 59.6114C94.7624 57.1067 91.7902 52.1327 85.2797 52.0621C80.2552 51.9916 73.497 54.7432 72.4001 60.1053C72.1171 61.4811 71.4802 63.8799 71.6217 64.1268C71.6571 64.1974 71.7986 66.1729 71.7632 66.2787L71.0909 67.6898Z" fill="white" stroke="#263238" stroke-miterlimit="10" stroke-linecap="round" stroke-linejoin="round"/>
<path d="M71.0909 67.6898C71.0909 67.6898 71.4802 65.5026 77.1415 65.432C82.8028 65.3262 91.2594 69.0303 91.2594 69.0303C91.2594 69.0303 75.8677 68.995 71.0909 67.6898Z" fill="white" stroke="#263238" stroke-miterlimit="10" stroke-linecap="round" stroke-linejoin="round"/>
<path d="M93.9132 58.165C93.9132 58.165 94.267 59.0822 94.5501 60.5286C94.8331 61.9749 95.6823 67.3018 95.6823 67.3018C95.6823 67.3018 93.4532 68.0779 91.8256 68.1484" stroke="#263238" stroke-miterlimit="10" stroke-linecap="round" stroke-linejoin="round"/>
<path d="M123.564 91.9956C123.564 91.9956 116.063 99.1568 112.136 104.166C108.208 109.211 101.273 119.018 99.0084 123.815C96.7792 128.613 94.0901 139.231 94.0901 139.231C94.0901 139.231 98.0176 144.805 105.413 145.158C112.808 145.511 138.461 141.348 145.997 140.925C153.499 140.466 156.577 139.761 163.689 136.339C171.756 132.458 187.75 109.634 189.802 106.177C191.996 102.473 193.942 96.1583 193.942 96.1583C193.942 96.1583 177.559 103.355 166.874 105.048C155.728 106.812 140.831 103.849 135.347 102.261C129.827 100.709 123.564 91.9956 123.564 91.9956Z" fill="white" stroke="#263238" stroke-miterlimit="10" stroke-linecap="round" stroke-linejoin="round"/>
<path d="M193.906 96.1935C193.906 96.1935 194.048 95.2058 193.517 93.9005C192.986 92.5953 188.599 91.6781 188.599 91.6781C188.599 91.6781 188.67 94.9589 188.351 96.6522C188.033 98.3454 188.033 98.5218 188.033 98.5218L193.906 96.1935Z" fill="white" stroke="#263238" stroke-miterlimit="10" stroke-linecap="round" stroke-linejoin="round"/>
<path d="M83.7582 104.025C83.7582 104.025 82.0244 94.9942 80.4675 92.1368C78.9106 89.2794 73.2139 88.6444 71.5863 91.0079C70.7017 92.3132 70.3833 94.9237 69.6756 98.3808C68.9679 101.838 70.3833 113.62 71.2325 113.726C72.117 113.797 74.7 111.715 74.7 111.715C74.7 111.715 76.0092 114.996 76.7876 115.525C77.5661 116.055 89.1364 119.935 93.5593 120.394C93.5593 120.394 96.9561 121.276 97.2038 120.746C97.4515 120.217 99.4684 114.326 99.4684 114.326L93.9839 112.174L84.6781 106.106L83.7582 104.025Z" fill="#263238" stroke="#263238" stroke-miterlimit="10" stroke-linecap="round" stroke-linejoin="round"/>
<path d="M74.7354 111.751C74.7354 111.751 71.1617 103.531 70.7371 99.0157" stroke="#9E9E9E" stroke-miterlimit="10" stroke-linecap="round" stroke-linejoin="round"/>
<path d="M100.636 113.127C100.636 113.127 98.6192 114.255 97.8407 115.279C97.0623 116.302 96.1069 118.665 96.4608 119.794C96.8146 120.923 98.1946 121.346 98.9022 121.099C99.6099 120.852 100.813 120.746 100.813 120.746C100.813 120.746 101.591 121.452 102.122 120.993C102.653 120.57 106.05 116.478 106.12 116.231C106.191 115.984 107.5 114.749 107.677 114.079C107.854 113.374 105.837 111.469 105.342 111.116C104.811 110.763 103.007 111.116 102.228 111.186C101.414 111.327 100.636 112.174 100.636 113.127Z" fill="#455A64" stroke="#263238" stroke-miterlimit="10" stroke-linecap="round" stroke-linejoin="round"/>
<path d="M101.733 113.55L106.12 116.266" stroke="#263238" stroke-miterlimit="10" stroke-linecap="round" stroke-linejoin="round"/>
<path d="M103.927 113.091L105.024 115.49" stroke="#263238" stroke-miterlimit="10" stroke-linecap="round" stroke-linejoin="round"/>
<path d="M100.105 114.114C100.105 114.114 99.8222 114.15 99.8576 114.714C99.8929 115.243 100.459 115.455 100.459 115.455L104.599 117.818" stroke="#263238" stroke-miterlimit="10" stroke-linecap="round" stroke-linejoin="round"/>
<path d="M99.9637 115.314C99.9637 115.314 98.7961 116.584 98.8669 116.972C98.973 117.36 103.148 119.406 103.148 119.406" stroke="#263238" stroke-miterlimit="10" stroke-linecap="round" stroke-linejoin="round"/>
<path d="M100.813 120.782C100.813 120.782 98.3715 119.441 98.053 118.806C97.6992 118.171 98.513 117.43 98.513 117.43" stroke="#263238" stroke-miterlimit="10" stroke-linecap="round" stroke-linejoin="round"/>
</g>
<defs>
<clipPath id="clip0_63_6662">
<rect width="168" height="157.97" fill="white" transform="translate(35 4.01489)"/>
</clipPath>
</defs>
</svg>
