<svg width="224" height="173" viewBox="0 0 224 173" fill="none" xmlns="http://www.w3.org/2000/svg">
<path d="M224 109.245C185.5 234.739 164.999 136.254 102.488 136.254C39.9767 136.254 0 110.321 0 54.5298C15 -35.8265 39.9767 13.3674 102.488 13.3674C164.999 13.3674 224 53.4541 224 109.245Z" fill="#252525"/>
<g clip-path="url(#clip0_63_5264)">
<path d="M173.172 1.31964H135.542V28.461H173.172V1.31964Z" fill="#455A64"/>
<path d="M169.604 4.88446H139.07V24.9367H169.604V4.88446Z" fill="white"/>
<path d="M169.604 4.88446H139.07V24.9367H169.604V4.88446Z" fill="white"/>
<path d="M169.604 4.88446H139.07V24.9367H169.604V4.88446Z" fill="white"/>
<g opacity="0.2">
<path d="M156.628 4.88446L139.07 22.3846V16.1056L150.343 4.88446H156.628Z" fill="#455A64"/>
<path d="M169.644 12.1357V14.2017L158.899 24.9367H156.831L169.644 12.1357Z" fill="#455A64"/>
<path d="M145.476 4.88446L139.07 11.2445V10.5558L144.787 4.88446H145.476Z" fill="#455A64"/>
<path d="M169.644 18.6577V19.3464L164.049 24.9367H163.359L169.644 18.6577Z" fill="#455A64"/>
<path d="M169.442 4.88446L149.369 24.9367H148.68L168.752 4.88446H169.442Z" fill="#455A64"/>
</g>
<path d="M123.782 1.31964H86.1514V28.461H123.782V1.31964Z" fill="#455A64"/>
<path d="M120.254 4.88446H89.7198V24.9367H120.254V4.88446Z" fill="white"/>
<path d="M120.254 4.88446H89.7198V24.9367H120.254V4.88446Z" fill="white"/>
<g opacity="0.2">
<path d="M120.254 7.43658V13.7561L109.062 24.9367H102.736L120.254 7.43658Z" fill="#455A64"/>
<path d="M103.994 4.88446L89.7198 19.1438V17.0373L101.885 4.88446H103.994Z" fill="#455A64"/>
<path d="M95.2346 4.88446L89.7198 10.3938V9.7051L94.5453 4.88446H95.2346Z" fill="#455A64"/>
<path d="M120.254 17.807V18.4957L113.807 24.9367H113.117L120.254 17.807Z" fill="#455A64"/>
<path d="M108.332 4.88446L89.7198 23.4783V22.7897L107.643 4.88446H108.332Z" fill="#455A64"/>
</g>
<path d="M74.3918 1.31964H36.761V28.461H74.3918V1.31964Z" fill="#455A64"/>
<path d="M70.8639 4.88446H40.3295V24.9367H70.8639V4.88446Z" fill="white"/>
<g opacity="0.2">
<path d="M62.3888 4.88446L42.3164 24.9367H40.3295V20.6022L56.063 4.88446H62.3888Z" fill="#455A64"/>
<path d="M70.8638 14.1611V20.4806L66.4033 24.9367H60.0775L70.8638 14.1611Z" fill="#455A64"/>
<path d="M44.2628 4.88446L40.3295 8.81389V6.7479L42.1948 4.88446H44.2628Z" fill="#455A64"/>
<path d="M70.8639 7.03149V7.72016L53.63 24.9367H52.9406L70.8639 7.03149Z" fill="#455A64"/>
<path d="M53.9949 4.88446L40.3295 18.5362V17.807L53.265 4.88446H53.9949Z" fill="#455A64"/>
</g>
<path d="M145.76 139.255H105.778V165.181H145.76V139.255Z" fill="#455A64"/>
<path opacity="0.7" d="M145.76 139.255H105.778V165.181H145.76V139.255Z" fill="white"/>
<g opacity="0.3">
<path d="M145.801 155.094V159.955L141.056 165.221H136.677L145.801 155.094Z" fill="white"/>
<path d="M134.933 139.255L111.576 165.221H109.346L132.744 139.255H134.933Z" fill="white"/>
<path d="M116.888 139.255L105.778 151.57V150.962L116.361 139.255H116.888Z" fill="white"/>
<path d="M145.801 143.711V144.318L126.945 165.221H126.418L145.801 143.711Z" fill="white"/>
</g>
<path d="M145.76 112.478H105.778V138.404H145.76V112.478Z" fill="#455A64"/>
<path opacity="0.7" d="M145.76 112.478H105.778V138.404H145.76V112.478Z" fill="white"/>
<g opacity="0.3">
<path d="M141.624 112.478L118.227 138.404H113.847L137.204 112.478H141.624Z" fill="white"/>
<path d="M145.801 128.277V133.178L141.056 138.404H136.677L145.801 128.277Z" fill="white"/>
<path d="M112.671 112.478L105.778 120.134V115.233L108.292 112.478H112.671Z" fill="white"/>
<path d="M116.888 112.478L105.778 124.793V124.185L116.361 112.478H116.888Z" fill="white"/>
<path d="M145.801 116.934V117.501L126.945 138.404H126.418L145.801 116.934Z" fill="white"/>
</g>
<path d="M145.76 85.701H105.778V111.627H145.76V85.701Z" fill="#455A64"/>
<path opacity="0.7" d="M145.76 85.701H105.778V111.627H145.76V85.701Z" fill="white"/>
<g opacity="0.3">
<path d="M134.325 85.701L110.968 111.627H106.548L129.905 85.701H134.325Z" fill="white"/>
<path d="M145.801 101.5V106.401L141.056 111.627H136.677L145.801 101.5Z" fill="white"/>
<path d="M112.671 85.701L105.778 93.3168V88.4557L108.292 85.701H112.671Z" fill="white"/>
<path d="M116.888 85.701L105.778 97.9754V97.4083L116.361 85.701H116.888Z" fill="white"/>
<path d="M145.801 90.1166V90.7242L126.945 111.627H126.418L145.801 90.1166Z" fill="white"/>
</g>
<path d="M186.554 139.255H146.571V165.181H186.554V139.255Z" fill="#455A64"/>
<path opacity="0.7" d="M186.554 139.255H146.571V165.181H186.554V139.255Z" fill="white"/>
<g opacity="0.3">
<path d="M174.997 139.255L151.64 165.221H147.22L170.577 139.255H174.997Z" fill="white"/>
<path d="M153.424 139.255L146.571 146.911V142.009L149.045 139.255H153.424Z" fill="white"/>
<path d="M157.642 139.255L146.571 151.57V151.002L157.114 139.255H157.642Z" fill="white"/>
<path d="M186.554 143.711V144.318L167.739 165.221H167.171L186.554 143.711Z" fill="white"/>
</g>
<path d="M186.554 112.478H146.571V138.404H186.554V112.478Z" fill="#455A64"/>
<path opacity="0.7" d="M186.554 112.478H146.571V138.404H186.554V112.478Z" fill="white"/>
<g opacity="0.3">
<path d="M186.27 112.478L162.913 138.404H158.493L181.85 112.478H186.27Z" fill="white"/>
<path d="M186.554 128.317V133.178L181.85 138.404H177.43L186.554 128.317Z" fill="white"/>
<path d="M172.807 112.478L149.41 138.404H147.22L170.618 112.478H172.807Z" fill="white"/>
<path d="M157.642 112.478L146.571 124.793V124.185L157.114 112.478H157.642Z" fill="white"/>
</g>
<path d="M186.554 85.701H146.571V111.627H186.554V85.701Z" fill="#455A64"/>
<path opacity="0.7" d="M186.554 85.701H146.571V111.627H186.554V85.701Z" fill="white"/>
<g opacity="0.3">
<path d="M182.377 85.701L159.02 111.627H154.6L177.957 85.701H182.377Z" fill="white"/>
<path d="M186.554 101.5V106.401L181.85 111.627H177.43L186.554 101.5Z" fill="white"/>
<path d="M153.424 85.701L146.571 93.3168V88.4557L149.045 85.701H153.424Z" fill="white"/>
<path d="M157.642 85.701L146.571 97.9754V97.4083L157.114 85.701H157.642Z" fill="white"/>
</g>
<path d="M186.554 58.8837H146.571V84.8098H186.554V58.8837Z" fill="#455A64"/>
<path opacity="0.7" d="M186.554 58.8837H146.571V84.8098H186.554V58.8837Z" fill="white"/>
<g opacity="0.3">
<path d="M186.554 74.723V79.5841L181.85 84.8504H177.43L186.554 74.723Z" fill="white"/>
<path d="M153.424 58.8837L146.571 66.54V61.6384L149.045 58.8837H153.424Z" fill="white"/>
<path d="M175.686 58.8837L152.329 84.8504H150.14L173.497 58.8837H175.686Z" fill="white"/>
<path d="M186.554 63.3398V63.9069L167.739 84.8504H167.171L186.554 63.3398Z" fill="white"/>
</g>
<path d="M186.554 32.1069H146.571V58.033H186.554V32.1069Z" fill="#455A64"/>
<path opacity="0.7" d="M186.554 32.1069H146.571V58.033H186.554V32.1069Z" fill="white"/>
<g opacity="0.3">
<path d="M182.377 32.1069L159.02 58.033H154.6L177.957 32.1069H182.377Z" fill="white"/>
<path d="M186.554 47.9056V52.8073L181.85 58.033H177.43L186.554 47.9056Z" fill="white"/>
<path d="M153.424 32.1069L146.571 39.7227V34.8616L149.045 32.1069H153.424Z" fill="white"/>
<path d="M175.686 32.1069L152.329 58.033H150.14L173.497 32.1069H175.686Z" fill="white"/>
<path d="M157.642 32.1069L146.571 44.3813V43.8142L157.114 32.1069H157.642Z" fill="white"/>
<path d="M186.554 36.5225V37.1301L167.739 58.033H167.171L186.554 36.5225Z" fill="white"/>
</g>
<path d="M105.818 138.404H105.048V139.255H105.818V138.404Z" fill="#263238"/>
<path d="M22.9334 165.262C75.4866 165.019 134.406 165.019 186.959 165.262C134.447 165.505 75.4866 165.505 22.9334 165.262Z" fill="#263238"/>
<path d="M156.668 165.262H132.906L131.527 136.054H158.047L156.668 165.262Z" fill="#C7C7C7"/>
<path opacity="0.3" d="M139.232 165.262H135.826L134.325 136.054H137.731L139.232 165.262Z" fill="white"/>
<path opacity="0.3" d="M141.624 165.262H140.651L139.151 136.054H140.124L141.624 165.262Z" fill="white"/>
<path d="M158.412 139.457H131.203V139.862H158.412V139.457Z" fill="#C7C7C7"/>
<path d="M158.412 140.429H131.203V140.835H158.412V140.429Z" fill="#C7C7C7"/>
<path d="M158.412 141.402H131.203V141.807H158.412V141.402Z" fill="#C7C7C7"/>
<g opacity="0.1">
<path d="M158.412 139.457H131.203V139.862H158.412V139.457Z" fill="black"/>
<path d="M158.412 140.429H131.203V140.835H158.412V140.429Z" fill="black"/>
<path d="M158.412 141.402H131.203V141.807H158.412V141.402Z" fill="black"/>
</g>
<path d="M157.56 159.469H131.973V159.874H157.56V159.469Z" fill="#C7C7C7"/>
<path d="M157.56 160.441H131.973V160.846H157.56V160.441Z" fill="#C7C7C7"/>
<path d="M157.56 161.454H131.973V161.859H157.56V161.454Z" fill="#C7C7C7"/>
<g opacity="0.1">
<path d="M157.56 159.469H131.973V159.874H157.56V159.469Z" fill="black"/>
<path d="M157.56 160.441H131.973V160.846H157.56V160.441Z" fill="black"/>
<path d="M157.56 161.454H131.973V161.859H157.56V161.454Z" fill="black"/>
</g>
<path d="M150.261 148.41C145.436 148.41 141.016 145.088 138.218 142.293C135.177 139.295 133.23 136.216 133.19 136.216L133.636 135.933C133.717 136.054 141.34 147.883 150.302 147.883C152.573 147.883 154.276 147.113 155.411 145.655C158.006 142.293 156.831 136.216 156.831 136.135L157.317 136.014C157.358 136.257 158.574 142.414 155.817 145.979C154.519 147.559 152.654 148.41 150.261 148.41Z" fill="#263238"/>
<path d="M135.177 165.626C136.393 165.262 135.42 161.737 134.122 160.644C133.717 160.279 132.135 159.428 130.189 158.416C125.85 156.188 119.646 153.19 119.646 153.19L125.647 130.626L103.75 130.14C103.75 130.14 97.181 151.286 97.181 152.623C97.181 152.704 97.181 152.785 97.181 152.866C97.181 158.902 97.3432 163.844 97.8298 164.168C99.1679 165.019 133.96 165.991 135.177 165.626Z" fill="#EB9481"/>
<path d="M135.177 165.626C133.96 165.991 99.1274 165.019 97.8298 164.168C97.3432 163.844 97.181 158.902 97.181 152.866C97.181 152.785 97.181 152.704 97.181 152.623C97.181 152.339 97.4648 151.164 97.9514 149.463L120.457 150.111L119.646 153.23C119.646 153.23 125.85 156.228 130.189 158.456C132.135 159.469 133.717 160.32 134.122 160.684C135.42 161.737 136.393 165.262 135.177 165.626Z" fill="#EBEBEB"/>
<path d="M135.582 165.829C134.325 166.194 98.8841 165.181 97.5865 164.29C97.0593 163.965 96.9377 158.78 96.9377 152.542C96.9377 152.461 96.9377 152.42 96.9377 152.339L119.808 152.744V153.149C119.808 153.149 133.19 159.59 134.528 160.725C135.825 161.859 136.799 165.464 135.582 165.829Z" fill="#455A64"/>
<path d="M135.217 164.452C129.256 164.128 105.129 163.398 99.2085 163.52C99.168 163.52 99.168 163.56 99.2085 163.56C105.129 164.006 129.216 164.533 135.217 164.533C135.339 164.533 135.339 164.452 135.217 164.452Z" fill="#263238"/>
<path d="M122.322 152.866C119.97 152.339 117.091 152.623 115.266 154.243C115.185 154.324 115.266 154.405 115.348 154.365C117.699 153.717 119.849 153.311 122.282 153.149C122.444 153.149 122.484 152.906 122.322 152.866Z" fill="#263238"/>
<path d="M123.985 153.96C121.633 153.433 118.754 153.717 116.929 155.337C116.848 155.418 116.929 155.499 117.01 155.458C119.362 154.81 121.511 154.405 123.944 154.243C124.147 154.243 124.147 154 123.985 153.96Z" fill="#263238"/>
<path d="M125.647 155.013C123.295 154.486 120.416 154.77 118.592 156.39C118.51 156.471 118.592 156.552 118.673 156.512C121.025 155.864 123.174 155.458 125.607 155.296C125.81 155.296 125.81 155.053 125.647 155.013Z" fill="#263238"/>
<path d="M125.526 147.843C124.634 146.546 122.89 147.073 121.917 147.843C120.295 149.139 118.835 151.164 118.146 153.109C118.146 153.149 118.146 153.19 118.186 153.19C118.186 153.352 118.348 153.555 118.551 153.514C120.497 152.866 122.687 152.38 124.39 151.164C125.363 150.435 126.337 149.098 125.526 147.843ZM121.308 151.934C120.335 152.299 119.403 152.582 118.429 152.947C119.159 151.934 119.849 150.881 120.7 149.909C121.106 149.463 121.511 148.977 121.998 148.612C122.728 148.005 125.526 146.708 125.039 149.301C124.755 150.719 122.444 151.489 121.308 151.934Z" fill="#263238"/>
<path d="M112.144 152.339C114.05 153.23 116.28 153.23 118.348 153.514C118.551 153.555 118.673 153.311 118.632 153.149C118.673 153.149 118.713 153.109 118.673 153.068C117.618 151.286 115.794 149.585 113.928 148.653C112.793 148.086 110.968 147.924 110.36 149.342C109.792 150.719 111.049 151.853 112.144 152.339ZM111.13 150.638C110.157 148.207 113.158 148.896 113.969 149.382C114.496 149.666 115.023 150.03 115.469 150.395C116.483 151.164 117.375 152.056 118.308 152.906C117.294 152.704 116.28 152.623 115.307 152.461C114.131 152.299 111.698 151.975 111.13 150.638Z" fill="#263238"/>
<path d="M72.9319 115.03C72.9319 115.03 68.593 129.087 75.3244 133.502C79.8255 136.419 100.101 133.138 101.033 130.667C102.777 126.008 102.858 124.266 102.858 124.266L96.9783 149.098L122.403 150.111C122.403 150.111 127.756 129.573 127.148 107.617C126.904 99.5148 116.077 96.7196 108.373 100.568C100.912 104.254 87.4084 114.746 87.4084 114.746L72.9319 115.03Z" fill="#455A64"/>
<path d="M99.5329 134.475C100.993 131.153 100.912 129.856 104.642 119.527C105.129 118.149 105.575 116.731 106.021 115.354C106.467 113.896 107.035 112.478 107.4 110.979C107.4 110.898 107.521 110.939 107.521 111.02C107.075 112.275 106.791 113.612 106.426 114.908C106.061 116.164 105.697 117.42 105.291 118.676C105.129 119.202 104.926 119.77 104.764 120.296C104.845 120.175 104.926 120.094 104.967 119.972C105.291 119.486 105.575 118.959 105.94 118.473C106.629 117.461 107.4 116.488 108.008 115.435C108.048 115.354 108.13 115.435 108.089 115.476C107.4 116.488 106.913 117.623 106.305 118.676C105.98 119.202 105.656 119.689 105.332 120.175C105.048 120.62 104.764 121.106 104.399 121.512C103.872 123.091 102.777 126.94 102.25 128.52C100.547 133.502 101.114 131.882 99.8573 134.556C99.7356 134.718 99.4923 134.637 99.5329 134.475Z" fill="#263238"/>
<path d="M110.846 145.291C107.035 145.129 103.182 144.804 99.3707 144.642C99.2896 144.642 99.2896 144.521 99.3707 144.521C103.182 144.602 106.994 144.561 110.806 144.723C114.618 144.886 118.429 145.169 122.282 145.412C122.363 145.412 122.403 145.574 122.282 145.574C118.47 145.493 114.658 145.453 110.846 145.291Z" fill="#263238"/>
<path d="M101.479 143.751C101.885 142.09 102.412 140.43 102.899 138.769C103.385 137.108 103.872 135.447 104.399 133.826C105.413 130.505 106.467 127.223 107.521 123.942C108.13 122.079 108.778 120.215 109.387 118.352C109.387 118.311 109.468 118.311 109.468 118.392C107.562 125.036 105.534 131.639 103.426 138.201C102.817 140.065 102.25 141.969 101.56 143.792C101.52 143.832 101.479 143.792 101.479 143.751Z" fill="#263238"/>
<path opacity="0.1" d="M75.3649 133.462C68.6336 129.087 72.9724 115.03 72.9724 115.03L85.1781 114.787L101.398 129.856C101.317 130.1 101.195 130.383 101.114 130.667C100.141 133.097 79.8254 136.379 75.3649 133.462Z" fill="#000102"/>
<path opacity="0.1" d="M122.566 149.504C122.484 149.868 122.403 150.071 122.403 150.071L96.9783 149.058L101.52 129.938L122.566 149.504Z" fill="#000102"/>
<path d="M19.3649 165.991C19.0811 167.247 22.6495 168.057 24.2715 167.449C24.7987 167.247 26.299 166.275 28.1238 165.059C32.1788 162.345 37.7748 158.335 37.7748 158.335L56.4279 159.996L67.3765 141.078C67.3765 141.078 50.2237 139.619 49.0478 138.971C48.9667 138.931 48.8856 138.89 48.845 138.85C43.5329 135.973 39.1535 133.745 38.6263 133.988C37.2476 134.758 19.6488 164.735 19.3649 165.991Z" fill="#EB9481"/>
<path d="M52.3729 139.579L41.9921 158.74L37.8154 158.375C37.8154 158.375 32.1789 162.386 28.1644 165.1C26.3396 166.315 24.8393 167.287 24.3121 167.49C22.6901 168.097 19.1622 167.247 19.4055 166.031C19.6894 164.776 37.2882 134.799 38.6669 134.069C39.1941 133.786 43.6141 136.054 48.8856 138.931C48.9667 138.971 49.0478 139.012 49.0884 139.052C49.3722 139.174 50.6293 139.376 52.3729 139.579Z" fill="#EBEBEB"/>
<path d="M19 166.234C19.2838 164.938 37.2476 134.434 38.6669 133.705C39.1941 133.421 43.8168 135.771 49.2911 138.769C49.3316 138.809 49.4127 138.85 49.4533 138.85L38.0587 158.659L37.7342 158.456C37.7342 158.456 25.6097 167.085 23.9877 167.692C22.3657 168.381 18.7567 167.53 19 166.234Z" fill="#455A64"/>
<path d="M20.4192 166.599C23.5822 161.535 35.8284 140.794 38.5452 135.528C38.5858 135.487 38.5452 135.487 38.5047 135.528C35.2607 140.47 23.1767 161.332 20.2976 166.558C20.257 166.639 20.3381 166.72 20.4192 166.599Z" fill="#263238"/>
<path d="M36.761 160.887C38.3425 159.104 39.4779 156.431 38.9507 154.041C38.9102 153.96 38.7885 153.96 38.7885 154.041C38.2614 156.39 37.5315 158.497 36.5177 160.725C36.4366 160.887 36.6394 161.008 36.761 160.887Z" fill="#263238"/>
<path d="M35.0174 161.819C36.5988 160.036 37.7342 157.362 37.2071 154.972C37.1665 154.891 37.0449 154.891 37.0449 154.972C36.5177 157.322 35.7878 159.428 34.7741 161.656C34.693 161.819 34.8957 161.94 35.0174 161.819Z" fill="#263238"/>
<path d="M33.2737 162.75C34.8552 160.968 35.9906 158.294 35.4634 155.904C35.4229 155.823 35.3012 155.823 35.3012 155.904C34.7741 158.254 34.0442 160.36 33.0304 162.588C32.9493 162.75 33.1521 162.872 33.2737 162.75Z" fill="#263238"/>
<path d="M39.6401 166.113C41.2216 165.951 41.5865 164.209 41.3838 162.912C41.0188 160.887 39.9645 158.618 38.5858 157.079C38.5452 157.038 38.5047 157.038 38.5047 157.079C38.3425 156.998 38.0992 157.038 38.0586 157.241C37.6937 159.266 37.0449 161.413 37.3287 163.479C37.4098 164.735 38.1397 166.234 39.6401 166.113ZM38.0992 160.441C38.2614 159.428 38.4641 158.456 38.5858 157.444C39.1129 158.578 39.7212 159.712 40.1673 160.887C40.37 161.454 40.5728 162.062 40.6944 162.629C40.8972 163.56 40.6539 166.639 38.6263 164.978C37.4909 164.047 37.8964 161.656 38.0992 160.441Z" fill="#263238"/>
<path d="M42.1137 152.218C40.4106 153.474 39.3157 155.418 38.0992 157.079C37.9775 157.241 38.0992 157.444 38.3019 157.525C38.3019 157.565 38.3019 157.606 38.383 157.606C40.4511 157.525 42.8436 156.755 44.5467 155.58C45.601 154.851 46.6148 153.352 45.6416 152.137C44.7089 150.962 43.0869 151.489 42.1137 152.218ZM44.1006 152.177C46.6959 152.461 44.6278 154.77 43.8573 155.256C43.3302 155.58 42.7625 155.823 42.2353 156.107C41.0594 156.633 39.8429 156.957 38.6669 157.362C39.3157 156.593 39.8834 155.742 40.4917 154.932C41.2216 153.96 42.6408 152.015 44.1006 152.177Z" fill="#263238"/>
<path d="M89.152 111.992C89.152 111.992 89.6386 117.906 89.4359 122.403C89.4359 122.403 113.239 135.73 114.009 147.802C114.293 152.056 113.482 160.036 105.007 163.439C95.559 167.247 44.0195 162.993 44.0195 162.993L51.1158 139.417L73.8646 140.065C73.8646 140.065 57.7255 142.171 56.2657 131.436C54.9276 121.471 61.3345 111.222 61.3345 111.222L89.152 111.992Z" fill="#455A64"/>
<path d="M49.3722 161.981C50.021 159.266 50.6293 156.512 51.3592 153.838C52.0891 151.124 52.819 148.45 53.63 145.736C53.8733 144.967 54.076 144.237 54.3193 143.468C54.441 143.103 54.5221 142.738 54.6437 142.374C54.7654 142.009 54.8465 141.645 55.0087 141.28C55.0087 141.24 55.0492 141.28 55.0492 141.321C54.9681 142.009 54.7654 142.738 54.5626 143.427C54.4004 144.075 54.2382 144.723 54.076 145.412C53.7516 146.749 53.3867 148.126 53.0623 149.463C52.3729 152.177 51.6025 154.81 50.832 157.484C50.3859 158.983 49.9399 160.522 49.4938 162.021C49.4938 162.102 49.3722 162.062 49.3722 161.981Z" fill="#263238"/>
<path d="M66.0384 139.862C67.9037 139.781 69.7285 139.781 71.5938 139.781C73.4591 139.781 75.2839 139.862 77.1492 139.943C79.0145 140.065 80.8393 140.186 82.664 140.389C84.4888 140.591 86.3541 140.875 88.1383 141.321L86.7596 141.118L85.3809 140.956C84.4482 140.835 83.5561 140.753 82.6235 140.672C80.7987 140.51 78.9334 140.389 77.1086 140.308C75.2839 140.186 73.4185 140.146 71.5938 140.065L66.0384 139.862Z" fill="#263238"/>
<path d="M66.4033 113.288C65.5112 115.395 64.7408 117.501 64.092 119.689C63.4432 121.876 62.8754 124.064 62.5916 126.292C62.4294 127.426 62.3888 128.56 62.4294 129.654C62.4699 130.788 62.6727 131.882 63.1593 132.895C63.4026 133.381 63.727 133.826 64.092 134.191C64.4975 134.556 64.9435 134.88 65.4301 135.163C66.4033 135.73 67.4171 136.135 68.5119 136.5C70.6611 137.189 72.8914 137.553 75.1216 137.877C77.3519 138.201 79.6227 138.444 81.8936 138.728C84.1644 139.012 86.4352 139.376 88.6249 139.984C89.7198 140.308 90.8552 140.672 91.8284 141.28C92.8421 141.888 93.7342 142.576 94.5858 143.346L95.0724 143.832L94.383 143.792L75.9732 143.022L66.7683 142.698C63.6865 142.617 60.6452 142.495 57.5634 142.495C60.6452 142.414 63.6865 142.455 66.7683 142.455C69.8501 142.495 72.8914 142.576 75.9732 142.657L85.1781 142.941L94.383 143.306L94.1803 143.751C93.3693 142.982 92.4772 142.333 91.504 141.766C90.5308 141.199 89.4765 140.835 88.4222 140.551C86.2324 139.984 84.0022 139.66 81.7719 139.336C79.5416 139.012 77.2708 138.769 75 138.444C72.7292 138.12 70.4989 137.715 68.3092 136.986C67.2143 136.622 66.16 136.176 65.1463 135.568C64.6597 135.244 64.1731 134.92 63.7676 134.515C63.3621 134.11 62.9971 133.583 62.7538 133.057C62.2672 132.003 62.0644 130.829 62.0239 129.654C61.9833 128.52 62.0644 127.345 62.2266 126.211C62.551 123.942 63.1593 121.755 63.8892 119.567C64.6191 117.501 65.4301 115.354 66.4033 113.288Z" fill="#263238"/>
<path d="M86.5163 111.668C86.5163 111.627 86.5974 111.627 86.5974 111.668C86.6785 112.478 86.8407 117.177 86.9218 118.959C86.9623 119.607 86.8812 120.701 87.8139 120.742C88.5438 120.742 88.9088 119.972 89.0304 119.364C89.1521 118.635 88.9088 113.166 88.8682 111.344C88.8682 111.303 88.9493 111.303 88.9493 111.344C89.2332 113.166 89.7198 118.959 89.517 119.77C89.3548 120.418 88.9899 120.985 88.3411 121.187C88.3411 121.187 88.4222 122.038 88.26 123.334C88.26 123.375 88.0572 123.415 88.0572 123.375C88.0978 122.97 87.9355 121.309 87.9355 121.268C87.4489 121.268 87.084 121.147 86.7596 120.701C86.1108 119.851 86.4352 113.774 86.5163 111.668Z" fill="#263238"/>
<path d="M83.5156 125.522C84.2049 125.076 84.8943 124.712 85.5836 124.307C86.273 123.902 87.0029 123.537 87.6922 123.213C88.4221 122.848 89.1115 122.524 89.882 122.2C90.6119 121.876 91.3418 121.592 92.1122 121.349C91.7473 121.552 91.4229 121.714 91.0579 121.917L90.0036 122.484C89.3143 122.848 88.5843 123.213 87.895 123.577C87.1651 123.942 86.4757 124.266 85.7458 124.59L84.651 125.076C84.2455 125.198 83.8805 125.36 83.5156 125.522Z" fill="#263238"/>
<path d="M66.4844 121.268C67.782 121.309 71.7559 121.633 73.7024 120.094C75.2838 118.838 76.0948 114.422 76.3787 113.207C76.3787 113.167 76.5003 113.167 76.5003 113.207C76.5003 114.584 76.257 115.962 75.8515 117.258C75.5271 118.392 75.0405 119.608 74.1079 120.377C73.1347 121.187 71.837 121.43 70.58 121.552C69.2013 121.674 67.8226 121.592 66.4439 121.39C66.3628 121.39 66.3628 121.268 66.4844 121.268Z" fill="#263238"/>
<path d="M83.3533 84.3237C91.2606 91.6155 99.3302 97.1653 102.371 97.4083C106.224 97.7324 121.633 90.3192 122.444 89.833C123.741 89.0228 117.821 75.8572 116.605 76.5054C112.833 78.4499 102.534 84.4453 101.398 84.3237C100.222 84.2022 96.4105 82.2983 86.8407 79.4626C80.2715 77.4776 78.3251 79.6246 83.3533 84.3237Z" fill="#EB9481"/>
<path d="M120.619 90.7648C122.201 90.3192 129.986 87.524 131.77 86.3087C133.555 85.0934 138.38 81.2855 137.61 79.8677C136.839 78.4093 135.339 79.4221 135.339 79.4221C135.339 79.4221 137.123 77.4776 136.231 76.1003C135.298 74.723 133.027 76.3434 133.027 76.3434C133.027 76.3434 134.731 74.2369 133.717 72.9C132.703 71.5632 130.676 73.6292 130.676 73.6292C130.676 73.6292 132.338 71.7658 131.04 71.0366C129.5 70.1454 126.864 73.9533 124.796 75.1281C124.309 75.4116 114.942 79.8677 114.942 79.8677L120.619 90.7648Z" fill="#EB9481"/>
<path d="M130.797 73.4672C128.851 76.2623 127.513 77.113 124.431 78.4093C124.39 78.4498 124.39 78.5309 124.471 78.4904C127.594 77.5181 129.419 76.6269 130.959 73.5482C131 73.3861 130.878 73.3051 130.797 73.4672Z" fill="#263238"/>
<path d="M133.149 76.1408C130.878 78.8549 129.419 79.8272 126.296 81.407C126.256 81.4475 126.296 81.4881 126.337 81.4881C129.54 80.1917 131.324 79.3005 133.271 76.2623C133.352 76.1408 133.23 76.0193 133.149 76.1408Z" fill="#263238"/>
<path d="M135.177 79.5031C132.784 81.9742 131.243 83.1085 127.999 84.2427C127.918 84.2832 127.959 84.3643 128.04 84.3643C131.446 83.5136 133.392 82.1362 135.217 79.5841C135.339 79.4221 135.298 79.3411 135.177 79.5031Z" fill="#263238"/>
<path d="M112.225 79.2196C112.225 79.2196 114.455 75.6142 115.794 74.2369C117.132 72.8596 123.985 69.5783 124.796 71.0366C125.81 72.9001 122.241 75.5737 120.295 76.6269C120.295 76.6269 122.647 80.921 120.497 83.392C118.348 85.8631 112.225 79.2196 112.225 79.2196Z" fill="#EB9481"/>
<path d="M124.917 71.6038C124.634 73.9533 121.998 75.2091 120.214 76.4244C120.092 76.5054 120.092 76.6675 120.173 76.7485C121.065 78.6119 121.714 81.4881 120.66 83.392C120.619 83.4326 120.7 83.5136 120.741 83.4325C122.201 81.5691 121.754 78.6929 120.66 76.708C122.484 75.5332 125.08 74.1559 124.917 71.6038Z" fill="#263238"/>
<path d="M111.82 78.4904L119.605 92.7903C119.605 92.7903 106.426 98.7857 102.331 98.2185C98.2759 97.6514 88.6654 89.9951 83.029 84.6073C77.4736 79.3006 80.1499 77.4777 85.8675 78.936C91.5851 80.3943 100.993 83.8377 101.52 83.7161C102.088 83.5946 111.82 78.4904 111.82 78.4904Z" fill="#455A64"/>
<path d="M113.077 88.8608C112.306 87.281 111.536 85.7011 110.684 84.1212C110.198 83.23 109.752 82.3388 109.265 81.4881C109.265 81.4476 109.184 81.4881 109.184 81.5286C109.914 83.149 110.603 84.7694 111.414 86.3492C112.185 87.9291 112.955 89.509 113.766 91.0889C114.212 91.9801 114.699 92.8713 115.226 93.722H115.266C114.618 92.0611 113.847 90.4407 113.077 88.8608Z" fill="#263238"/>
<path d="M59.2665 115.395L90.2064 114.503C90.2064 114.503 89.6387 86.3897 86.3135 79.7867C85.2187 77.6802 80.1093 76.87 77.798 78.5309C68.1064 85.539 59.2665 115.314 59.2665 115.395Z" fill="#455A64"/>
<path d="M59.2665 115.395L90.2064 114.503C90.2064 114.503 90.6524 101.662 88.8277 89.509L78.0007 89.6305C78.0007 89.6305 72.3237 99.3528 70.5395 100.933C68.7553 102.513 62.8349 102.918 62.8349 102.918C62.8349 102.918 60.3613 110.979 59.2665 115.395Z" fill="#455A64"/>
<path d="M78.0007 89.6305H79.5417C79.5417 89.6305 79.5011 86.3492 79.0145 83.9186C78.4468 80.8399 77.1897 79.017 77.1897 79.017L75.9327 79.7866C75.9327 79.7866 76.987 82.5008 77.3519 83.9591C77.7574 85.7416 78.0007 89.6305 78.0007 89.6305Z" fill="#455A64"/>
<path d="M87.2868 89.6305H88.8277C88.8277 89.6305 88.7871 86.3492 88.3005 83.9187C87.8545 81.6501 86.6785 79.9487 86.6785 79.9487L85.1782 79.7867C85.1782 79.7867 86.2325 82.5008 86.5974 83.9592C87.0435 85.7416 87.2868 89.6305 87.2868 89.6305Z" fill="#455A64"/>
<path d="M63.6459 115.719C63.4837 115.921 63.7676 126.859 64.4975 127.224C65.2274 127.548 74.3918 127.791 75 127.345C75.6083 126.9 74.9189 116.002 74.8378 115.881C74.7567 115.719 63.9298 115.354 63.6459 115.719Z" fill="#455A64"/>
<path opacity="0.1" d="M75.1215 120.904C75.2431 123.821 75.3242 127.061 74.9998 127.304C74.3916 127.75 65.2272 127.507 64.4973 127.183C64.0918 127.021 63.8485 123.78 63.7268 120.863C63.6052 118.433 63.6052 115.8 63.6863 115.719C63.9701 115.354 74.7565 115.719 74.8376 115.84C74.8376 115.881 74.9998 118.473 75.1215 120.904Z" fill="black"/>
<path d="M58.6988 115.638C58.5366 115.516 58.7799 111.506 59.2665 110.493C59.2665 110.493 69.4852 110.898 77.798 110.777C84.0022 110.695 90.693 110.088 90.7741 110.25C90.8146 110.412 91.504 114.584 91.3823 114.949C91.2607 115.314 82.2585 115.881 76.9059 116.083C71.5532 116.245 59.2665 116.043 58.6988 115.638Z" fill="#455A64"/>
<path opacity="0.3" d="M58.6988 115.638C58.5366 115.516 58.7799 111.506 59.2665 110.493C59.2665 110.493 69.4852 110.898 77.798 110.777C84.0022 110.695 90.693 110.088 90.7741 110.25C90.8146 110.412 91.504 114.584 91.3823 114.949C91.2607 115.314 82.2585 115.881 76.9059 116.083C71.5532 116.245 59.2665 116.043 58.6988 115.638Z" fill="black"/>
<path d="M89.8009 110.088C89.4359 109.926 83.475 110.088 83.1912 110.29C82.664 110.614 82.9073 115.8 83.0695 115.962C83.1912 116.083 89.9225 115.759 90.1253 115.597C90.2875 115.476 90.1658 110.25 89.8009 110.088ZM89.3954 114.99C89.2332 115.111 83.7994 115.395 83.6778 115.273C83.5561 115.152 83.3939 111.141 83.7994 110.898C84.0427 110.736 88.8682 110.614 89.1926 110.736C89.4765 110.858 89.5576 114.868 89.3954 114.99Z" fill="#DBDBDB"/>
<path d="M89.7471 112.484L87.8428 112.562L87.8727 113.291L89.777 113.212L89.7471 112.484Z" fill="#DBDBDB"/>
<path d="M81.2042 113.41C81.2042 113.572 81.1231 113.693 80.9609 113.734C80.7987 113.734 80.6771 113.653 80.6365 113.491C80.6365 113.329 80.7176 113.207 80.8798 113.167C81.042 113.167 81.1637 113.248 81.2042 113.41Z" fill="#263238"/>
<path d="M78.3252 113.491C78.3252 113.653 78.2441 113.774 78.0819 113.815C77.9196 113.815 77.798 113.734 77.7574 113.572C77.7574 113.41 77.8385 113.288 78.0008 113.248C78.163 113.207 78.2846 113.329 78.3252 113.491Z" fill="#263238"/>
<path d="M67.3766 114.139L64.0109 114.22L63.8487 105.51C63.8487 104.943 64.2947 104.498 64.8625 104.457L66.2006 104.417C66.7683 104.417 67.2144 104.862 67.2549 105.429L67.3766 114.139Z" fill="#37474F"/>
<path d="M66.8403 114.157L64.5699 114.202L64.5877 115.093L66.8581 115.048L66.8403 114.157Z" fill="#37474F"/>
<path d="M66.1043 115.064L65.3745 115.078L65.5671 124.718L66.2968 124.703L66.1043 115.064Z" fill="#EBEBEB"/>
<path d="M66.6466 125.522C66.6466 125.522 66.2411 127.021 66.2006 127.021H65.9573H65.714C65.6734 127.021 65.1868 125.562 65.1868 125.562L65.5518 124.712H66.2817L66.6466 125.522Z" fill="#EBEBEB"/>
<path d="M64.7471 105.749L64.1795 105.76L64.3291 113.253L64.8967 113.241L64.7471 105.749Z" fill="#263238"/>
<path d="M65.8416 105.708L65.274 105.719L65.4237 113.212L65.9912 113.201L65.8416 105.708Z" fill="#263238"/>
<path d="M66.9367 105.708L66.3691 105.719L66.5193 113.212L67.0868 113.201L66.9367 105.708Z" fill="#263238"/>
<path d="M73.5024 110.398L75.4489 110.404L75.4585 107.366L73.5121 107.36L73.5024 110.398Z" fill="#C7C7C7"/>
<path d="M73.5402 108.305C73.5402 108.305 72.4453 108.305 72.2426 108.305C72.0398 108.305 71.2694 107.414 70.6611 107.414C70.0529 107.414 70.58 107.414 69.9718 107.414C69.4041 107.414 66.9305 107.981 66.9305 109.521C66.9305 111.06 66.9305 110.412 66.9305 110.412C66.9305 110.412 67.2549 109.602 67.8226 109.48C68.4714 109.318 68.958 109.764 69.0796 110.209C69.2419 110.736 69.323 111.586 69.323 111.586H71.7154C71.7154 111.586 71.9993 110.412 72.202 110.047C72.4048 109.683 73.5402 109.764 73.5402 109.764V108.305Z" fill="#C7C7C7"/>
<path d="M69.7335 116.928L71.2338 116.933L71.2508 111.545L69.7505 111.54L69.7335 116.928Z" fill="#C7C7C7"/>
<path d="M69.3594 126.396L71.5897 126.403L71.6275 114.412L69.3973 114.405L69.3594 126.396Z" fill="#263238"/>
<path d="M75.1217 120.904C75.2433 123.821 75.3244 127.061 75 127.304C74.3918 127.75 65.2274 127.507 64.4975 127.183C64.092 127.021 63.8487 123.78 63.7271 120.863L75.1217 120.904Z" fill="#455A64"/>
<path opacity="0.3" d="M75.1217 120.904C75.2433 123.821 75.3244 127.061 75 127.304C74.3918 127.75 65.2274 127.507 64.4975 127.183C64.092 127.021 63.8487 123.78 63.7271 120.863L75.1217 120.904Z" fill="black"/>
<path d="M77.7574 79.5841C78.0007 79.9892 78.2846 80.3943 78.5685 80.7589C78.8523 81.1235 79.1362 81.5286 79.42 81.8932C79.9877 82.6223 80.596 83.3515 81.2448 84.0402C81.8936 84.7288 82.5424 85.4175 83.1912 86.0656C83.8805 86.7138 84.5699 87.3214 85.2998 87.8886L85.0565 87.9291C85.0565 87.8886 85.0971 87.8481 85.1376 87.8075C85.1782 87.767 85.1782 87.686 85.2187 87.6455C85.2593 87.524 85.2998 87.443 85.3404 87.3214C85.4215 87.0784 85.5026 86.8758 85.5837 86.6328C85.7459 86.1467 85.8675 85.7011 85.9892 85.2149C86.1108 84.7288 86.2325 84.2427 86.3541 83.7566L86.6785 82.2982C86.638 82.7844 86.5569 83.2705 86.5163 83.7971C86.4352 84.2832 86.3541 84.7693 86.273 85.2554C86.1919 85.7416 86.0703 86.2277 85.9486 86.7138C85.8675 86.9568 85.827 87.1999 85.7459 87.443C85.7053 87.5645 85.6648 87.686 85.6242 87.8075C85.5837 87.8481 85.5837 87.9291 85.5431 87.9696C85.5431 88.0101 85.5026 88.0101 85.5026 88.0506C85.5026 88.0911 85.462 88.0911 85.462 88.1721L85.3404 88.3342L85.1782 88.2126C84.4483 87.605 83.7183 87.0379 83.029 86.3492C82.664 86.0251 82.3396 85.701 82.0152 85.3365C81.853 85.1744 81.6908 84.9719 81.5286 84.8098C81.3664 84.6478 81.2042 84.4453 81.042 84.2832C80.4338 83.554 79.8255 82.8249 79.2984 82.0147C78.7307 81.245 78.2035 80.4348 77.7574 79.5841Z" fill="#263238"/>
<path d="M83.7183 84.9313C82.2585 84.7288 79.7039 81.4475 78.8929 78.9359C78.8523 78.7739 79.42 77.194 80.0283 75.209C80.3932 74.0343 80.7582 72.6974 81.042 71.4417L88.4627 74.9255C88.4627 74.9255 87.1651 77.356 86.7191 79.5436C86.6785 79.7056 86.6785 79.9081 86.6785 80.0702C86.6785 80.1107 86.6785 80.1107 86.6785 80.1512C86.638 81.2045 86.0297 85.2554 83.7183 84.9313Z" fill="#EB9481"/>
<path d="M86.6785 80.1107C86.6785 80.1512 86.6785 80.1512 86.6785 80.1917C86.4352 80.1917 86.1514 80.1512 85.8675 80.0702C81.4475 79.0574 81.4881 73.4266 81.6097 71.7252L88.5033 74.966C88.5033 74.966 87.2057 77.3966 86.7596 79.5841C86.6785 79.7461 86.6785 79.9487 86.6785 80.1107Z" fill="#263238"/>
<path d="M78.8929 64.1094C78.3252 66.9856 80.596 74.966 82.7857 76.5864C85.9487 78.9359 90.7336 78.6929 92.5989 75.0065C94.4237 71.4012 91.2607 61.0712 88.8683 59.6534C85.3404 57.5469 79.7444 59.8154 78.8929 64.1094Z" fill="#EB9481"/>
<path d="M85.7459 67.3502C85.9892 67.2286 86.1919 67.1071 86.3947 66.9856C86.638 66.864 86.8407 66.7425 87.0029 66.4995C87.084 66.3374 87.0029 66.1349 86.8813 66.0539C86.5569 65.8513 86.2325 65.9728 85.9081 66.1349C85.5837 66.2969 85.3809 66.54 85.2187 66.864C85.0565 67.1881 85.4215 67.4717 85.7459 67.3502Z" fill="#263238"/>
<path d="M91.2607 66.0539C91.0174 66.0944 90.7741 66.0539 90.5308 66.0539C90.2469 66.0539 90.0036 66.0539 89.7603 65.8918C89.6387 65.8108 89.5981 65.5678 89.6792 65.4462C89.8414 65.1222 90.2064 65.0411 90.5308 65.0411C90.8957 65.0411 91.1796 65.1222 91.504 65.3652C91.7878 65.5678 91.6256 66.0134 91.2607 66.0539Z" fill="#263238"/>
<path d="M87.5706 73.5076C87.7328 73.6292 87.895 73.7507 88.0977 73.7507C88.3005 73.7102 88.5032 73.5886 88.6655 73.5076C88.6655 73.5076 88.706 73.5076 88.706 73.5481C88.6249 73.7912 88.341 73.9937 88.0572 73.9937C87.8139 73.9937 87.6517 73.7912 87.53 73.5886C87.4895 73.5076 87.53 73.5076 87.5706 73.5076Z" fill="#263238"/>
<path d="M87.8139 71.7657C88.2194 72.1708 88.7061 72.3329 89.2332 72.3329C89.4765 72.3329 89.6793 72.2924 89.9226 72.2113C89.9631 72.2113 90.0037 72.1708 90.0442 72.1708C90.0848 72.1708 90.1253 72.1303 90.1659 72.1303C90.247 72.0898 90.247 72.0493 90.247 71.9683V71.9278V71.8873C90.1659 71.4822 90.0037 70.834 90.0037 70.834C90.1659 70.8745 91.0174 71.0771 90.9769 70.8745C90.4903 69.0921 89.9631 67.0666 89.1116 65.3652C89.071 65.3247 88.9899 65.3247 89.0305 65.4057C89.436 67.1477 90.1253 68.8085 90.5308 70.591C90.247 70.5505 89.8009 70.4694 89.5982 70.5099C89.5576 70.5505 89.9631 71.7252 89.9631 71.9278C89.9631 71.9278 89.9631 71.9278 89.9631 71.9683C89.2738 72.2113 88.706 72.0898 87.895 71.7657C87.8139 71.6847 87.7734 71.7252 87.8139 71.7657Z" fill="#263238"/>
<path d="M87.3679 68.4034L87.3273 68.4439C87.449 68.9705 87.5301 69.6187 87.084 69.9022V69.9427C87.6517 69.6997 87.5707 68.8895 87.3679 68.4034Z" fill="#263238"/>
<path d="M86.7596 67.9173C85.8675 68.0388 86.1919 69.8212 87.0029 69.6997C87.8139 69.5782 87.4895 67.8363 86.7596 67.9173Z" fill="#263238"/>
<path d="M90.4902 67.5932C90.4902 67.5527 90.5308 67.5932 90.5308 67.6337C90.6119 68.2008 90.7741 68.8085 91.3012 68.8895V68.93C90.693 68.9705 90.4902 68.1198 90.4902 67.5932Z" fill="#263238"/>
<path d="M90.8957 66.9451C91.7472 66.7425 92.1527 68.4844 91.3417 68.687C90.5307 68.8895 90.1658 67.1476 90.8957 66.9451Z" fill="#263238"/>
<path d="M79.6633 70.2264C79.6633 70.2264 77.6358 66.378 78.0413 63.7854C78.244 62.6106 79.6633 61.3548 79.6633 61.3548C79.6633 61.3548 85.0159 56.1696 90.328 60.6256C90.9363 61.1522 92.4772 62.6916 89.6387 63.7854C86.8813 64.8386 81.4475 63.3398 81.4475 63.3398C81.4475 63.3398 81.7314 66.1754 81.042 69.0111C80.7176 70.0238 79.6633 70.2264 79.6633 70.2264Z" fill="#263238"/>
<path d="M90.0442 59.6534C89.1926 59.7344 84.8943 61.3548 83.2317 62.8942C81.5692 64.393 79.0551 68.4035 78.9334 68.606C78.8118 68.8086 75.4461 61.9624 80.7987 58.6407C86.6785 55.0353 90.0442 59.6534 90.0442 59.6534Z" fill="#455A64"/>
<path d="M79.1767 68.2009C79.1767 68.2009 81.2853 61.8004 82.9884 59.8964C84.7321 57.9925 89.2737 55.6834 92.68 55.967C95.3563 56.1696 90.7335 61.1117 90.7335 61.1117C90.7335 61.1117 90.2875 60.3421 89.4359 60.3015C87.8139 60.2205 85.2187 61.5978 83.84 62.6916C82.1369 64.0284 79.1767 68.2009 79.1767 68.2009Z" fill="#455A64"/>
<path opacity="0.2" d="M79.1767 68.2009C79.1767 68.2009 81.2853 61.8004 82.9884 59.8964C84.7321 57.9925 89.2737 55.6834 92.68 55.967C95.3563 56.1696 90.7335 61.1117 90.7335 61.1117C90.7335 61.1117 90.2875 60.3421 89.4359 60.3015C87.8139 60.2205 85.2187 61.5978 83.84 62.6916C82.1369 64.0284 79.1767 68.2009 79.1767 68.2009Z" fill="black"/>
<path d="M81.2853 70.5504C81.2853 70.5504 79.1362 68.1604 78.0413 68.9301C76.9465 69.7402 78.7712 73.3456 80.231 73.7102C81.6908 74.0748 82.0558 72.738 82.0558 72.738L81.2853 70.5504Z" fill="#EB9481"/>
<path d="M78.5684 69.9428C78.5279 69.9833 78.5279 69.9428 78.5684 69.9428C79.5822 70.2669 80.231 71.1176 80.6771 72.0088C80.3527 71.6847 79.9066 71.5227 79.4605 71.9278C79.42 71.9683 79.4605 71.9683 79.5011 71.9683C79.9066 71.8468 80.1905 71.8873 80.5149 72.1708C80.7176 72.3734 80.8798 72.657 81.0826 72.9C81.1231 72.981 81.2853 72.9 81.2448 72.819C81.2448 72.819 81.2448 72.819 81.2448 72.7785C81.0826 71.5632 79.9066 69.9428 78.5684 69.9428Z" fill="#263238"/>
<path d="M86.8002 79.5031L84.4482 83.7566L79.1767 77.5586L77.3519 79.179C77.3519 79.179 82.1369 88.6582 82.218 88.2531L84.5699 84.6478L87.084 87.5645L87.5706 80.8804L86.8002 79.5031Z" fill="#455A64"/>
<path d="M87.4895 84.2832C87.5301 83.1894 87.6112 82.0551 87.5706 80.9614C87.5706 80.9209 87.4895 80.8804 87.4895 80.9614C87.1651 82.0146 87.0435 86.2276 86.9218 87.2404C86.8002 87.1188 84.5699 84.6478 84.5294 84.6883C84.0428 85.2554 82.3396 87.8885 82.218 88.1316C81.4475 86.6327 78.2035 80.6778 77.2709 79.2195C77.2303 79.179 77.1898 79.2195 77.1898 79.26C77.8386 80.8399 82.0152 88.6987 82.0964 88.6582C82.1369 88.6987 84.2455 85.458 84.5294 84.8098C84.8943 85.3364 87.1246 88.0911 87.1651 87.929C87.3679 86.8353 87.449 85.4174 87.4895 84.2832Z" fill="#263238"/>
<path d="M135.218 55.4259L100.911 61.8994L105.894 88.2501L140.2 81.7766L135.218 55.4259Z" fill="#455A64"/>
<path opacity="0.7" d="M135.218 55.4259L100.911 61.8994L105.894 88.2501L140.2 81.7766L135.218 55.4259Z" fill="white"/>
<g opacity="0.3">
<path d="M134.933 55.481L119.889 85.6201L116.118 86.3492L131.162 56.2101L134.933 55.481Z" fill="white"/>
<path d="M138.218 71.5228L139.151 76.4649L136.109 82.5414L132.338 83.2705L138.218 71.5228Z" fill="white"/>
<path d="M123.417 57.6685L108.332 87.8076L106.467 88.1721L121.511 58.033L123.417 57.6685Z" fill="white"/>
<path d="M110.4 60.1395L103.264 74.3989L103.142 73.7912L109.954 60.2205L110.4 60.1395Z" fill="white"/>
</g>
<path d="M136.042 55.31L135.205 55.4678L140.184 81.8185L141.021 81.6607L136.042 55.31Z" fill="#455A64"/>
<path d="M140.985 81.618L105.882 88.2419L105.965 88.6797L141.068 82.0559L140.985 81.618Z" fill="#455A64"/>
<path d="M75.4055 85.8631C79.7444 93.4789 90.0441 104.416 93.8559 104.133C98.0731 103.809 109.265 90.6027 110.968 87.2809C111.698 85.8631 100.141 79.3411 99.3302 80.8399C98.6408 82.1362 94.0586 90.9268 92.8016 90.9673C92.2744 91.0078 87.5706 86.9568 79.9471 83.1489C74.0673 80.2728 74.1079 83.6351 75.4055 85.8631Z" fill="#EB9481"/>
<path d="M97.7892 84.8503C97.7892 84.8503 98.1947 83.392 98.9652 79.6651C99.5735 76.7484 103.061 70.3479 111.293 68.7681C114.455 68.1604 116.24 70.1049 113.077 71.3202C110.846 72.1709 109.224 72.576 108.576 73.0621C108.576 73.0621 112.063 74.1558 112.712 76.1813C112.996 77.0725 113.726 79.5436 114.009 81.5691C114.009 81.5691 113.604 81.7311 113.036 81.8932C113.036 81.8932 113.766 84.4453 111.455 86.3492L109.549 89.4684L97.7892 84.8503Z" fill="#EB9481"/>
<path d="M100.303 77.3156C101.52 76.3433 104.156 74.3584 106.872 73.4672C109.914 72.4949 115.996 71.4012 116.686 73.6292C117.213 75.2901 114.901 75.8977 114.901 75.8977C114.901 75.8977 117.497 75.9788 117.659 77.5586C117.781 79.017 115.996 79.3816 115.996 79.3816C115.996 79.3816 117.578 79.7056 117.416 81.1235C117.253 82.8249 113.969 81.8932 112.306 83.4325C111.982 83.7971 100.303 77.3156 100.303 77.3156Z" fill="#EB9481"/>
<path d="M107.4 76.8294C108.697 76.1003 112.063 75.2496 114.901 75.8167C114.983 75.8167 114.983 75.8977 114.942 75.8977C111.657 75.8977 108.657 76.5459 107.4 76.8294Z" fill="#263238"/>
<path d="M108.495 79.8676C109.67 79.3815 113.198 78.6119 116.037 79.341C116.118 79.341 116.118 79.422 116.077 79.422C112.671 79.26 109.752 79.6246 108.495 79.8676C108.454 79.9082 108.454 79.8676 108.495 79.8676Z" fill="#263238"/>
<path d="M108.819 91.7775L97.4243 83.9186C97.4243 83.9186 93.0449 90.4001 92.4772 90.4001C91.7473 90.4001 83.029 84.1212 78.8928 82.3387C74.4323 80.3943 72.0398 83.1084 75.7299 88.1316C77.1897 90.1166 86.4757 103.444 93.8153 104.457C97.7487 104.984 108.819 91.7775 108.819 91.7775Z" fill="#455A64"/>
<path d="M96.6133 87.5239C97.2621 88.1316 98.0326 88.6177 98.7625 89.1443C99.4924 89.6709 100.263 90.1976 101.033 90.7242C101.804 91.2508 104.926 93.1547 105.697 93.6409C105.737 93.6814 105.778 93.6004 105.737 93.5598C105.007 93.0332 102.047 90.8862 101.277 90.3596C100.547 89.8735 99.7762 89.3469 99.0058 88.8607C98.1948 88.4151 97.4243 87.8885 96.6133 87.5239C96.6133 87.4834 96.5727 87.5239 96.6133 87.5239Z" fill="#263238"/>
<path d="M75.3244 87.4835C77.5952 90.5217 79.9877 93.4384 82.5829 96.2335C85.1781 98.9477 87.8545 101.743 91.2201 103.444C93.126 104.416 94.5453 104.497 96.4106 103.323C101.196 100.244 104.926 95.8284 108.819 91.737V91.7775L108.17 91.2914L108.86 91.737C107.602 93.1548 106.386 94.6131 105.088 96.031C102.655 98.5426 97.3838 104.457 93.8559 104.578C87.5301 104.133 78.8523 92.5066 75.3244 87.4835Z" fill="#263238"/>
<path d="M75.3244 88.2936C75.8921 88.7392 76.4598 89.2254 77.0275 89.7115C76.3787 89.3064 75.811 88.8608 75.3244 88.2936Z" fill="#263238"/>
<path d="M81.042 83.392C82.6235 84.2427 84.2049 85.1744 85.7458 86.1061C87.9761 87.4024 89.9631 89.1038 92.2744 90.1976C92.3555 90.1976 92.4366 90.2381 92.5177 90.2381C92.8421 90.0355 93.1665 89.6709 93.4504 89.3469C94.8697 87.605 96.1267 85.7415 97.4243 83.9186L97.7082 84.1616L97.3838 83.9591C96.0862 86.0656 94.7886 88.2126 93.126 90.076C92.9638 90.2381 92.8016 90.4001 92.5583 90.5216C92.0717 90.6432 91.5851 90.2786 91.1796 90.076C87.8139 87.848 84.5293 85.539 81.042 83.392Z" fill="#263238"/>
<path d="M81.6908 83.5135C82.1368 83.6755 82.5018 84.0401 82.7857 84.4047C82.3802 84.1211 82.0557 83.7971 81.6908 83.5135Z" fill="#263238"/>
<path d="M98.0326 166.275H58.3744V167.206H98.0326V166.275Z" fill="#455A64"/>
<path d="M98.0326 165.059H58.3744V165.991H98.0326V165.059Z" fill="#455A64"/>
<path d="M98.0326 163.844H58.3744V164.776H98.0326V163.844Z" fill="#455A64"/>
<path d="M98.0326 162.629H58.3744V163.56H98.0326V162.629Z" fill="#455A64"/>
<path d="M98.0326 161.413H58.3744V162.345H98.0326V161.413Z" fill="#455A64"/>
<path d="M98.0326 160.239H58.3744V161.17H98.0326V160.239Z" fill="#455A64"/>
<path d="M98.0326 159.023H58.3744V159.955H98.0326V159.023Z" fill="#455A64"/>
<path d="M98.0326 157.808H58.3744V158.74H98.0326V157.808Z" fill="#455A64"/>
<path d="M98.0326 156.593H58.3744V157.524H98.0326V156.593Z" fill="#455A64"/>
<path d="M98.0326 155.377H58.3744V156.309H98.0326V155.377Z" fill="#455A64"/>
<path d="M98.0326 154.162H58.3744V155.094H98.0326V154.162Z" fill="#455A64"/>
<path d="M98.0326 152.947H58.3744V153.879H98.0326V152.947Z" fill="#455A64"/>
<path d="M98.0326 151.732H58.3744V152.663H98.0326V151.732Z" fill="#455A64"/>
<path d="M98.0326 150.516H58.3744V151.448H98.0326V150.516Z" fill="#455A64"/>
<path d="M98.0326 149.301H58.3744V150.233H98.0326V149.301Z" fill="#455A64"/>
<path d="M98.0326 148.086H58.3744V149.017H98.0326V148.086Z" fill="#455A64"/>
<path d="M98.0326 146.87H58.3744V147.802H98.0326V146.87Z" fill="#455A64"/>
<path d="M98.0326 145.655H58.3744V146.587H98.0326V145.655Z" fill="#455A64"/>
<path d="M98.0326 144.44H58.3744V145.372H98.0326V144.44Z" fill="#455A64"/>
<path d="M98.0326 143.265H58.3744V144.197H98.0326V143.265Z" fill="#455A64"/>
<path d="M53.0623 141.483H86.5163L77.1492 167.206H43.6546L53.0623 141.483Z" fill="#455A64"/>
<path opacity="0.7" d="M53.0623 141.483H86.5163L77.1492 167.206H43.6546L53.0623 141.483Z" fill="white"/>
<g opacity="0.3">
<path d="M86.273 141.483L57.3606 167.206H53.6705L82.5829 141.483H86.273Z" fill="white"/>
<path d="M80.7987 157.16L79.055 162.021L73.1752 167.206H69.5257L80.7987 157.16Z" fill="white"/>
<path d="M75 141.483L46.0876 167.206H44.2223L73.1752 141.483H75Z" fill="white"/>
<path d="M62.3078 141.483L48.6017 153.676L48.8045 153.109L61.8617 141.483H62.3078Z" fill="white"/>
</g>
<path d="M77.9602 167.206H77.1492L86.5163 141.483H87.3273L77.9602 167.206Z" fill="#455A64"/>
<path d="M170.861 164.857H155.006L145.476 166.518L170.861 164.857Z" fill="#455A64"/>
<path d="M178.484 156.714H166.035V159.55H178.484V156.714Z" fill="#455A64"/>
<path d="M160.115 165.302L159.71 164.978L162.305 163.844L163.278 157.687H166.035V158.618H164.089L163.156 164.533L160.115 165.302Z" fill="#455A64"/>
<path d="M170.861 164.857V165.586L145.476 167.206V166.518L170.861 164.857Z" fill="#37474F"/>
<path d="M50.4671 49.1614C51.1564 55.805 57.1173 60.5851 63.727 59.8964C66.4033 59.6129 68.7958 58.4786 70.6206 56.7772L76.6626 57.6684L73.6213 52.4427C74.3512 50.6603 74.6756 48.6753 74.4323 46.6498C73.743 40.0063 67.7821 35.2261 61.1724 35.9148C54.6032 36.6034 49.7777 42.5584 50.4671 49.1614Z" fill="white"/>
<path d="M54.0759 39.1961C55.3735 37.8997 56.9956 36.9275 58.7392 36.3604C60.4829 35.7932 62.3887 35.6312 64.2135 35.8743C66.0383 36.1173 67.8225 36.7655 69.3634 37.8187C70.9043 38.8315 72.2019 40.2493 73.1346 41.8292C74.9999 45.0294 75.3243 49.1209 73.8645 52.5642V52.3617L76.8652 57.5874L77.068 57.9925L76.6219 57.9115L70.5799 56.9797L70.7421 56.9392C69.0796 58.4381 66.9709 59.4913 64.7812 59.8964C64.2135 59.9775 63.6864 60.0585 63.1187 60.0585C62.551 60.099 61.9832 60.0585 61.4561 60.018C60.3612 59.8964 59.2258 59.6939 58.2121 59.2483C57.1578 58.8432 56.1845 58.3166 55.2924 57.6279C54.8464 57.3038 54.4409 56.8987 54.0354 56.5341C53.6704 56.129 53.2649 55.7239 52.9405 55.2783C51.5618 53.5364 50.7508 51.3489 50.5075 49.1614C50.0614 45.5561 51.3996 41.7482 54.0759 39.1961ZM52.9405 55.2783C53.2649 55.7239 53.6704 56.129 54.0354 56.5341C54.4409 56.8987 54.8464 57.3038 55.2924 57.5874C56.1845 58.2761 57.1578 58.7622 58.2121 59.1673C59.2258 59.5724 60.3612 59.7749 61.4561 59.8964C62.0238 59.8964 62.551 59.9369 63.1187 59.8964C63.6864 59.8559 64.2135 59.8154 64.7407 59.6939C66.8898 59.2483 68.9174 58.2355 70.5394 56.7367L70.5799 56.6962H70.661L76.703 57.5469L76.5003 57.871L73.459 52.6452L73.4184 52.5642L73.459 52.4427C74.1483 50.7818 74.4322 48.9589 74.3105 47.1764C74.1483 45.394 73.7023 43.6116 72.7696 42.0722C71.8775 40.5329 70.6205 39.1555 69.1607 38.1428C67.7008 37.1301 65.9572 36.4414 64.173 36.1578C62.3887 35.8743 60.5234 36.0363 58.8203 36.5629C57.0767 37.1301 55.4952 38.0618 54.157 39.3176C51.4807 41.8292 50.1425 45.5966 50.5075 49.2424C50.7508 51.3894 51.5618 53.5364 52.9405 55.2783Z" fill="#263238"/>
<path d="M61.1318 54.7922L55.9819 49.607L57.7256 47.8651L60.7263 50.9033L67.0116 41.1405L69.0391 42.4368L61.1318 54.7922Z" fill="#455A64"/>
</g>
<defs>
<clipPath id="clip0_63_5264">
<rect width="168" height="166.656" fill="white" transform="translate(19 1.31964)"/>
</clipPath>
</defs>
</svg>
